<?xml version="1.0" encoding="utf-8"?>
<!-- Generator: Adobe Illustrator 16.0.0, SVG Export Plug-In . SVG Version: 6.00 Build 0)  -->
<!DOCTYPE svg PUBLIC "-//W3C//DTD SVG 1.1//EN" "http://www.w3.org/Graphics/SVG/1.1/DTD/svg11.dtd">
<svg version="1.1" id="Livello_1" xmlns="http://www.w3.org/2000/svg" xmlns:xlink="http://www.w3.org/1999/xlink" x="0px" y="0px"
	 width="727px" height="463px" viewBox="0 0 727 463" enable-background="new 0 0 727 463" xml:space="preserve">
<polygon fill="#D6CBC1" points="708.958,449.406 17.176,446.523 19.729,18.404 711.512,21.288 "/>
<path fill="#D6CBC1" d="M716.277,446.832c-0.13,3.307,1.135,2.127,1.357,2.625C717.389,443.922,715.949,446.971,716.277,446.832"/>
<polygon fill="#D6CBC1" points="713.75,392.229 714.256,393.197 713.048,385.143 "/>
<path fill="#D6CBC1" d="M714.078,341.182c-2.172,4.813,0.234,18.498-0.582,27.588L713,370.268l1.699,4.113
	C714.49,363.326,713.434,348.963,714.078,341.182"/>
<path fill="#D6CBC1" d="M718.872,313.992c-0.844,1.676-0.683-5.891-0.299,6.344c0.094-0.613,0.147-0.789,0.217-1.146
	C718.784,318.088,718.796,316.572,718.872,313.992"/>
<path fill="#D6CBC1" d="M718.79,319.189C718.819,324.566,719.512,315.676,718.79,319.189"/>
<path fill="#D6CBC1" d="M718.461,294.361l0.703,7.084c0.5-1.477,0.648-7.777,0.991-5.436
	C719.793,288.744,719.294,290.236,718.461,294.361"/>
<path fill="#D6CBC1" d="M716.938,287.637l0.292,3.672C717.442,290.668,717.519,289.697,716.938,287.637"/>
<path fill="#D6CBC1" d="M717.85,299.096l-0.618-7.787c-0.353,1.025-1.048,1.129,0.22,3.574
	C716.82,294.242,717.419,295.785,717.85,299.096"/>
<path fill="#D6CBC1" d="M717.496,303.498c-0.488,3.971-0.813,9.1-1.512,1.988C716.197,319.035,717.717,317.047,717.496,303.498"/>
<path fill="#D6CBC1" d="M711.877,338.563l-0.657,5.307l0.69,4.598C711.566,346.17,712.551,338.236,711.877,338.563"/>
<path fill="#D6CBC1" d="M719.833,250.256c-0.452-0.445-1.229,2.373-1.815,2.898l0.492,5.232
	C718.838,255.701,719.154,250.609,719.833,250.256"/>
<path fill="#D6CBC1" d="M718.018,253.154l-0.734-7.83C717.148,252.314,717.513,253.594,718.018,253.154"/>
<polygon fill="#D6CBC1" points="714.568,286.361 716.135,299.225 714.561,283.883 "/>
<polygon fill="#D6CBC1" points="720.067,220.369 721.098,224.811 719.551,216.899 "/>
<path fill="#D6CBC1" d="M720.002,200.542c0.854,3.288,1.504-4.493,2.021-1.019c-0.125-5.385-0.848-9.988-1.498-14.133
	C720.877,189.792,720.753,194.481,720.002,200.542"/>
<path fill="#D6CBC1" d="M719.586,178.433c0.195,2.198,0.558,4.477,0.941,6.958C720.338,183.053,720.063,180.751,719.586,178.433"/>
<path fill="#D6CBC1" d="M717.588,231.996c0.279-0.604,1.006-1.766,1.338-6.151l-1.301,3.07
	C717.613,229.853,717.601,230.917,717.588,231.996"/>
<path fill="#D6CBC1" d="M717.583,229.022l0.042-0.107c0.057-3.341,0.094-5.657,0.111-6.65
	C717.717,223.118,717.671,225.152,717.583,229.022"/>
<path fill="#D6CBC1" d="M717.577,232.771c0.005-0.285,0.006-0.495,0.011-0.775C717.46,232.292,717.416,232.47,717.577,232.771"/>
<path fill="#D6CBC1" d="M715.85,265.854c-0.688-4.604-1.4-14.193-2.549-4.924C714.16,264.232,714.814,258.928,715.85,265.854"/>
<path fill="#D6CBC1" d="M715.953,236.584l-0.344,8.31c0.34-0.162,0.842-1.658,1.184,0.623L715.953,236.584z"/>
<polygon fill="#D6CBC1" points="715.568,232.512 715.951,236.584 716.078,233.503 "/>
<path fill="#D6CBC1" d="M718.301,192.665c-0.536-3.594-0.561-7.522-0.623-11.96c-0.279,4.754-0.446,9.67-0.47,14.339
	C717.606,195.705,718.316,197.76,718.301,192.665"/>
<path fill="#D6CBC1" d="M717.84,210.332c-0.021-0.248-0.049-0.565-0.069-0.798C717.659,210.023,717.623,210.417,717.84,210.332"/>
<path fill="#D6CBC1" d="M717.947,137.028c-0.083,0.241-0.153,0.452-0.236,0.698c0.074,0.056,0.145,0.095,0.219,0.165
	L717.947,137.028z"/>
<path fill="#D6CBC1" d="M716.963,195.839c-0.268,3.574,0.033,5.711,0.416,7.749c-0.112-2.672-0.18-5.506-0.172-8.545
	C717.027,194.746,716.908,194.689,716.963,195.839"/>
<path fill="#D6CBC1" d="M719.06,166.244c-0.28,1.86-0.519,3.969-0.741,6.187C718.734,170.612,719.389,166.906,719.06,166.244"/>
<path fill="#D6CBC1" d="M718.134,208.331c0.018,0.178,0.034,0.34,0.053,0.536C718.469,207.696,718.334,207.842,718.134,208.331"/>
<path fill="#D6CBC1" d="M718.134,208.331c-0.175-1.84-0.481-3.289-0.756-4.742c0.089,2.175,0.216,4.194,0.394,5.944
	C717.864,209.091,718.006,208.649,718.134,208.331"/>
<path fill="#D6CBC1" d="M709.797,123.745c1.184,0.638,2.226,10.042,0.904,18.144c0.844,7.989,4.783,2.793,7.01-4.162
	c-0.518-0.25-0.996-0.253-1.65-8.472c-0.666,2.87-1.625,18.217-2.66,11.28c-0.546-10.884,0.475-8.914,1.135-14.2
	c-1.508,4.488-2.073-13.855-4.264-11.499l0.709,9.547C710.641,124.56,710.123,121.096,709.797,123.745"/>
<path fill="#D6CBC1" d="M717.495,153.377l0.126,3.381c0.231-3.852,0.724-6.607,1.684-11.681c-0.547-5.626-0.982-6.796-1.375-7.187
	l-0.264,16.643L717.495,153.377z"/>
<path fill="#D6CBC1" d="M717.537,171.934c-1.278-2.647-1.779-10.768-3.207-5.805c0.03,9.919,1.038,6.957,1.563,12.887
	c-0.225-16.008,0.693,4.603,1.496-6.959c0.201,3.147,0.252,5.978,0.289,8.647c0.175-2.881,0.386-5.659,0.639-8.275
	c-0.03,0.146-0.055,0.248-0.082,0.368l0.005,0.075c-0.009,0-0.012-0.016-0.021-0.016c-0.166,0.69-0.266,0.917-0.167,0.139
	c-0.015-0.054-0.019-0.249-0.024-0.334c-0.178-0.11-0.334-0.406-0.482-0.727c0.295-4.633,0.338-0.728,0.482,0.727
	c0.064,0.054,0.123,0.18,0.191,0.195c0.008-0.015,0.012-0.038,0.016-0.059l-0.611-16.038
	C717.424,160.15,717.434,164.4,717.537,171.934"/>
<path fill="#D6CBC1" d="M710.572,252.361c0.117-0.498,0.209-0.475,0.303-0.512C710.725,250.811,710.617,250.418,710.572,252.361"/>
<path fill="#D6CBC1" d="M711.393,245.77c0.174,1.168,0.684,2.141,0.527,5.93c-0.406,3.285-0.617-0.018-1.043,0.15
	c0.328,2.287,0.879,8,1.549,0.84l-0.168-1.135c0.48-6.453,2.144-14.736,2.314-13.608C713.398,239.823,712.561,241.48,711.393,245.77
	"/>
<path fill="#D6CBC1" d="M714.138,208.389l-0.556-13.356l-1.158,6.794l0.676-0.341C712.79,209.078,713.627,207.443,714.138,208.389"
	/>
<polygon fill="#D6CBC1" points="718.6,135.503 719.955,137.283 718.074,129.558 "/>
<polygon fill="#D6CBC1" points="718.539,118.151 719.723,118.799 719.035,114.215 "/>
<path fill="#D6CBC1" d="M25.717,209.024l0.313,3.926C25.938,211.093,25.833,209.898,25.717,209.024"/>
<path fill="#D6CBC1" d="M25.968,180.62l-0.581-0.7C25.702,181.238,25.937,181.778,25.968,180.62"/>
<path fill="#D6CBC1" d="M382.203,12.443c-5.712-1.132-12.088-2.878-11.404-1.541l1.75,1.308
	C376.543,11.995,379.604,12.153,382.203,12.443"/>
<path fill="#D6CBC1" d="M90.312,18.997c0.543,0.13,1.108,0.267,1.669,0.402c1.391-0.44,2.697-0.857,3.866-1.228
	C94.181,18.42,92.293,18.702,90.312,18.997"/>
<path fill="#D6CBC1" d="M86.257,24.367l-7.53-0.872C80.419,23.796,82.84,24.086,86.257,24.367"/>
<path fill="#D6CBC1" d="M26.172,364.164l1.299,4.586C27.506,361.586,26.819,364.736,26.172,364.164"/>
<path fill="#D6CBC1" d="M630.642,13.825c-4.931-0.529-8.854-0.76-12.302-0.837C624.279,13.76,629.068,14.901,630.642,13.825"/>
<path fill="#D6CBC1" d="M11.973,197.764c0.222,2.402,0.479,3.43,0.771,3.36C12.536,198.653,12.295,197.253,11.973,197.764"/>
<path fill="#D6CBC1" d="M604.098,12.933c0.868,0.134,1.723,0.204,2.605,0.316c3.605-0.202,7.234-0.363,11.639-0.261
	C613.955,12.413,608.932,12.05,604.098,12.933"/>
<path fill="#D6CBC1" d="M497.423,441.098c0.407,0.059,0.901,0.09,1.271,0.16C498.818,441.082,498.254,441.07,497.423,441.098"/>
<path fill="#D6CBC1" d="M661.277,454.914c-1.614,0.074-4.246,0.064-6.729,0.072C655.755,455.08,657.785,455.08,661.277,454.914"/>
<path fill="#D6CBC1" d="M719.523,48.338C719.587,52.019,719.664,48.923,719.523,48.338"/>
<path fill="#D6CBC1" d="M714.27,66.205c-0.141-0.783-0.324-1.378-0.624-1.475C713.957,65.037,714.152,65.549,714.27,66.205"/>
<path fill="#D6CBC1" d="M567.406,20.881c-0.107-0.001-0.195-0.003-0.318-0.006C568.182,21.134,567.993,21.085,567.406,20.881"/>
<path fill="#D6CBC1" d="M718.898,53.872c0.168-1.38,0.311-2.971,0.414-4.704C719.207,49.927,719.074,51.357,718.898,53.872"/>
<path fill="#D6CBC1" d="M719.518,53.131c-0.057,1.269-0.102,2.265-0.145,3.216C719.587,56.812,719.725,56.403,719.518,53.131"/>
<path fill="#D6CBC1" d="M719.484,43.211c0.008,2.105-0.066,4.069-0.172,5.957c0.093-0.721,0.169-1.024,0.21-0.829
	C719.516,47.26,719.504,45.736,719.484,43.211"/>
<path fill="#D6CBC1" d="M195.951,443.324c0.243,0.041,0.523,0.068,0.789,0.125C200.454,442.926,198.823,443.004,195.951,443.324"/>
<path fill="#D6CBC1" d="M286.365,25.56c0.173-0.012,0.264-0.047,0.42-0.062c-0.173-0.015-0.389-0.035-0.543-0.048L286.365,25.56z"/>
<path fill="#D6CBC1" d="M273.143,26.474c5.636-1.596,8.835-1.384,13.099-1.023l-4.358-3.773L273.143,26.474z"/>
<path fill="#D6CBC1" d="M25.688,277.039l1.224-9.275c1.858,11.215,1.146,19.318,2.842,10.613
	c-4.066-1.338-0.202-36.082-4.264-37.398l0.892-6.114c-0.05,1.752,0.189,2.034,0.138,3.768c2.022-11.889-2.893-8.859-2.221-24.188
	c0.343-5.341,0.957-9.067,1.419-5.42l-0.936-11.913c0.099-3.464,0.8-2.613,0.703,0.836l-0.218-18.163l0.12,0.136
	c-0.624-2.595-1.576-8.472-1.979-11.342c0.611-4.611,0.418,2.317,0.933,1.14l-0.927-10.062c1.08-4.091,2.055,4.249,1.863,11.194
	c4.123-9.366-0.978-8.349,1.521-28.602l0.46,9.498c2.347-6.108,1.554-13.523,3.059-24.249c-0.768,2.542-3.759,21.469-4.708,10.55
	c0.326-3.073,0.496-7.126-0.29-13.019c1.449-0.046,1.128-5.795,1.089-12.99l1.915,0.503c-0.507-7.781-1.487-7.172-2.325-11.753
	c0.242-8.667,1.738-10.454,3.003-12.488c0.387-13.878-2.44,9.571-2.705-6.86c0.803-11.54,0.068-19.652-0.999-33.468
	c0.709-8.075,1.166,1.421,1.732-1.474l-1.488-7.171c0.047-1.753,0.514-1.185,0.749-0.896c-0.278-3.02-0.756-3.147-1.224-3.707
	c-0.234-0.278-0.463-0.666-0.665-1.576c-0.103-0.456-0.195-1.041-0.277-1.811c-0.057-0.619-0.127-1.384-0.216-2.338
	c-0.923-0.806-0.425-3.721,0.217-6.153c2.403,0.413,4.672,0.887,6.598,1.089l0.365,0.034l0.188,0.016l0.345,0.013l1.378,0.036
	c0.916,0.014,1.827,0.006,2.727-0.03c1.799-0.07,3.551-0.25,5.201-0.58c2.89,0.557-1.402,1.169-0.522,1.917
	c16.119-1.507,13.818-1.087,27.056-3.151l11.264,1.307c-8.274-1.476,2.313-3.136,11.586-4.499c-2.936-0.708-5.442-1.327-7.125-1.625
	l14.793-0.969c1.785,0.322,0.293,0.976-2.133,1.767c1.008-0.155,1.966-0.308,2.712-0.449c5.284,0.73,2.539,1.827-1.255,2.883
	c-1.799-0.407-3.585-0.812-5.323-1.207c-3.657,1.151-7.079,2.428-6.323,3.554c0.963-0.216,2.813-0.399,4.849-0.498
	c-0.956,0.313-1.567,0.593-1.126,0.786c0.501,0.206,2.046-0.213,4.467-0.693l3.354,2.153l0.819-0.846l19.343,1.42
	c13.852-2.097,25.906-5.216,47.882-6.008c-5.459,1.546-1.182,2.558-1.487,4.415c-5.987-1.992-17.021,0.765-28.407,0.318
	c5.941,0.231,4.632,1.113,3.118,1.414l20.317-1.703c-0.465,1.518,4.309,1.156,9.611,1.808c-3.998-3.021,15.146-1.938,23.415-2.825
	c0.508,1.012-1.477,2.032-11.559,1.748c11.115,2.309,14.388-3.469,25.299-1.501c-2.463,0.016-3.79-0.145-4.764,0.363
	c5.754-0.873,19.809-0.104,16.498,0.76l-2.457,0.011c16.343,0.424,49.752,0.229,52.2-2.312c0.162,0.329-2.154,3.067-3.146,3.578
	l29.197-8.464c-2.578,2.181,7.262,7.441-6.297,8.622c3.89,0.329,8.703,0.714,16.91-0.026c-2.654-0.323-6.603-3.196-2.974-3.382
	c9.946,2.482,6.907,1.335,19.172,3.466c-3.978-0.488,0.458-3.906,6.744-3.77c-0.984,0.511,0.51,3.395-1.791,3.743l15.666-3.308
	c-3.909,0.591-0.702,2.856,2.796,3.824c-1.622-0.668,13.531,0.118,17.704-0.199l-6.631-0.81c17.67,0.583,17.476-4.671,35.006-4.422
	c-2.126,0.688-5.26,4.268,3.654,4.729c4.093-1.711,18.127-8.236,33.642-9.501l2.971,0.999l11.906-1.075
	c-7.423,2.569-28.241,7.954-39.604,10.035c6.609,0.81,1.836,1.172,11.74,1.125c3.494,0.94-5.404,1.381-8.318,1.423l23.055,0.695
	c-1.017-2.024,17.641-1.951,16.768-3.635l-25.051,1.986c-1.007-2.016,14.503-5.664,30.839-5.239c4.153,0.82-3.123,3.578-2.786,4.251
	c2.124-0.686,15.512-1.262,17.012-0.762l-6.937,1.049c9.093,0.796,14.854-2.612,25.776-0.641c3.771,0.144,11.252,2.643,11.908,1.454
	c-6.143-2.328-7.315-9.452-3.207-11.163c1.322,0.16,19.799,2.283,24.102,3.438c6.203,1.831-9.344,4.262-4.063,5.834
	c0.23-0.551,3.664-1.215,5.096-1.428c3.961,0.486-1.646,1.7,6.961,1.487c1.447-2.038,17.509,0.246,4.078-1.712
	c8.422-0.549,8.947,0.458,18.834,0.41c-3.142-1.335,8.896-4.459,17.336-5.008c-0.498,0.52,1.393,1.203,2.309,1.516
	c17.262,0.257,26.521,1.225,42.616,1.308c1.482,0.501,9.245,1.133,5.935,2c2.315-0.352,4.445-1.037,9.411-1.065
	c9.599,1.808-11.069,0.229-3.755,2.383c0.631-1.184,12.846-1.585,19.918-2.297c-2.166-1.845-16.334-0.421-23.417,0.291
	c-0.024-2.531,12.315-5.131,29.142-6.231c13.373-0.572,5.791,1.661,8.112,1.31c25.112,0.547,21.413-4.332,42.259-2.418
	c9.398,1.651-0.016,3.21,2.19,4.382c-10.894,0.565-16.718-1.094-24.1-1.059l9.087,0.8c-3.468,0.521-10.739,0.899-14.699,0.415
	c2.436,0.519,8.395,0.729,15.941,0.846c7.387,0.082,16.328,0.181,24.924,0.277c-0.064,3.594-0.152,7.11-0.275,10.341
	c-0.126,3.349-0.289,6.657-0.504,9.515c0.52,3.445,1.045,9.39,1.709,6.582l-0.188-6.131c1.335-5.628,1.729,11.547,2.384,3.792
	c0.865,8.229,2.246,17.455,1.443,29.028l-1.853,2.165c0.538-0.245,1.14-7.56,0.598-10.818c0.788,4.831-2.595,17.737-0.217,23.038
	l1.323-8.107c0.874,8.264,2.766,18.481,2.125,28.737c1.844-4.658-0.195-2.367,1.975-9.646c-2.681,6.305,0.268-26.245-2.57-16.108
	c2.51-7.467,1.123-12.941,3.283-22.71c-0.607,0.3-1.18,3.458-0.83-5.152c-0.174-0.39-0.395-1.31-0.523-1.895
	c0.022-0.263,0.029-0.355,0.049-0.581c-0.026,0.173-0.049,0.3-0.074,0.475c-0.088-0.375-0.107-0.408-0.025,0.176
	c-0.278,2.051-0.607,3.711-0.951,4.383c-1.366-4.284-1.24-17.98-1.934-22.615c0.32-5.109,0.684,2.142,1.347-0.645
	c0,0-0.064-0.433-0.163-1.082c-0.047-0.325-0.104-0.703-0.164-1.109c-0.031-0.216-0.063-0.438-0.095-0.667
	c-0.03-0.308-0.063-0.625-0.094-0.94c-0.255-2.425-0.51-4.849-0.51-4.849c0.679-0.667,1.269-5.986,1.778-9.258
	c0.508-3.193,0.935-4.242,1.27,5.605l0.093-9.843l-8.314-0.062c-2.565-0.199-5.483-0.374-8.567-0.511
	c-2.155-0.096-4.377-0.195-6.566-0.292c-3.668-0.114-7.215-0.063-9.921,0.21c-5.11-0.313-12.917,1.437-8.46,0.4l-16.999,0.766
	l-0.157-0.338c-16.766-0.24-34.527,2.087-53.689-0.425c-5.646,0.316-11.482,0.708-20.925,0.286l-1.835-1.174
	c-7.25,0.376-21.762-1.257-24.883-0.056c-7.806-3.168-35.175-0.831-47.919-1.44l-0.489,1.52c-8.773-0.123-17.189,0.273-28.084,0.839
	l0.665,1.348c-9.396,1.065-24.14-1.058-38.993-0.981c1.013-0.51,4.779-0.359,7.445-0.037c-17.734-3.113-37.449,2.054-53.535-0.227
	c-4.012,0.473-6.915,0.294-9.727-0.057c0.374-0.002,0.708-0.024,0.996-0.066c-0.412-0.018-1.021-0.024-1.647-0.022
	c-1.77-0.24-3.592-0.516-5.567-0.74c1.678,0.333,3.285,0.609,4.683,0.74c-3.093,0.016-7.784,0.162-12.384,0.479l-1.953-1.451
	c-0.373,0.012-0.674,0.022-1.063,0.036c-4.51-0.551-3.631,0.669-1.229,1.766c-2.315,0.228-4.439,0.505-6.085,0.847
	c-3.655-2.347-12.067,0.735-17.06-1.773c-3.103,1.199-23.12,0.815-25.58,3.356c-0.155-0.333-1.509-0.496,0.973-0.507
	c-5.125-0.313-10.247-0.624-14.847,0.075l-2.168-1.845l-11.203,2.422c-6.794-1.147-9.612-1.809-2.854-3.194
	c-16.313,2.105-13.232,0.763-27.107,2.86l0.683-1.184c-4.957,0.024-12.886,1.582-15.872,0.587
	c-11.077-2.302-54.856-0.54-83.306-2.757c5.505,3.521-13.222-1.621-14.361,1.083c-1.654-0.833-5.617-1.317-1.006-2.016
	c-14.528,0.751-21.816-1.403-31.854,0.841c-1.659-0.838,3.114-1.2,1.637-1.698c-1.166,0.174-4.617,0.7-6.127,0.201
	c-1.477-0.5,2.13-0.686,4.431-1.037c-14.836,0.076-16.349,2.619-17.438,5.007c-7.514-1.164-11.265-1.018-16.702,0.527
	c-2.614-0.792-6.976-1.63,2.243-1.872c-5.186-0.136-31.676-1.28-32.213,0.636c-1.623-0.493-7.248-0.173-8.616,0.043
	c-5.817-0.103-8.981-0.159-12.122-0.214c-1.857-0.014-3.706-0.027-5.936-0.043c-2.531,0.01-5.496,0.022-9.334,0.038l4.436,0.331
	c-1.655,0.815-3.374,1.11-5.631,1.163c0.043,2.131-0.111,4.301-0.263,6.979c-0.074,1.333-0.148,2.79-0.194,4.384
	c-0.016,0.801-0.03,1.631-0.047,2.493c0.006,0.702,0.011,1.43,0.017,2.187l-0.236-0.265c-1.793,21.112,0.746,9.125-1.283,29.952
	l1.445-1.125c3.083,1.962-1.935,18.454-0.824,30.554l0.848-4.361c1.021,6.612-4.318,18.438-4.744,25.07
	c-0.277,1.444-0.419-2.287-0.606-4.306c-1.929,17.355,1.872,2.261,2.234,15.205c-1.032,2.381-2.569-3.091-2.809,5.618
	c-0.849,4.335,3.149,25.285,1.128,37.158c0.799-2.615,1.598-5.209,2.151,0.804c0.225,9.216-3.111,24.892-0.69,33.228
	c-0.223,1.171-0.429,1.611-0.624,1.659c0.595,7.047,0.922,22.895,2.236,27.146c-5.01,6.479,2.156,43.801-2.426,43.616l0.117,21.666
	l-0.467-0.568c-0.385,13.846,0.684,18.748,1.756,23.623c-0.332,3.201-0.744,0.859-0.983,0.594
	c-1.045,20.227-0.862,22.242,1.32,39.219l-1.497,1.756c0.835,4.604-2.507,29.238-0.891,49.096c-0.167-0.197-0.454-0.609-0.654-2.188
	c0.467,6.459,0.291,13.648-0.063,20.805c-0.097,1.787-0.195,3.574-0.292,5.348c-0.053,0.887-0.105,1.77-0.157,2.646l-0.081,1.488
	l-0.084,2.053c-0.22,5.479-0.431,10.98-0.568,16.195c3.659,0.094,7.23,0.148,10.585,0.146c1.679-0.018,3.298-0.037,4.853-0.055
	c0.772-0.021,1.528-0.045,2.269-0.064c0.359-0.016,0.715-0.031,1.066-0.045c0.222-0.018,0.442-0.035,0.66-0.053
	c3.471-0.299,6.219-0.928,7.948-2.064l14.741-1.273c-19.061-0.5,2.849-2.336-4.989-3.27c7.497-0.287,19.374,1.715,10.161,1.955
	l-1.44-0.279c-3.396,2.811,23.683,1.1,23.162,3.021c37.512,0.018,74.064,1.732,109.2,1.998l-4.038-2.211l12.255,0.178
	c3.215,0.523,4.311,1.734-4.433,1.605c4.593,1.264,14.668-0.979,14.919-1.455c17.116,0.959-6.697,2.531-1.447,2.604l7.131-0.133
	l-1.606-0.264c5.782-0.871,6.299-1.82,16.808-1.668c6.647,0.467,3.406,1.367,6.022,1.465c-0.015,0.154,0.869,0.23,4.016,0.078
	l15.439,0.252l-6.167-1.758c6.847-0.826,14.518,0.15,7.403-1.842c10.445,3.07,57.594,1.326,64.012,2.293
	c9.591-1.223,19.052-1.16,30.773-0.961c-2.914-0.371-4.649-2.328,5.459-2.047c-3.712,4.004,18.504,1.822,26.665,4.748
	c-7.295-1.947,28.742-0.354,17.295-3.123c8.436,0.359,0.508,1.506,6.902,2.479c20.084-1.475,44.243,1.195,69.063,0.773
	c0.388-0.525-3.764-1.35,1.563-2.113l13.092,2.693c4.902-0.24,4.524-3.027,13.472-1.158c-1.263-0.447-3.146-1.127,0.141-1.281
	c48.606,2.773,99.353-1.691,148.706,3.346c-6.682-1.053-2.227-1.135,2.882-1.152c-3.319-0.258,0.081-1.301-0.568-2.02l20.66,2.072
	c3.776-1.969,22.163-0.041,24.328-1.93l-6.546,0.313c8.714-2.203-12.162-5.027-10.875-7.896c-9.758,2.506-25.686-3.877-41.693-0.301
	c-3.528-0.598,3.016-0.91,1.13-1.586c-4.06,1.215-8.956,1.451-18.026,0.861l1.028-0.301c-25.488,0.193-36.41-1.066-65.039-1.992
	l2.114,1.43c-6.152-0.217-7.445-0.668-10.324-1.037c-7.07,2.127,17.279,0.193,10.836,2.543c-8.148-2.924-43.389-0.225-48.889-3.533
	c-9.467-0.059,2.768,1.658-6.694,1.6l-2.505-0.902l-2.398,1.137c-6.205-0.215-9.329-1.34-9.559-2.094
	c1.504,0.096,4.281-0.191,5.896-0.25c-8.044-1.08-22.692,0.262-25.454-0.09l9.092,0.586c-25.834,0.723-57.369-0.574-82.333,1.127
	l1.893,0.68c-19.063,1.162-15.263-0.801-36.189-0.313l0.762-0.156c-4.19,0.65-9.785,0.963-15.51,0.863
	c5.287-0.764-9.935-1.568-3.001-2.406c-20.67,1.244-10.226,1.002-23.885,3.438l-3.144-1.125c-4.654,0.988-5.046,1.516-15.498,1.762
	c8.575-0.92-6.661-1.725,2.944-2.947c-21.917-2.525-32.57,2.32-42.616-1.279c-10.083,3.037,18.969,1.789,13.326,2.424
	c4.718,1.027-8.321,2.266-15.201,1.93c-7.007-0.098-11.895-3.988-29.517-4.004c1.753,0.021,1.873-0.209,3.622-0.189
	c-6.591-0.813-12.926,1.01-21.009-0.301c-4.542,1.844-10.503-0.15-11.82,2.219l16.167-0.482c-9.165,0.584-17.771,3.326-32.86,1.916
	c1.178-0.475,5.673-1.086,8.76-1.424c-4.411-0.719-8.502,0.43-13.075-0.311c1.314-2.371,19.647-0.434,29.472-2.203
	c-4.734-1.025-18.579,1.641-13.635-0.912c-7.105,3.244-17.361-0.484-29.304,1.963l0.793-1.42c-1.89,0.217-5.805,0.873-9.28,0.822
	l6.3-1.818c-9.667,1.533-18.619-1.457-27.89-0.637c19.402,0.035,4.348,1.732,12.548,2.805c-23.938,1.807-13.746-3.779-40.542-3.209
	c3.629-0.186,13.614,0.912,7.938,1.547c-5.099-0.313-11.833-0.887-14.96-1.648c-17.752,0.223,2.72,1.477-4.841,2.32
	c-6.036-1.762-8.719,0.668-16.503,1.191l-0.05-1.449c-20.223-1.012-5.374,2.994-23.581,1.799l7.705-1.975l-9.496,0.477l1.965-1.637
	c-10.333,1.178-13.548,0.85-23.667,0.346c1.175,0.514,0.84,1.168-0.906,1.697c-0.873,0.264-2.1,0.494-3.668,0.66
	c-0.763,0.086-1.705,0.15-2.557,0.197c-0.573,0.047-1.208,0.076-1.889,0.078c-1.641-0.424-0.972-0.756-0.875-0.969
	c0.116-0.211-0.122-0.301-3.004-0.234c-0.001-0.082-0.007-0.258-0.013-0.445c0.094,0.064,0.192,0.121,0.29,0.176
	c1.055-0.41,1.972-0.809,2.736-0.955c0.787-0.146,1.375-0.045,2.403,0.557c0.188-0.234,0.274-0.463,1.157-0.686
	c0.71-0.223,1.423-0.445,1.715-0.676c-0.508-0.08-1.038-0.146-1.583-0.207c-0.273-0.025-0.55-0.055-0.83-0.082l-0.264-0.066
	c-0.335-0.078-0.661-0.127-0.998-0.148c-0.666-0.049-1.378-0.002-2.115,0.064c-0.081-0.73-0.19-1.441-0.192-1.984
	c-0.057,0.566-0.139,1.27-0.348,1.805c0,0-0.495-1.098-0.986-3.082c-0.474-4.533-0.947-9.064-0.947-9.064
	c0.561-2.895,0.983-0.594,1.398,1.688c-0.135-3.732-0.785-6.314-0.876-11.799c1.167,1.428,2.383,1.094,2.89,8.857l-1.2-17.549
	c0.517-1.168,1.458-8.994,1.878-6.715c0.75-9.719-2.139-23.865-1.151-36.756c-0.223-0.668-0.435-2.016-0.586-4.758
	c0.339-12.115,1.845-22.84,0.318-37.213l2.159-8.135c-0.413-11.25-2.723,11.016-3.406-7.719c-0.594-13.264,1.828-4.939,2.443-9.586
	c-1.025-6.602-3.12-18.078-1.331-30.248C25.884,270.111,25.553,273.271,25.688,277.039 M25.579,138.313
	c0.289,2.689,1.193,8.055,0.328,10.015C24.267,145.256,25.075,142.893,25.579,138.313 M110.722,21.864
	c-2.001,0.471-5.089,0.221-8.575-0.342C104.678,21.414,107.545,21.48,110.722,21.864 M698.203,14.236
	c-0.115,0.024-0.195,0.041-0.287,0.069C691.924,13.717,694.049,13.949,698.203,14.236 M716.543,14.941
	c0.957-0.086,1.508-0.174,1.646-0.264c0.039,0.145,0.078,0.122,0.119-0.117c0.016,0.04,0.115-0.081,0.064-0.107
	c-0.04-0.036-0.133-0.073-0.248-0.11c-1.767,0.36-6.109,0.366-11.088,0.243C708.319,14.969,710.529,15.241,716.543,14.941
	 M235.218,453.229l-2.422-0.389C238.27,452.447,236.736,452.816,235.218,453.229"/>
<path fill="#D6CBC1" d="M86.804,23.745c-0.759-0.248-0.969-0.517-1.146-0.792C84.6,23.193,84.576,23.474,86.804,23.745"/>
<path fill="#D6CBC1" d="M25.933,363.316l-0.018,0.42c0.083,0.234,0.17,0.357,0.258,0.428L25.933,363.316z"/>
<path fill="#D6CBC1" d="M517.732,26.383c-2.562-0.218-3.99-0.49-4.939-0.768C512.652,25.97,513.816,26.274,517.732,26.383"/>
<path fill="#D6CBC1" d="M719.95,86.433l-0.329-7.978c0.048,3.858-0.275,5.233-0.518,7.181
	C719.443,85.46,719.939,83.94,719.95,86.433"/>
<path fill="#D6CBC1" d="M710.581,155.604c0.171,1.166,0.005,2.472,0.177,3.623l0.676-0.315
	C711.418,153.947,710.897,150.473,710.581,155.604"/>
<path fill="#D6CBC1" d="M715.098,93.789c-1.223,0.625-0.84,5.629-0.646,11.218c-0.003-0.337-0.012-0.656,0.008-0.988
	C716.152,105.675,715.621,99.718,715.098,93.789"/>
<path fill="#D6CBC1" d="M714.484,106.302c0.047,1.722,0.069,3.48,0,5.165C715.163,112.125,714.639,109.375,714.484,106.302"/>
<path fill="#D6CBC1" d="M718.597,36.238c-0.328,2.646,1.547,1.671,1.042,3.168c0.766,1.483,0.323-2.936-0.221-5.912
	c-0.035-0.186-0.068-0.365-0.102-0.54c-0.035-0.282-0.07-0.554-0.102-0.81c-0.067-0.519-0.135-0.971-0.199-1.333
	c-0.129-0.728-0.249-1.102-0.342-0.963c-0.09,0.138-0.154,0.786-0.177,2.119c-0.001,0.315-0.005,0.67-0.006,1.069
	c0.003,0.263,0.009,0.556,0.013,0.879C718.531,34.563,718.561,35.332,718.597,36.238"/>
<polygon fill="#D6CBC1" points="711.059,98.288 712.574,96.294 711.383,93.156 "/>
<path fill="#D6CBC1" d="M712.426,54.183l-0.471,8.924c0.254-0.132,0.396,1.002,0.498,2.396
	C712.537,60.003,712.872,53.976,712.426,54.183"/>
<path fill="#D6CBC1" d="M712.455,65.502c-0.047,2.864-0.031,5.59,0.205,7.187C712.654,71.139,712.625,67.801,712.455,65.502"/>
<polygon fill="#D6CBC1" points="710.681,86.082 711.009,83.445 711.156,77.142 "/>
<path fill="#D6CBC1" d="M648.445,19.625l-9.744,0.391c-0.994,0.511,1.658,0.837,5.287,0.647
	C646.322,20.313,649.938,20.128,648.445,19.625"/>
<path fill="#D6CBC1" d="M677.892,23.864c-2.634-0.322-2.81-0.658-4.294-1.161l-0.303,1.863L677.892,23.864z"/>
<path fill="#D6CBC1" d="M649.479,24.18c-0.973,0.514-14.145,1.426-1.798,1.359C648.672,25.031,658.432,24.643,649.479,24.18"/>
<polygon fill="#D6CBC1" points="502.69,21.212 505.169,21.198 504.824,18.141 "/>
<path fill="#D6CBC1" d="M373.277,27.982c11.54,0.78,2.75-1.874,13.178-0.917c2.713-0.711-8.523-0.782-5.742-1.394
	C373.74,26.404,370.086,25.958,373.277,27.982"/>
<path fill="#D6CBC1" d="M380.713,25.671c1.117-0.115,2.299-0.256,3.56-0.449C382.251,25.405,381.301,25.547,380.713,25.671"/>
<polygon fill="#D6CBC1" points="688.468,456.668 695.892,457.336 691.102,456.289 "/>
<path fill="#D6CBC1" d="M702.729,454.461l1.74,1.955l4.466-1.744C707.258,454.75,704.002,454.908,702.729,454.461"/>
<path fill="#D6CBC1" d="M29.625,117.713l-0.465-0.568c-0.515,1.146-0.563,2.883-0.663,6.365L29.625,117.713z"/>
<polygon fill="#D6CBC1" points="27.568,218.389 27.618,216.657 25.837,219.884 "/>
<path fill="#D6CBC1" d="M29.309,302.904c0.093-3.449-0.274-7.506-0.18-10.969C29.402,299.455,27.109,303.824,29.309,302.904"/>
<rect x="13.823" y="18.002" fill="#EDE3D9" width="339.901" height="425.189"/>
<path fill="#EDE3D9" d="M361.028,441.404c-0.109,2.26,1.148,1.449,1.373,1.787C362.122,439.412,360.702,441.498,361.028,441.404"/>
<polygon fill="#EDE3D9" points="358.175,404.111 358.688,404.771 357.431,399.273 "/>
<path fill="#EDE3D9" d="M358.198,369.238c-2.142,3.297,0.345,12.635-0.416,18.85l-0.489,1.023l1.724,2.803
	C358.745,384.363,357.601,374.555,358.198,369.238"/>
<path fill="#EDE3D9" d="M362.83,350.643c-0.833,1.148-0.718-4.021-0.261,4.338c0.091-0.42,0.144-0.543,0.211-0.787
	C362.767,353.441,362.77,352.404,362.83,350.643"/>
<path fill="#EDE3D9" d="M362.78,354.193C362.84,357.867,363.481,351.791,362.78,354.193"/>
<path fill="#EDE3D9" d="M362.303,337.234l0.744,4.836c0.492-1.01,0.603-5.316,0.961-3.717
	C363.601,333.391,363.111,334.412,362.303,337.234"/>
<path fill="#EDE3D9" d="M360.74,332.646l0.315,2.508C361.262,334.715,361.333,334.051,360.74,332.646"/>
<path fill="#EDE3D9" d="M361.72,340.469l-0.665-5.314c-0.346,0.699-1.041,0.773,0.24,2.439
	C360.661,337.158,361.27,338.211,361.72,340.469"/>
<path fill="#EDE3D9" d="M361.393,343.48c-0.466,2.713-0.759,6.219-1.5,1.363C360.188,354.098,361.693,352.734,361.393,343.48"/>
<path fill="#EDE3D9" d="M355.983,367.457l-0.627,3.627l0.718,3.141C355.718,372.656,356.654,367.232,355.983,367.457"/>
<path fill="#EDE3D9" d="M363.412,307.098c-0.456-0.303-1.215,1.625-1.797,1.988l0.521,3.572
	C362.449,310.822,362.737,307.34,363.412,307.098"/>
<path fill="#EDE3D9" d="M361.614,309.086l-0.783-5.348C360.74,308.514,361.112,309.387,361.614,309.086"/>
<polygon fill="#EDE3D9" points="358.362,331.785 360.006,340.566 358.34,330.092 "/>
<polygon fill="#EDE3D9" points="363.469,286.68 364.523,289.709 362.93,284.311 "/>
<path fill="#EDE3D9" d="M363.284,273.135c0.873,2.242,1.478-3.076,2.016-0.705c-0.157-3.678-0.907-6.82-1.581-9.648
	C364.096,265.787,364,268.99,363.284,273.135"/>
<path fill="#EDE3D9" d="M362.736,258.033c0.21,1.5,0.585,3.057,0.983,4.75C363.518,261.186,363.227,259.615,362.736,258.033"/>
<path fill="#EDE3D9" d="M361.058,294.631c0.276-0.414,0.996-1.207,1.301-4.207l-1.281,2.102
	C361.071,293.168,361.063,293.895,361.058,294.631"/>
<path fill="#EDE3D9" d="M361.036,292.6l0.04-0.072c0.037-2.283,0.062-3.867,0.073-4.543
	C361.134,288.566,361.1,289.955,361.036,292.6"/>
<path fill="#EDE3D9" d="M361.052,295.162c0.001-0.195,0.003-0.338,0.006-0.529C360.932,294.836,360.89,294.957,361.052,295.162"/>
<path fill="#EDE3D9" d="M359.522,317.77c-0.717-3.141-1.485-9.691-2.578-3.352C357.822,316.67,358.444,313.043,359.522,317.77"/>
<path fill="#EDE3D9" d="M359.449,297.773l-0.292,5.678c0.338-0.111,0.831-1.135,1.188,0.42L359.449,297.773z"/>
<polygon fill="#EDE3D9" points="359.042,294.992 359.449,297.773 359.558,295.668 "/>
<path fill="#EDE3D9" d="M361.537,267.76c-0.558-2.453-0.604-5.137-0.694-8.168c-0.252,3.25-0.388,6.607-0.385,9.797
	C360.86,269.84,361.582,271.24,361.537,267.76"/>
<path fill="#EDE3D9" d="M361.181,279.83c-0.023-0.17-0.053-0.387-0.073-0.545C360.999,279.621,360.964,279.889,361.181,279.83"/>
<path fill="#EDE3D9" d="M360.851,229.752c-0.081,0.165-0.151,0.311-0.232,0.478c0.075,0.038,0.146,0.063,0.221,0.113
	L360.851,229.752z"/>
<path fill="#EDE3D9" d="M360.218,269.934c-0.248,2.443,0.066,3.902,0.462,5.293c-0.129-1.826-0.213-3.762-0.223-5.838
	C360.275,269.188,360.155,269.148,360.218,269.934"/>
<path fill="#EDE3D9" d="M362.137,249.707c-0.268,1.271-0.495,2.713-0.705,4.229C361.839,252.693,362.472,250.158,362.137,249.707"/>
<path fill="#EDE3D9" d="M361.462,278.463c0.021,0.123,0.044,0.232,0.057,0.365C361.795,278.027,361.661,278.127,361.462,278.463"/>
<path fill="#EDE3D9" d="M361.462,278.463c-0.185-1.258-0.501-2.244-0.782-3.238c0.101,1.488,0.239,2.865,0.428,4.061
	C361.198,278.982,361.336,278.682,361.462,278.463"/>
<path fill="#EDE3D9" d="M352.622,220.712c1.188,0.43,2.286,6.85,1.012,12.391c0.891,5.454,4.799,1.889,6.984-2.873
	c-0.519-0.169-0.998-0.169-1.699-5.781c-0.648,1.965-1.517,12.452-2.592,7.717c-0.612-7.434,0.42-6.091,1.048-9.705
	c-1.48,3.072-2.156-9.458-4.332-7.839l0.766,6.519C353.47,221.265,352.931,218.901,352.622,220.712"/>
<path fill="#EDE3D9" d="M360.497,240.923l0.147,2.309c0.206-2.631,0.683-4.517,1.612-7.986c-0.58-3.841-1.021-4.64-1.416-4.904
	l-0.167,11.372L360.497,240.923z"/>
<path fill="#EDE3D9" d="M360.649,253.602c-1.293-1.803-1.844-7.35-3.242-3.953c0.088,6.777,1.081,4.748,1.641,8.797
	c-0.32-10.936,0.719,3.141,1.452-4.76c0.22,2.148,0.288,4.082,0.342,5.906c0.156-1.969,0.352-3.867,0.59-5.654
	c-0.032,0.1-0.054,0.168-0.079,0.25l0.004,0.051c-0.009,0-0.012-0.01-0.021-0.01c-0.161,0.471-0.259,0.627-0.165,0.094
	c-0.017-0.035-0.023-0.17-0.027-0.227c-0.18-0.076-0.338-0.277-0.488-0.494c0.267-3.168,0.336-0.498,0.488,0.494
	c0.063,0.035,0.123,0.121,0.192,0.133c0.007-0.012,0.012-0.027,0.017-0.041l-0.71-10.955
	C360.464,245.553,360.5,248.453,360.649,253.602"/>
<path fill="#EDE3D9" d="M354.164,308.572c0.114-0.34,0.208-0.324,0.3-0.35C354.307,307.514,354.197,307.246,354.164,308.572"/>
<path fill="#EDE3D9" d="M354.945,304.066c0.18,0.799,0.697,1.461,0.564,4.049c-0.388,2.248-0.62-0.012-1.043,0.107
	c0.342,1.561,0.926,5.463,1.555,0.566l-0.175-0.773c0.443-4.408,2.057-10.076,2.233-9.307
	C356.916,299.998,356.086,301.133,354.945,304.066"/>
<path fill="#EDE3D9" d="M357.467,278.518l-0.634-9.121l-1.119,4.646l0.672-0.236C356.122,278.994,356.95,277.873,357.467,278.518"/>
<polygon fill="#EDE3D9" points="361.494,228.708 362.859,229.917 360.932,224.649 "/>
<polygon fill="#EDE3D9" points="361.33,216.854 362.518,217.292 361.802,214.164 "/>
<path fill="#EDE3D9" d="M20.949,148.202l0.338,2.681C21.181,149.613,21.069,148.798,20.949,148.202"/>
<path fill="#EDE3D9" d="M21.029,128.796l-0.585-0.475C20.767,129.219,21.003,129.588,21.029,128.796"/>
<path fill="#EDE3D9" d="M261.436,10.53c-3.905-1.108-8.266-2.829-7.795-1.492l1.199,1.3C257.567,10.106,259.66,10.25,261.436,10.53"
	/>
<path fill="#EDE3D9" d="M62.045,18.301c0.372,0.129,0.757,0.263,1.142,0.396c0.947-0.448,1.84-0.869,2.637-1.245
	C64.688,17.708,63.398,17.998,62.045,18.301"/>
<path fill="#EDE3D9" d="M59.291,23.688l-5.147-0.84C55.3,23.142,56.955,23.421,59.291,23.688"/>
<path fill="#EDE3D9" d="M22.329,254.184l1.326,3.129C23.647,252.42,22.98,254.574,22.329,254.184"/>
<path fill="#EDE3D9" d="M360.851,95.442c0.508-3.369,0.722-6.05,0.784-8.406C360.888,91.095,359.767,94.37,360.851,95.442"/>
<path fill="#EDE3D9" d="M7.137,140.566c0.235,1.639,0.501,2.342,0.791,2.292C7.705,141.17,7.456,140.214,7.137,140.566"/>
<path fill="#EDE3D9" d="M361.632,77.305c-0.13,0.594-0.196,1.176-0.306,1.78c0.218,2.463,0.395,4.941,0.311,7.951
	C362.193,84.039,362.537,80.605,361.632,77.305"/>
<path fill="#EDE3D9" d="M209.187,435.766c0.279,0.059,0.617,0.088,0.87,0.156C210.141,435.744,209.756,435.736,209.187,435.766"/>
<path fill="#EDE3D9" d="M321.167,448.898c-1.103,0.082-2.901,0.084-4.598,0.1C317.395,449.09,318.782,449.078,321.167,448.898"/>
<path fill="#EDE3D9" d="M361.898,169.157C361.984,171.671,362.042,169.556,361.898,169.157"/>
<path fill="#EDE3D9" d="M356.751,181.384c-0.146-0.534-0.333-0.94-0.633-1.005C356.432,180.586,356.631,180.937,356.751,181.384"/>
<path fill="#EDE3D9" d="M353.531,52.262c0.001-0.074,0.003-0.134,0.004-0.218C353.281,52.792,353.329,52.665,353.531,52.262"/>
<path fill="#EDE3D9" d="M361.307,172.94c0.161-0.944,0.292-2.031,0.387-3.216C361.593,170.245,361.467,171.221,361.307,172.94"/>
<path fill="#EDE3D9" d="M361.922,172.431c-0.05,0.867-0.088,1.548-0.126,2.197C362.013,174.945,362.148,174.665,361.922,172.431"/>
<path fill="#EDE3D9" d="M361.828,165.655c0.021,1.438-0.041,2.779-0.135,4.069c0.088-0.493,0.162-0.701,0.206-0.566
	C361.884,168.42,361.863,167.38,361.828,165.655"/>
<path fill="#EDE3D9" d="M17.767,432.271c-0.04,0.113-0.067,0.242-0.123,0.371C18.184,434.195,18.099,433.496,17.767,432.271"/>
<path fill="#EDE3D9" d="M196,24.047c0.119-0.014,0.181-0.047,0.287-0.063c-0.117-0.015-0.265-0.033-0.371-0.045L196,24.047z"/>
<path fill="#EDE3D9" d="M186.97,25.016c3.844-1.619,6.032-1.42,8.947-1.078l-2.988-3.753L186.97,25.016z"/>
<path fill="#EDE3D9" d="M21.323,194.667l1.17-6.342c1.925,7.655,1.262,13.192,2.905,7.239c-4.075-0.896-0.417-24.649-4.487-25.532
	l0.856-4.18c-0.039,1.198,0.201,1.39,0.16,2.574c1.952-8.13-2.946-6.041-2.365-16.515c0.313-3.651,0.903-6.199,1.386-3.709
	l-1.006-8.135c0.077-2.365,0.786-1.788,0.707,0.568l-0.325-12.406l0.12,0.092c-0.639-1.771-1.626-5.781-2.048-7.74
	c0.585-3.152,0.433,1.581,0.94,0.774l-0.986-6.87c1.056-2.798,2.08,2.895,1.929,7.641c4.068-6.416-1.025-5.7,1.351-19.546
	l0.516,6.488c2.312-4.183,1.475-9.245,2.917-16.579c-0.753,1.739-3.632,14.682-4.647,7.225c0.308-2.1,0.454-4.87-0.366-8.892
	c1.449-0.038,1.092-3.964,1.012-8.878l1.918,0.334c-0.554-5.313-1.531-4.893-2.396-8.019c0.188-5.923,1.676-7.149,2.928-8.545
	c0.307-9.482-2.382,6.55-2.745-4.675c0.735-7.888-0.049-13.425-1.198-22.86c0.662-5.52,1.174,0.966,1.724-1.014l-1.531-4.894
	c0.037-1.198,0.507-0.812,0.745-0.615c-0.148-1.029-0.343-1.567-0.558-1.894c-0.108-0.188-0.222-0.234-0.338-0.276
	c-0.122-0.051-0.228-0.095-0.351-0.146c-0.471-0.228-0.934-0.607-1.192-2.768c-0.928-0.841-0.448-2.684,0.182-4.147
	c1.77,0.403,3.469,0.867,4.848,1.061c0.699,0.098,1.338,0.127,1.974,0.05c0.192-0.04,0.946-0.107,1.514-0.204
	c0.594-0.099,1.175-0.231,1.737-0.399c1.977,0.545-0.955,1.176-0.35,1.919c11.005-1.575,9.435-1.144,18.473-3.265l7.699,1.261
	c-5.657-1.442,1.57-3.146,7.902-4.547c-2.007-0.696-3.721-1.305-4.872-1.595l10.104-1.03c1.22,0.315,0.203,0.974-1.453,1.776
	c0.688-0.159,1.342-0.315,1.852-0.461c3.612,0.71,1.739,1.816-0.849,2.89c-1.231-0.378-2.452-0.783-3.64-1.184
	c-2.495,1.165-4.831,2.456-4.31,3.578c0.657-0.22,1.919-0.411,3.312-0.517c-0.652,0.316-1.07,0.598-0.768,0.79
	c0.343,0.203,1.398-0.222,3.05-0.711l2.296,2.138l0.558-0.849l13.218,1.337c9.458-2.152,17.684-5.321,32.694-6.205
	c-3.725,1.569-0.799,2.563-1.002,4.42c-4.097-1.966-11.626,0.837-19.405,0.437c4.059,0.208,3.166,1.093,2.133,1.403l13.875-1.791
	c-0.313,1.521,2.948,1.14,6.572,1.768c-2.739-3.004,10.342-2.001,15.987-2.921c0.352,1.009-1.002,2.038-7.89,1.795
	c7.599,2.263,9.818-3.528,17.278-1.606c-1.683,0.024-2.589-0.13-3.253,0.383c3.928-0.897,13.533-0.187,11.272,0.691l-1.677,0.021
	c11.165,0.355,33.988,0.023,35.654-2.529c0.112,0.328-1.462,3.074-2.138,3.591l19.922-8.586c-1.755,2.191,4.983,7.411-4.276,8.649
	c2.658,0.312,5.947,0.677,11.551-0.096c-1.813-0.312-4.519-3.17-2.041-3.369c6.803,2.44,4.722,1.306,13.107,3.384
	c-2.718-0.469,0.303-3.906,4.598-3.796c-0.671,0.514,0.358,3.393-1.212,3.75l10.692-3.374c-2.668,0.607-0.471,2.859,1.922,3.813
	c-1.11-0.66,9.244,0.062,12.095-0.273l-4.533-0.781c12.073,0.51,11.925-4.745,23.9-4.567c-1.449,0.697-3.58,4.29,2.512,4.715
	c2.79-1.73,12.359-8.312,22.955-9.643l2.033,0.987l8.13-1.125c-5.063,2.601-19.269,8.071-27.028,10.2
	c4.518,0.782,1.258,1.165,8.024,1.076c2.39,0.925-3.688,1.404-5.679,1.458l15.752,0.599c-0.701-2.019,12.046-2.023,11.444-3.704
	l-17.107,2.091c-0.694-2.013,9.892-5.726,21.052-5.369c2.839,0.803-2.123,3.59-1.89,4.262c1.447-0.694,10.593-1.324,11.617-0.832
	l-4.734,1.076c6.213,0.76,10.14-2.672,17.607-0.748c2.576,0.129,7.696,2.599,8.141,1.404c-4.204-2.3-5.025-9.419-2.225-11.15
	c0.227,0.04,1.185,0.2,2.542,0.428c0.679,0.119,1.457,0.252,2.292,0.398c1.007,0.152,2.084,0.312,3.18,0.475
	c4.418,0.674,8.18,1.469,9.138,2.037c0.101,0.066,0.175,0.134,0.095,0.201c-0.56,1.69-1.175,1.877-1.803,1.803
	c-1.409,0.69-3.108,1.396-4.191,2.057c-1.107,0.661-1.63,1.278-1.34,1.789c0.407-0.49,2.056-1.085,3.048-1.361
	c0.034,0.109,0.062,0.163,0.086,0.213c-0.235,1.139-0.663,1.297-0.999,1.667c-0.338,0.371-0.583,0.838-0.459,2.372
	c1.022-0.319,0.979,1.707,0.918,2.787c-0.03,0.534-0.066,0.909,0.025,0.732c0.092-0.172,0.31-0.773,0.785-2.516
	c0.147,0.967,0.193,1.77,0.183,2.449c-0.011,0.89-0.08,1.729-0.163,2.542c-0.167,1.654-0.396,3.434-0.352,6.812
	c1.322-2.151,4.498,6.064,5.081,11.827c-0.519-0.339-1.197,0.956-1.506,1.581c-0.185,11.793-1.113,18.123-1.131,29.118
	c-0.495,1.014-1.094,6.319-1.974,4.061c0.362,1.581,1.055,3.035,1.104,6.426c-1.767,6.564-0.275-7.562-2.399-2.559
	c1.188,0.428,1.638,8.772,2.382,13.602c1.835-1.486,0.351-11.162-0.39-15.997c2.531-0.024,5.182,8.398,6.353,19.891
	c0.628,9.133-1.636,3.96-1.275,5.546c-0.442,17.157,4.42,14.616,2.594,28.863c-1.613,5.652-3.21,0.255-4.373,1.509
	c-0.61-7.441,1.025-11.424,0.96-16.467l-0.764,6.208c-0.537-2.367-0.943-7.333-0.475-10.041c-1.449,4.738-0.279,28.986-1.617,42.223
	c0.542,2.352,1.102,6.411,1.749,4.49l-0.225-4.188c1.301-3.85,1.799,7.883,2.406,2.581c0.915,5.618,2.352,11.917,1.617,19.826
	l-1.84,1.486c0.537-0.169,1.096-5.17,0.536-7.394c0.814,3.297-2.49,12.128-0.081,15.739l1.273-5.544
	c0.926,5.642,2.877,12.615,2.298,19.623c1.816-3.188-0.208-1.615,1.917-6.597c-2.644,4.318,0.111-17.931-2.667-10.994
	c2.466-5.112,1.045-8.847,3.149-15.528c-0.606,0.207-1.16,2.367-0.861-3.518c-0.177-0.266-0.402-0.893-0.534-1.292
	c0.02-0.179,0.027-0.243,0.044-0.396c-0.025,0.117-0.044,0.205-0.072,0.324c-0.092-0.255-0.109-0.278-0.025,0.121
	c-0.264,1.401-0.583,2.537-0.922,2.997c-1.394-2.921-1.348-12.277-2.07-15.442c0.289-3.492,0.696,1.461,1.344-0.446l-1.079-4.726
	c1.348-0.468,2.238-9.276,3.029-1.052l0.06-7.404c0.756-4.357,1.057-10.354,0.489-14.05c0.291-3.492-1.491-8.82-0.437-5.78
	l-0.835-11.61l0.337-0.108c0.169-11.456-2.232-23.583,0.201-36.68c-0.341-3.856-0.756-7.843-0.374-14.294l1.166-1.257
	c-0.408-4.951,1.166-14.871-0.047-16.999c1.347-2.295,1.663-7.058,1.629-12.431c-0.073-3.713-0.152-7.639-0.228-11.454
	c-0.107-5.056-0.216-9.864-0.242-14.153c-2.868,0.017-5.427-0.003-7.614-0.081l-1.527,1.522c-2.528-0.022-5.059-0.011-7.606,0.026
	c-1.269,0.026-2.545,0.052-3.834,0.077c-0.448,0.018-0.896,0.034-1.35,0.052c-0.384,0.02-0.771,0.041-1.161,0.061
	c-3.117,0.174-6.414,0.435-10.134,0.741l0.457,1.344c-6.415,1.104-16.493-0.957-26.641-0.819c0.689-0.515,3.264-0.379,5.085-0.069
	c-12.123-3.037-25.578,2.21-36.573-0.003c-2.739,0.488-4.724,0.322-6.645-0.016c0.255-0.003,0.484-0.028,0.679-0.07
	c-0.28-0.017-0.697-0.02-1.125-0.017c-1.208-0.23-2.455-0.501-3.805-0.717c1.146,0.327,2.245,0.598,3.202,0.722
	c-2.114,0.028-5.319,0.195-8.46,0.532l-1.337-1.446c-0.256,0.016-0.461,0.027-0.727,0.043c-3.082-0.535-2.478,0.684-0.833,1.77
	c-1.582,0.238-3.032,0.523-4.155,0.871c-2.504-2.33-8.241,0.786-11.66-1.7c-2.117,1.213-15.792,0.912-17.466,3.463
	c-0.106-0.331-1.032-0.49,0.663-0.512c-3.502-0.291-7.002-0.58-10.144,0.139l-1.486-1.836l-7.646,2.469
	c-4.646-1.119-6.571-1.771-1.959-3.183c-11.139,2.173-9.037,0.819-18.51,2.974l0.462-1.188c-3.386,0.045-8.799,1.636-10.84,0.654
	c-7.573-2.257-37.477-0.312-56.919-2.409c3.771,3.496-9.037-1.567-9.808,1.141c-1.133-0.824-3.842-1.292-0.694-2.011
	c-9.922,0.813-14.907-1.313-21.757,0.973c-1.137-0.831,2.123-1.212,1.113-1.704c-0.797,0.18-3.153,0.72-4.185,0.227
	c-1.011-0.492,1.452-0.694,3.023-1.055c-10.136,0.138-11.16,2.687-11.898,5.079c-5.136-1.132-7.698-0.972-11.407,0.597
	c-1.788-0.783-4.772-1.602,1.527-1.882c-3.543-0.114-21.644-1.148-22.005,0.769c-1.11-0.485-4.954-0.141-5.886,0.08
	c-4.317-0.078-6.666-0.122-8.996-0.163c-2.897-0.035-5.81-0.033-10.99,0.058l3.13,0.314c-0.867,0.82-1.944,1.123-3.467,1.186
	c0.058,1.474-0.087,2.911-0.22,4.697c-0.135,1.774-0.261,3.916-0.171,6.479l-0.236-0.276c-0.184,2.08-0.331,3.75-0.449,5.115
	c-0.096,1.186-0.144,2.104-0.16,2.846c-0.033,1.483,0.06,2.256,0.144,3.022c0.17,1.533,0.312,3.042-0.641,10.161l1.438-0.775
	c3.097,1.328-1.825,12.615-0.642,20.877l0.822-2.983c1.059,4.513-4.207,12.614-4.595,17.146c-0.27,0.989-0.432-1.56-0.631-2.938
	C4.154,90.736,7.865,80.409,8.303,89.25c-1.017,1.631-2.585-2.102-2.774,3.85c-0.824,2.966,3.299,17.262,1.351,25.38
	c0.783-1.789,1.564-3.565,2.154,0.541c0.28,6.295-2.963,17.018-0.492,22.703c-0.215,0.799-0.418,1.103-0.614,1.135
	c0.638,4.812,1.059,15.637,2.397,18.536c-4.969,4.445,2.418,29.914-2.166,29.807L8.405,206l-0.468-0.387
	c-0.305,9.461,0.795,12.807,1.895,16.132c-0.313,2.187-0.739,0.589-0.979,0.408c-0.924,13.825-0.729,15.199,1.554,26.79
	l-1.487,1.203c0.864,3.143-2.333,19.986-0.599,33.545c-0.167-0.133-0.456-0.414-0.666-1.49c1.744,15.254-4.125,36.518,1.29,42.107
	l1.335,10.066c0.419-13.025,2.35,1.939,3.249-3.418c0.318,5.121-1.634,13.24-1.912,6.945l0.271-0.984
	c-2.821-2.313-1.001,16.184-2.922,15.834c0.139,25.627-1.424,50.602-1.544,74.605l2.194-2.766l-0.126,8.879
	c-0.256,1.531-0.686,2.713-1.039,2.395c-0.178-0.164-0.335-0.715-0.442-1.805c-0.055-0.545-0.096-1.223-0.122-2.051
	c-0.007-0.313-0.017-0.656-0.025-1.025c0.001-0.322,0.001-0.668,0.003-1.041c-0.156,0.391-0.256,0.842-0.312,1.332l-0.033,0.389
	c-0.006,0.197-0.012,0.398-0.018,0.598c-0.007,0.404-0.003,0.82,0.007,1.238c0.048,1.682,0.231,3.432,0.47,4.939
	c0.476,3.053,1.165,5.029,1.404,4.957c-0.107,2.018-0.224,3.525-0.348,4.586c2.398,0.352,1.254,0.76-1.131,1.131
	c-0.599-2.508-1.104-8.52-1.133-5.377l0.137,6.371l1.347-0.027l-1.127-0.193l0.064-0.488c0.024,0.146,0.049,0.289,0.073,0.352
	c6.64-0.873,7.751-1.771,17.609-1.664c0.196,0.014,0.384,0.029,0.563,0.043c0.129,0.014,0.252,0.029,0.368,0.043
	c0.234,0.037,0.444,0.068,0.634,0.098c0.378,0.066,0.67,0.139,0.899,0.213c0.459,0.15,0.665,0.309,0.785,0.455
	c0.236,0.293,0.132,0.543,1.025,0.586c-0.011,0.156,0.592,0.229,2.742,0.063l10.55,0.188l-4.218-1.732
	c4.675-0.854,9.919,0.092,5.051-1.873c7.145,3.027,39.351,1.088,43.737,2.027c6.55-1.262,13.013-1.24,21.02-1.09
	c-1.991-0.359-3.182-2.309,3.724-2.07c-2.524,4.021,12.648,1.746,18.229,4.637c-4.988-1.916,19.635-0.471,11.807-3.195
	c5.764,0.326,0.351,1.504,4.724,2.451c13.716-1.557,30.228,1.012,47.183,0.484c0.264-0.525-2.575-1.332,1.062-2.119l8.95,2.641
	c3.348-0.262,3.083-3.047,9.202-1.217c-0.864-0.443-2.154-1.113,0.091-1.279c33.215,2.57,67.871-2.107,101.601,2.723
	c-4.569-1.021-1.524-1.123,1.965-1.16c-2.269-0.244,0.05-1.305-0.395-2.02l14.121,1.986c2.574-1.986,15.141-0.135,16.614-2.031
	l-4.471,0.34c5.947-2.24-8.323-4.977-7.453-7.852c-6.659,2.547-17.558-3.77-28.483-0.125c-2.412-0.586,2.056-0.926,0.768-1.592
	c-2.771,1.232-6.114,1.488-12.313,0.936l0.701-0.305c-17.412,0.301-24.877-0.914-44.438-1.723l1.447,1.42
	c-4.203-0.189-5.088-0.635-7.056-0.992c-4.824,2.156,11.807,0.123,7.412,2.498c-5.577-2.891-29.643-0.043-33.411-3.33
	c-6.467-0.016,1.896,1.646-4.567,1.627l-1.715-0.889l-1.635,1.145c-4.239-0.189-6.378-1.301-6.535-2.053
	c1.027,0.09,2.923-0.211,4.026-0.275c-5.498-1.049-15.501,0.357-17.39,0.016l6.213,0.549c-17.648,0.83-39.193-0.336-56.244,1.473
	l1.295,0.67c-13.021,1.24-10.429-0.738-24.724-0.162l0.519-0.16c-2.86,0.668-6.681,1.004-10.593,0.93
	c3.611-0.787-6.79-1.527-2.057-2.395c-14.117,1.33-6.983,1.043-16.308,3.535l-2.15-1.111c-3.178,1.008-3.443,1.537-10.583,1.826
	c5.855-0.957-4.556-1.695,2.002-2.959c-14.979-2.434-22.244,2.459-29.118-1.1c-6.879,3.078,12.964,1.709,9.113,2.369
	c3.225,1.006-5.679,2.299-10.38,1.99c-4.786-0.068-8.138-3.939-20.177-3.881c1.198,0.016,1.279-0.217,2.474-0.205
	c-1.125-0.195-2.241-0.229-3.366-0.184c-1.038,0.043-2.551,0.16-2.854,0.262c-1.112,0.207-2.612,0.348-3.447-0.289
	c-0.84,0.553-1.584,0.768-2.194,0.859c-0.217-1.102,0.261-2.508-1.409-1.979l0.257,3.129l3.868-0.293
	c-1.272,0.193-2.754,0.596-4.591,1.016c-0.466-1.072-0.958-2.543-1.216-4.619c-0.131-1.033-0.202-2.197-0.182-3.465
	c0.02-1.539,0.129-3.184,0.361-4.961c0.239,0.402,0.516,1.371,0.777,2.502c0.12,0.566,0.248,1.172,0.374,1.768
	c0.059,0.275,0.114,0.648,0.165,0.828c0.051,0.189,0.099,0.373,0.144,0.547c0.089-0.277,0.147-0.453,0.184-0.785
	c0.036-0.371,0.051-0.738,0.051-1.105c0.002-0.736-0.056-1.465-0.112-2.197c-0.114-1.467-0.225-2.945,0.133-4.51
	c1.157,0.434,1.312,3.617,1.373,7.541c0.014,0.568,0.028,1.164,0.042,1.766c0.018,0.533,0.045,1.068,0.095,1.572
	c0.098,1.002,0.286,1.887,0.678,2.256c0.15-0.047,0.28-0.094,0.408-0.145c-0.025-0.057-0.069-0.1-0.129-0.135
	c0.288-1.025-0.139-1.871-0.336-2.801c-0.099-0.439-0.139-0.834-0.003-1.033c0.137-0.211,0.449-0.188,1.055-0.039
	c-0.408-0.119-0.709-0.338-0.925-0.617c-0.11-0.158-0.197-0.252-0.268-0.502c-0.07-0.35-0.123-0.711-0.162-1.076
	c-0.153-1.467-0.079-3.053,0.022-4.742c0.2-3.379,0.497-7.172-0.753-11.248l1.424,0.539c-0.224-1.291-0.897-3.965-0.86-6.338
	l1.845,4.299c-1.575-6.6,1.377-12.725,0.521-19.057c0.044,13.256-1.716,2.977-2.754,8.582c-1.906-16.35,3.723-9.404,3.04-27.709
	c0.202,2.48-0.854,9.305-1.515,5.43c0.294-3.484,0.84-8.086,1.587-10.223c-0.296-12.129-1.464,1.859-2.338-3.301
	c1.733-4.129-0.707-5.955-1.262-11.271l1.448-0.039c0.928-13.818-3.017-3.664-1.895-16.105l2.007,5.258l-0.519-6.484l1.646,1.338
	c-1.223-7.057-0.906-9.254-0.444-16.168c-1.02,1.607-2.626-0.902-2.671-7.023c0.859-4.176,1.376,2.336,1.168-6.34
	c0.905,1.959,2.042,4.105,0.708,7.883c0.472,0.387,0.909,1.93,1.375,2.328c0.988-4.496,0.225-11.299,0.212-14.439
	c-0.054,1.209-0.133,2.654-0.338,3.396L19.5,296.447c0.542-1.98,0.979-0.41,1.407,1.146c-0.156-2.547-0.823-4.311-0.947-8.055
	c1.176,0.969,2.391,0.736,2.945,6.039l-1.305-11.984c0.511-0.801,1.405-6.148,1.839-4.594c0.691-6.645-2.283-16.297-1.371-25.105
	c-0.229-0.457-0.445-1.375-0.615-3.248c0.268-8.277,1.71-15.611,0.098-25.425l2.109-5.566c-0.479-7.685-2.656,7.537-3.453-5.259
	c-0.672-9.059,1.8-3.381,2.387-6.558c-1.063-4.506-3.227-12.338-1.511-20.66C21.479,189.933,21.167,192.092,21.323,194.667
	 M20.388,99.895c0.305,1.836,1.242,5.498,0.387,6.84C19.118,104.644,19.912,103.026,20.388,99.895 M75.997,21.083
	c-1.365,0.479-3.476,0.242-5.859-0.308C71.867,20.658,73.825,20.713,75.997,21.083 M360.721,141.599
	c-0.023-0.079-0.041-0.132-0.071-0.196C361.213,137.307,360.992,138.76,360.721,141.599 M360.092,150.105
	c0.202,0.854,0.403,0.796,0.605,0.435c-0.367-0.594-0.392-2.503-0.289-4.679C360.029,146.465,359.768,147.563,360.092,150.105
	 M30.094,448.99l-1.656-0.381C32.175,448.195,31.13,448.572,30.094,448.99"/>
<path fill="#EDE3D9" d="M59.662,23.063c-0.519-0.245-0.663-0.514-0.786-0.786C58.154,22.521,58.139,22.801,59.662,23.063"/>
<path fill="#EDE3D9" d="M22.084,253.605l-0.017,0.289c0.087,0.16,0.176,0.242,0.262,0.291L22.084,253.605z"/>
<path fill="#EDE3D9" d="M347.821,24.073c0.017-0.086,0.035-0.169,0.051-0.219c-0.575-0.199-0.843-0.442-0.989-0.694
	c-0.293,0.335-0.116,0.622,0.955,0.73C347.833,23.928,347.827,24,347.821,24.073"/>
<path fill="#EDE3D9" d="M362.552,195.18l-0.376-5.449c0.072,2.636-0.245,3.577-0.474,4.908
	C362.039,194.518,362.528,193.476,362.552,195.18"/>
<path fill="#EDE3D9" d="M353.596,242.473c0.177,0.797,0.02,1.689,0.199,2.475l0.672-0.219
	C354.424,241.337,353.88,238.966,353.596,242.473"/>
<path fill="#EDE3D9" d="M357.743,200.225c-1.218,0.432-0.804,3.849-0.579,7.667c-0.004-0.23-0.015-0.448,0-0.675
	C358.868,208.341,358.304,204.273,357.743,200.225"/>
<path fill="#EDE3D9" d="M357.205,208.776c0.057,1.176,0.088,2.377,0.03,3.528C357.917,212.751,357.378,210.874,357.205,208.776"/>
<path fill="#EDE3D9" d="M360.899,160.894c-0.313,1.81,1.557,1.136,1.061,2.16C363.51,165.075,360.085,150.987,360.899,160.894"/>
<polygon fill="#EDE3D9" points="353.732,203.315 355.235,201.947 354.023,199.808 "/>
<path fill="#EDE3D9" d="M354.835,173.178l-0.416,6.1c0.252-0.093,0.399,0.683,0.512,1.634
	C354.982,177.154,355.28,173.035,354.835,173.178"/>
<path fill="#EDE3D9" d="M354.932,180.912c-0.029,1.958,0.003,3.818,0.249,4.908C355.165,184.76,355.115,182.482,354.932,180.912"/>
<polygon fill="#EDE3D9" points="353.281,194.978 353.594,193.175 353.704,188.869 "/>
<path fill="#EDE3D9" d="M355.125,107.621l-0.431-6.655c-0.516-0.678-0.831,1.135-0.625,3.614
	C354.428,106.172,354.627,108.643,355.125,107.621"/>
<path fill="#EDE3D9" d="M351.009,127.75c0.312-1.8,0.648-1.922,1.143-2.936l-1.863-0.203L351.009,127.75z"/>
<path fill="#EDE3D9" d="M350.574,108.34c-0.517-0.664-1.483-9.66-1.367-1.224C349.72,107.792,350.15,114.458,350.574,108.34"/>
<path fill="#EDE3D9" d="M343.663,18.797l1.583-0.024c0,0,0.155-0.764,0.308-1.527c0.138-0.765,0.276-1.528,0.276-1.528
	s-0.643,0.77-1.181,1.54C344.104,18.027,343.663,18.797,343.663,18.797"/>
<path fill="#EDE3D9" d="M255.382,26.106c7.887,0.732,1.874-1.885,9-0.972c1.851-0.722-5.826-0.746-3.927-1.37
	C255.694,24.527,253.195,24.096,255.382,26.106"/>
<path fill="#EDE3D9" d="M260.455,23.765c0.762-0.12,1.571-0.267,2.43-0.465C261.507,23.491,260.857,23.638,260.455,23.765"/>
<polygon fill="#EDE3D9" points="339.747,450.541 344.82,451.178 341.546,450.15 "/>
<path fill="#EDE3D9" d="M349.484,448.273l1.194,1.947l3.047-1.764C352.579,448.545,350.355,448.715,349.484,448.273"/>
<path fill="#EDE3D9" d="M24.312,85.806l-0.47-0.387c-0.505,0.787-0.545,1.973-0.624,4.352L24.312,85.806z"/>
<polygon fill="#EDE3D9" points="22.854,154.592 22.893,153.408 21.132,155.621 "/>
<path fill="#EDE3D9" d="M25.1,212.321c0.073-2.356-0.319-5.125-0.245-7.492C25.173,209.965,22.904,212.959,25.1,212.321"/>
<rect x="365.886" y="15.283" fill="#EDE3D9" width="330.152" height="425.19"/>
<path fill="#EDE3D9" d="M703.34,438.707c-0.107,2.232,1.148,1.43,1.373,1.766C704.435,436.74,703.014,438.801,703.34,438.707"/>
<polygon fill="#EDE3D9" points="700.486,401.891 701.001,402.541 699.742,397.113 "/>
<path fill="#EDE3D9" d="M700.51,367.461c-2.141,3.254,0.346,12.475-0.414,18.609l-0.489,1.01l1.723,2.768
	C701.057,382.393,699.914,372.711,700.51,367.461"/>
<path fill="#EDE3D9" d="M705.143,349.104c-0.834,1.133-0.719-3.971-0.262,4.279c0.093-0.414,0.146-0.533,0.213-0.773
	C705.079,351.865,705.084,350.844,705.143,349.104"/>
<path fill="#EDE3D9" d="M705.092,352.609C705.152,356.234,705.794,350.236,705.092,352.609"/>
<path fill="#EDE3D9" d="M704.615,335.863l0.744,4.775c0.492-0.996,0.604-5.248,0.962-3.668
	C705.912,332.07,705.424,333.078,704.615,335.863"/>
<path fill="#EDE3D9" d="M703.052,331.336l0.315,2.475C703.574,333.377,703.645,332.723,703.052,331.336"/>
<path fill="#EDE3D9" d="M704.031,339.059l-0.663-5.248c-0.347,0.691-1.042,0.766,0.239,2.41
	C702.973,335.791,703.582,336.83,704.031,339.059"/>
<path fill="#EDE3D9" d="M703.707,342.031c-0.468,2.68-0.761,6.139-1.5,1.346C702.5,352.516,704.006,351.168,703.707,342.031"/>
<path fill="#EDE3D9" d="M698.295,365.703l-0.627,3.582l0.72,3.098C698.03,370.834,698.967,365.48,698.295,365.703"/>
<path fill="#EDE3D9" d="M705.724,306.111c-0.456-0.297-1.214,1.607-1.796,1.963l0.521,3.527
	C704.762,309.789,705.05,306.352,705.724,306.111"/>
<path fill="#EDE3D9" d="M703.926,308.074l-0.781-5.279C703.052,307.51,703.424,308.373,703.926,308.074"/>
<polygon fill="#EDE3D9" points="700.674,330.484 702.319,339.154 700.652,328.814 "/>
<polygon fill="#EDE3D9" points="705.781,285.953 706.836,288.947 705.243,283.615 "/>
<path fill="#EDE3D9" d="M705.596,272.582c0.873,2.215,1.479-3.035,2.018-0.695c-0.158-3.633-0.908-6.732-1.582-9.525
	C706.408,265.328,706.313,268.49,705.596,272.582"/>
<path fill="#EDE3D9" d="M705.049,257.672c0.211,1.48,0.586,3.018,0.982,4.689C705.83,260.785,705.539,259.234,705.049,257.672"/>
<path fill="#EDE3D9" d="M703.369,293.805c0.277-0.408,0.996-1.193,1.301-4.154l-1.279,2.076
	C703.385,292.361,703.377,293.078,703.369,293.805"/>
<path fill="#EDE3D9" d="M703.348,291.801l0.041-0.074c0.037-2.252,0.062-3.814,0.072-4.484
	C703.447,287.816,703.412,289.188,703.348,291.801"/>
<path fill="#EDE3D9" d="M703.363,294.328c0.002-0.191,0.004-0.334,0.006-0.523C703.244,294.004,703.203,294.127,703.363,294.328"/>
<path fill="#EDE3D9" d="M701.834,316.648c-0.716-3.104-1.483-9.566-2.578-3.311C700.134,315.561,700.756,311.98,701.834,316.648"/>
<path fill="#EDE3D9" d="M701.762,296.906l-0.292,5.607c0.337-0.111,0.831-1.121,1.188,0.414L701.762,296.906z"/>
<polygon fill="#EDE3D9" points="701.354,294.162 701.762,296.906 701.871,294.828 "/>
<path fill="#EDE3D9" d="M703.849,267.275c-0.558-2.422-0.604-5.07-0.694-8.064c-0.252,3.207-0.389,6.523-0.385,9.674
	C703.174,269.33,703.895,270.713,703.849,267.275"/>
<path fill="#EDE3D9" d="M703.492,279.193c-0.021-0.166-0.053-0.381-0.072-0.539C703.311,278.986,703.277,279.252,703.492,279.193"/>
<path fill="#EDE3D9" d="M703.163,229.752c-0.081,0.163-0.151,0.306-0.231,0.472c0.074,0.038,0.145,0.063,0.22,0.111L703.163,229.752
	z"/>
<path fill="#EDE3D9" d="M702.53,269.424c-0.247,2.408,0.065,3.85,0.463,5.223c-0.129-1.803-0.214-3.711-0.224-5.762
	C702.588,268.686,702.467,268.646,702.53,269.424"/>
<path fill="#EDE3D9" d="M704.449,249.453c-0.268,1.256-0.494,2.68-0.705,4.174C704.152,252.4,704.785,249.896,704.449,249.453"/>
<path fill="#EDE3D9" d="M703.773,277.842c0.022,0.121,0.045,0.23,0.058,0.361C704.107,277.414,703.973,277.51,703.773,277.842"/>
<path fill="#EDE3D9" d="M703.773,277.842c-0.184-1.24-0.5-2.215-0.78-3.195c0.101,1.469,0.239,2.828,0.428,4.008
	C703.51,278.357,703.648,278.057,703.773,277.842"/>
<path fill="#EDE3D9" d="M694.934,220.827c1.188,0.425,2.287,6.764,1.014,12.234c0.891,5.384,4.797,1.863,6.982-2.836
	c-0.518-0.167-0.997-0.167-1.699-5.708c-0.646,1.939-1.516,12.294-2.591,7.62c-0.612-7.34,0.419-6.014,1.048-9.583
	c-1.48,3.033-2.155-9.335-4.332-7.738l0.766,6.435C695.783,221.374,695.242,219.039,694.934,220.827"/>
<path fill="#EDE3D9" d="M702.809,240.781l0.148,2.282c0.206-2.601,0.682-4.46,1.611-7.887c-0.58-3.792-1.021-4.58-1.416-4.84
	l-0.166,11.227L702.809,240.781z"/>
<path fill="#EDE3D9" d="M702.961,253.297c-1.292-1.779-1.843-7.256-3.242-3.9c0.09,6.689,1.082,4.688,1.643,8.684
	c-0.32-10.797,0.718,3.1,1.451-4.699c0.221,2.121,0.289,4.029,0.342,5.83c0.156-1.943,0.352-3.816,0.59-5.582
	c-0.031,0.098-0.054,0.166-0.078,0.248l0.004,0.049c-0.01,0-0.014-0.01-0.021-0.01c-0.16,0.467-0.26,0.619-0.164,0.094
	c-0.018-0.037-0.023-0.166-0.028-0.225c-0.181-0.074-0.337-0.273-0.487-0.488c0.268-3.127,0.336-0.492,0.487,0.488
	c0.063,0.035,0.123,0.121,0.192,0.131c0.007-0.01,0.012-0.025,0.018-0.039l-0.711-10.816
	C702.776,245.35,702.813,248.215,702.961,253.297"/>
<path fill="#EDE3D9" d="M696.477,307.568c0.113-0.336,0.207-0.32,0.3-0.346C696.619,306.523,696.51,306.258,696.477,307.568"/>
<path fill="#EDE3D9" d="M697.257,303.121c0.181,0.785,0.697,1.441,0.563,3.996c-0.388,2.217-0.619-0.012-1.043,0.105
	c0.342,1.541,0.926,5.391,1.557,0.561l-0.176-0.766c0.443-4.354,2.057-9.947,2.232-9.188
	C699.229,299.102,698.399,300.223,697.257,303.121"/>
<path fill="#EDE3D9" d="M699.781,277.896l-0.637-9.006l-1.119,4.588l0.673-0.232C698.435,278.367,699.262,277.262,699.781,277.896"
	/>
<polygon fill="#EDE3D9" points="703.807,228.722 705.172,229.917 703.244,224.714 "/>
<polygon fill="#EDE3D9" points="703.643,217.019 704.832,217.451 704.113,214.363 "/>
<path fill="#EDE3D9" d="M373.011,143.823l0.337,2.646C373.242,145.216,373.131,144.413,373.011,143.823"/>
<path fill="#EDE3D9" d="M373.092,124.665l-0.586-0.47C372.829,125.082,373.064,125.447,373.092,124.665"/>
<path fill="#EDE3D9" d="M610.342,7.811c-3.855-1.108-8.159-2.829-7.695-1.493l1.184,1.301C606.523,7.387,608.588,7.53,610.342,7.811
	"/>
<path fill="#EDE3D9" d="M413.492,15.582c0.365,0.129,0.748,0.263,1.126,0.396c0.938-0.449,1.816-0.869,2.604-1.245
	C416.101,14.988,414.828,15.277,413.492,15.582"/>
<path fill="#EDE3D9" d="M410.773,20.968l-5.084-0.84C406.834,20.421,408.467,20.701,410.773,20.968"/>
<path fill="#EDE3D9" d="M374.391,248.455l1.326,3.09C375.709,246.713,375.041,248.838,374.391,248.455"/>
<path fill="#EDE3D9" d="M703.163,97.154c0.51-3.327,0.722-5.973,0.785-8.3C703.201,92.863,702.079,96.095,703.163,97.154"/>
<path fill="#EDE3D9" d="M359.198,136.284c0.236,1.62,0.501,2.312,0.791,2.264C359.767,136.881,359.518,135.938,359.198,136.284"/>
<path fill="#EDE3D9" d="M703.943,79.249c-0.13,0.586-0.195,1.161-0.306,1.758c0.218,2.432,0.396,4.878,0.311,7.848
	C704.505,85.894,704.85,82.506,703.943,79.249"/>
<path fill="#EDE3D9" d="M553.342,433.047c0.275,0.059,0.609,0.086,0.859,0.154C554.283,433.025,553.902,433.016,553.342,433.047"/>
<path fill="#EDE3D9" d="M663.894,446.18c-1.089,0.08-2.865,0.082-4.54,0.098C660.172,446.369,661.538,446.359,663.894,446.18"/>
<path fill="#EDE3D9" d="M704.211,169.929C704.297,172.412,704.355,170.322,704.211,169.929"/>
<path fill="#EDE3D9" d="M699.063,182c-0.146-0.528-0.332-0.929-0.633-0.992C698.744,181.213,698.943,181.56,699.063,182"/>
<path fill="#EDE3D9" d="M695.844,54.524c0.001-0.074,0.002-0.13,0.004-0.215C695.593,55.047,695.641,54.919,695.844,54.524"/>
<path fill="#EDE3D9" d="M703.619,173.664c0.16-0.932,0.293-2.005,0.387-3.173C703.906,171.003,703.779,171.968,703.619,173.664"/>
<path fill="#EDE3D9" d="M704.234,173.162c-0.049,0.857-0.088,1.528-0.127,2.169C704.326,175.645,704.461,175.367,704.234,173.162"/>
<path fill="#EDE3D9" d="M704.141,166.472c0.021,1.418-0.04,2.744-0.135,4.018c0.089-0.487,0.162-0.691,0.206-0.561
	C704.195,169.202,704.176,168.174,704.141,166.472"/>
<path fill="#EDE3D9" d="M369.829,424.605c-0.041,0.162-0.067,0.354-0.123,0.531C370.245,427.641,370.16,426.543,369.829,424.605"/>
<path fill="#EDE3D9" d="M545.74,21.327c0.117-0.013,0.176-0.046,0.283-0.063c-0.117-0.015-0.262-0.033-0.367-0.045L545.74,21.327z"
	/>
<path fill="#EDE3D9" d="M536.826,22.296c3.797-1.62,5.954-1.42,8.831-1.078l-2.95-3.753L536.826,22.296z"/>
<path fill="#EDE3D9" d="M373.385,189.695l1.17-6.261c1.925,7.557,1.262,13.025,2.904,7.148c-4.074-0.887-0.416-24.336-4.486-25.207
	l0.855-4.128c-0.038,1.182,0.201,1.373,0.161,2.541c1.951-8.025-2.946-5.962-2.366-16.304c0.313-3.604,0.902-6.119,1.387-3.662
	l-1.007-8.031c0.077-2.335,0.786-1.766,0.708,0.56l-0.326-12.249l0.121,0.092c-0.639-1.747-1.627-5.707-2.049-7.641
	c0.586-3.113,0.433,1.56,0.941,0.763l-0.986-6.782c1.055-2.763,2.08,2.858,1.928,7.543c4.069-6.333-1.023-5.627,1.352-19.297
	l0.516,6.404c2.313-4.128,1.476-9.126,2.917-16.367c-0.753,1.718-3.632,14.496-4.646,7.135c0.308-2.074,0.454-4.81-0.366-8.78
	c1.449-0.036,1.092-3.914,1.011-8.765l1.919,0.331c-0.554-5.246-1.532-4.831-2.396-7.917c0.189-5.848,1.676-7.06,2.928-8.435
	c0.307-9.363-2.381,6.464-2.744-4.617c0.734-7.785-0.051-13.253-1.199-22.567c0.662-5.45,1.176,0.952,1.725-1.002l-1.532-4.832
	c0.038-1.182,0.507-0.8,0.745-0.605c-0.147-1.019-0.342-1.549-0.558-1.871c-0.216-0.188-0.454-0.229-0.688-0.348
	c-0.471-0.23-0.934-0.611-1.192-2.747c-0.927-0.843-0.446-2.655,0.182-4.092c1.753,0.404,3.437,0.867,4.8,1.061
	c0.691,0.098,1.323,0.128,1.95,0.049c0.481-0.069,0.956-0.138,1.424-0.204c0.585-0.099,1.157-0.231,1.714-0.399
	c1.951,0.545-0.941,1.177-0.346,1.918c10.867-1.575,9.316-1.143,18.237-3.264l7.603,1.26c-5.586-1.44,1.551-3.145,7.801-4.546
	c-1.982-0.695-3.674-1.305-4.81-1.594l9.976-1.031c1.204,0.315,0.199,0.974-1.436,1.776c0.68-0.159,1.326-0.315,1.828-0.461
	c3.566,0.71,1.717,1.816-0.838,2.889c-1.216-0.378-2.422-0.783-3.594-1.184c-2.463,1.166-4.768,2.458-4.255,3.58
	c0.647-0.22,1.896-0.411,3.27-0.518c-0.645,0.317-1.056,0.6-0.757,0.791c0.338,0.202,1.378-0.222,3.01-0.711l2.268,2.137
	l0.551-0.849l13.049,1.34c9.337-2.154,17.458-5.323,32.279-6.207c-3.678,1.569-0.791,2.562-0.99,4.421
	c-4.045-1.967-11.479,0.837-19.158,0.437c4.006,0.206,3.125,1.093,2.105,1.402l13.698-1.791c-0.31,1.521,2.909,1.14,6.487,1.769
	c-2.703-3.005,10.211-2.001,15.784-2.922c0.346,1.009-0.989,2.038-7.79,1.795c7.503,2.262,9.694-3.528,17.06-1.606
	c-1.663,0.023-2.556-0.131-3.214,0.382c3.879-0.897,13.361-0.186,11.13,0.691l-1.657,0.021c11.023,0.355,33.557,0.021,35.201-2.529
	c0.111,0.328-1.445,3.075-2.111,3.591l19.668-8.586c-1.732,2.191,4.92,7.411-4.223,8.649c2.623,0.312,5.871,0.676,11.405-0.096
	c-1.792-0.312-4.464-3.17-2.016-3.369c6.715,2.44,4.661,1.304,12.94,3.385c-2.684-0.471,0.297-3.907,4.538-3.798
	c-0.661,0.515,0.353,3.393-1.196,3.75l10.555-3.373c-2.633,0.608-0.464,2.858,1.897,3.813c-1.096-0.66,9.126,0.062,11.94-0.273
	l-4.475-0.782c11.92,0.51,11.771-4.744,23.596-4.567c-1.431,0.697-3.534,4.29,2.479,4.715c2.756-1.73,12.203-8.312,22.664-9.643
	l2.008,0.987l8.025-1.125c-4.998,2.601-19.023,8.071-26.684,10.2c4.461,0.781,1.242,1.164,7.922,1.075
	c2.359,0.926-3.641,1.404-5.605,1.458l15.551,0.599c-0.691-2.019,11.893-2.023,11.299-3.703l-16.889,2.091
	c-0.686-2.014,9.766-5.726,20.783-5.369c2.803,0.803-2.096,3.589-1.867,4.261c1.43-0.694,10.459-1.324,11.472-0.832l-4.675,1.078
	c6.134,0.757,10.01-2.674,17.383-0.75c1.271,0.066,3.171,0.714,4.807,1.198c0.201,0.059,0.397,0.117,0.59,0.173
	c0.071,0.051,0.143,0.101,0.211,0.147c0.13,0.09,0.244,0.156,0.341,0.188c0.198,0.064,0.347-0.004,0.46-0.303
	c-0.262-0.574-0.561-1.452-0.922-2.469c-0.482-1.019-0.982-2.178-1.141-3.319c-0.188-1.143-0.16-2.267,0.088-3.213
	c0.125-0.472,0.303-0.901,0.537-1.266c0.119-0.183,0.25-0.35,0.395-0.496c0.176-0.147,0.4-0.276,0.635-0.386
	c0.387,0.053,2.479,0.334,5.211,0.703c2.607,0.378,5.545,0.863,7.73,1.35c-0.459,3.145-0.918,5.548-1.283,6.736
	c-0.904,2.666-1.979,1.348-3.021,0.778c-1.043-0.697-2.055-0.686-2.83,0.963c0.551-0.402,1.231,0.594,1.448,1.187
	c-0.235,1.019-0.661,0.98-0.999,1.191c-0.336,0.213-0.583,0.563-0.459,2.133c1.023-0.205,0.98,3.047,0.919,4.678
	c-0.06,1.698-0.141,2.142,0.812-2.391c0.583,5.681-0.42,6.036-0.332,12.706c1.32-2.124,4.496,5.988,5.081,11.678
	c-0.521-0.336-1.198,0.941-1.507,1.56c-0.184,11.643-1.112,17.892-1.131,28.748c-0.496,1-1.095,6.238-1.974,4.008
	c0.362,1.562,1.055,2.995,1.103,6.345c-1.768,6.479-0.275-7.467-2.398-2.526c1.188,0.422,1.639,8.66,2.381,13.429
	c1.838-1.467,0.354-11.02-0.389-15.795c2.531-0.022,5.182,8.292,6.354,19.638c0.629,9.019-1.637,3.91-1.277,5.475
	c-0.441,16.938,4.422,14.432,2.596,28.496c-1.613,5.582-3.211,0.252-4.372,1.489c-0.612-7.345,1.022-11.278,0.958-16.257
	l-0.764,6.131c-0.535-2.337-0.941-7.241-0.476-9.914c-1.448,4.679-0.276,28.617-1.616,41.685c0.541,2.323,1.101,6.331,1.75,4.433
	l-0.225-4.134c1.301-3.801,1.799,7.782,2.405,2.548c0.914,5.547,2.351,11.765,1.616,19.573l-1.839,1.467
	c0.536-0.167,1.095-5.104,0.533-7.298c0.815,3.255-2.489,11.973-0.081,15.538l1.275-5.473c0.924,5.569,2.877,12.454,2.297,19.374
	c1.816-3.15-0.207-1.596,1.918-6.513c-2.645,4.263,0.111-17.704-2.668-10.856c2.468-5.046,1.047-8.732,3.148-15.328
	c-0.604,0.204-1.16,2.336-0.859-3.473c-0.179-0.263-0.404-0.882-0.536-1.275c0.022-0.177,0.029-0.24,0.046-0.393
	c-0.027,0.117-0.046,0.204-0.07,0.321c-0.093-0.252-0.111-0.274-0.027,0.12c-0.265,1.383-0.584,2.505-0.921,2.959
	c-1.395-2.884-1.351-12.123-2.069-15.246c0.287-3.447,0.695,1.442,1.342-0.439l-1.077-4.668c1.347-0.462,2.237-9.157,3.026-1.036
	l0.061-7.31c0.756-4.304,1.056-10.223,0.488-13.872c0.293-3.448-1.49-8.709-0.436-5.706l-0.834-11.463l0.336-0.105
	c0.171-11.31-2.231-23.283,0.2-36.213c-0.339-3.808-0.756-7.742-0.374-14.111l1.166-1.242c-0.406-4.889,1.168-14.681-0.048-16.782
	c1.569-2.637,1.74-8.568,1.589-14.916c-0.053-1.585-0.105-3.2-0.158-4.793c-0.031-0.815-0.061-1.627-0.094-2.428
	c-0.027-1.43-0.055-2.84-0.083-4.221c-0.104-5.512-0.151-10.456-0.013-14.507c0,0-0.38,0.197-0.761,0.392
	c-0.381,0.206-0.761,0.414-0.761,0.414c0.004-0.536,0.006-1.069,0.01-1.6c-4.729-0.017-9.516,0.08-14.475,0.253
	c-1.232,0.049-2.48,0.096-3.754,0.145l-0.951,0.04l-0.475,0.02l-0.289,0.021c-0.387,0.029-0.775,0.059-1.17,0.087
	c-1.576,0.127-3.225,0.259-4.961,0.4l0.451,1.344c-6.334,1.105-16.285-0.957-26.302-0.818c0.681-0.514,3.223-0.38,5.021-0.07
	c-11.969-3.038-25.253,2.211-36.107-0.003c-2.705,0.489-4.664,0.323-6.56-0.015c0.252-0.003,0.476-0.029,0.669-0.07
	c-0.276-0.017-0.688-0.02-1.108-0.017c-1.196-0.23-2.426-0.501-3.757-0.717c1.132,0.327,2.216,0.597,3.159,0.722
	c-2.086,0.028-5.25,0.194-8.353,0.532l-1.32-1.446c-0.252,0.015-0.453,0.027-0.716,0.042c-3.044-0.534-2.448,0.685-0.823,1.771
	c-1.562,0.239-2.992,0.523-4.104,0.872c-2.473-2.332-8.135,0.786-11.509-1.702c-2.092,1.214-15.593,0.913-17.244,3.464
	c-0.106-0.331-1.02-0.49,0.653-0.511c-3.457-0.291-6.911-0.581-10.014,0.138l-1.467-1.835l-7.549,2.469
	c-4.586-1.119-6.486-1.769-1.934-3.183c-10.997,2.173-8.923,0.818-18.273,2.974l0.456-1.188c-3.345,0.045-8.687,1.636-10.702,0.654
	c-7.479-2.258-37-0.313-56.194-2.409c3.722,3.497-8.923-1.567-9.683,1.141c-1.119-0.825-3.794-1.292-0.684-2.011
	c-9.797,0.813-14.719-1.313-21.482,0.974c-1.122-0.832,2.098-1.212,1.1-1.704c-0.786,0.18-3.112,0.72-4.133,0.227
	c-0.996-0.492,1.434-0.695,2.984-1.055c-10.006,0.138-11.018,2.687-11.746,5.079c-5.07-1.133-7.6-0.973-11.264,0.597
	c-1.764-0.783-4.709-1.603,1.508-1.883c-3.498-0.113-21.367-1.146-21.723,0.77c-1.097-0.486-4.891-0.141-5.811,0.08
	c-4.289-0.078-6.621-0.121-8.934-0.164c-2.861-0.034-5.736-0.033-10.851,0.059l3.095,0.313c-0.845,0.82-1.905,1.124-3.407,1.187
	c0.057,1.456-0.087,2.873-0.221,4.635c-0.135,1.749-0.261,3.863-0.17,6.395l-0.237-0.276c-0.183,2.07-0.33,3.732-0.448,5.089
	c-0.096,1.17-0.144,2.078-0.161,2.81c-0.033,1.464,0.061,2.227,0.144,2.984c0.172,1.513,0.313,3.004-0.64,10.032l1.438-0.766
	c3.096,1.311-1.826,12.453-0.643,20.61l0.822-2.945c1.059,4.456-4.208,12.454-4.594,16.928c-0.27,0.975-0.432-1.54-0.632-2.901
	c-1.825,11.713,1.886,1.518,2.324,10.247c-1.018,1.61-2.586-2.074-2.775,3.8c-0.824,2.928,3.3,17.041,1.352,25.058
	c0.783-1.768,1.564-3.521,2.154,0.534c0.28,6.214-2.963,16.799-0.492,22.413c-0.215,0.791-0.418,1.087-0.613,1.121
	c0.637,4.75,1.059,15.438,2.396,18.3c-4.97,4.389,2.418,29.532-2.166,29.427l0.246,14.612l-0.468-0.382
	c-0.305,9.339,0.795,12.643,1.895,15.926c-0.312,2.158-0.739,0.582-0.979,0.403c-0.924,13.647-0.729,15.005,1.554,26.446
	l-1.486,1.189c0.864,3.104-2.332,19.732-0.599,33.117c-0.168-0.131-0.456-0.41-0.666-1.473c1.745,15.061-4.125,36.055,1.29,41.574
	l1.335,9.938c0.42-12.859,2.351,1.912,3.249-3.375c0.319,5.055-1.632,13.072-1.91,6.857l0.27-0.971
	c-2.821-2.283-1,15.975-2.921,15.629c0.139,25.301-1.424,49.957-1.543,73.656l2.194-2.729l-0.126,8.266
	c-0.512,2.17-1.717,2.912-1.626-2.986c-0.623,1.553-0.362,4.025,0.114,6.129c0.063,0.264,0.126,0.521,0.188,0.771
	c0.067,0.361,0.135,0.713,0.2,1.049c0.135,0.67,0.272,1.258,0.404,1.744c0.262,0.977,0.494,1.543,0.613,1.568
	c-0.444,8.143-1.083,7.313-1.619,4.275c-0.535-2.951-0.965-7.984-0.992-5.127l0.165,7.639l0.256-1.859
	c0.551,3.473,1.122,4.57,1.455,7.486c1.93-0.209,4.461-0.324,8.316-0.283c3.078,0.221,3.856,0.559,4.133,0.854
	c0.281,0.293,0.063,0.543,1.42,0.584c-0.021,0.078,0.197,0.137,0.842,0.154c0.321,0.006,0.748,0.006,1.301-0.008
	c0.257-0.01,0.541-0.021,0.859-0.031c0.219-0.016,0.461-0.031,0.727-0.053l10.414,0.188l-4.164-1.73
	c4.615-0.855,9.793,0.09,4.988-1.873c7.053,3.027,38.848,1.088,43.179,2.025c6.464-1.262,12.847-1.24,20.753-1.088
	c-1.967-0.359-3.143-2.309,3.675-2.07c-2.491,4.02,12.486,1.746,17.997,4.637c-4.924-1.918,19.386-0.473,11.657-3.195
	c5.689,0.324,0.346,1.504,4.663,2.449c13.541-1.557,29.843,1.014,46.582,0.486c0.26-0.527-2.543-1.334,1.047-2.119l8.838,2.639
	c3.306-0.26,3.043-3.045,9.083-1.215c-0.853-0.445-2.127-1.113,0.091-1.281c32.791,2.57,67.005-2.107,100.307,2.725
	c-4.51-1.023-1.504-1.123,1.939-1.162c-2.24-0.244,0.051-1.303-0.39-2.018l13.942,1.986c2.539-1.986,14.947-0.135,16.402-2.033
	l-4.417,0.34c5.872-2.238-8.215-4.975-7.354-7.85c-6.576,2.547-17.336-3.77-28.121-0.125c-2.382-0.588,2.03-0.926,0.758-1.594
	c-2.735,1.232-6.037,1.488-12.156,0.938l0.691-0.307c-17.189,0.301-24.561-0.912-43.871-1.721l1.43,1.42
	c-4.148-0.189-5.023-0.637-6.966-0.992c-4.763,2.156,11.654,0.123,7.317,2.498c-5.506-2.893-29.266-0.043-32.986-3.33
	c-6.383-0.018,1.873,1.646-4.51,1.625l-1.691-0.887l-1.615,1.145c-4.185-0.189-6.295-1.301-6.452-2.053
	c1.015,0.088,2.888-0.211,3.974-0.275c-5.426-1.049-15.301,0.357-17.166,0.016l6.135,0.547c-17.423,0.832-38.695-0.334-55.529,1.473
	l1.279,0.672c-12.854,1.238-10.295-0.738-24.409-0.164l0.515-0.16c-2.826,0.67-6.597,1.006-10.459,0.93
	c3.563-0.785-6.705-1.525-2.031-2.395c-13.938,1.332-6.895,1.045-16.1,3.537l-2.124-1.111c-3.136,1.006-3.398,1.537-10.447,1.824
	c5.782-0.955-4.499-1.693,1.978-2.957c-14.789-2.434-21.963,2.457-28.746-1.102c-6.793,3.08,12.799,1.709,8.996,2.369
	c3.184,1.006-5.607,2.301-10.248,1.992c-2.363-0.035-4.371-1.018-7.276-1.988c-1.452-0.484-3.128-0.963-5.183-1.32
	c-1.027-0.178-2.148-0.324-3.387-0.426c-0.576-0.035-1.18-0.072-1.811-0.113c-0.337-0.023-0.686-0.035-1.055-0.033
	c0.6,0.016,0.627-0.219,1.233-0.207c-0.925-0.328-1.676-0.193-2.689-0.021c-0.972,0.174-2.173,0.383-3.075,0.209
	c0.068-0.469,0.192-1.004,0.397-1.57c-0.931-0.006-0.902-1.096-0.94-1.863c-0.037-0.803-0.139-1.404-1.326-1.592l0.529,6.365
	l0.254-0.02l-0.275,0.041c-0.346-1.463-1.18-2.871-1.76-5.428c-0.067-0.324-0.135-0.654-0.205-0.99
	c-0.063-0.344-0.121-0.676-0.173-1.182c-0.103-0.93-0.177-1.9-0.214-2.92c-0.072-2.037,0.012-4.266,0.342-6.758
	c0.479,0.793,1.108,3.822,1.459,5.904c0.699-2.979-0.463-5.732,0.254-8.82c1.189,0.439,1.318,3.752,1.377,7.783
	c0.017,1.008,0.031,2.061,0.047,3.123l0.043,1.6l0.015,0.4l0.015,0.305l0.041,0.398c0.117,1.051,0.34,1.994,0.794,2.451
	c0.251-0.496,0.269-0.967,0.194-1.479c-0.037-0.256-0.098-0.52-0.164-0.789c-0.031-0.139-0.065-0.275-0.098-0.408
	c-0.033-0.156-0.067-0.195-0.096-0.559c-0.234-2.316-0.271-3.816,1.014-2.152c-3.271-4.785,0.415-11.711-2.084-19.76l1.424,0.531
	c-0.225-1.273-0.898-3.912-0.859-6.258l1.844,4.244c-1.574-6.516,1.377-12.561,0.521-18.811c0.043,13.084-1.717,2.936-2.754,8.471
	c-1.907-16.141,3.723-9.283,3.039-27.354c0.203,2.447-0.854,9.186-1.514,5.359c0.294-3.439,0.84-7.984,1.586-10.096
	c-0.295-11.971-1.463,1.84-2.338-3.258c1.734-4.076-0.706-5.879-1.262-11.127l1.447-0.039c0.93-13.643-3.016-3.615-1.894-15.898
	l2.007,5.191l-0.519-6.404l1.646,1.322c-1.224-6.967-0.907-9.137-0.444-15.963c-1.021,1.586-2.626-0.893-2.672-6.934
	c0.86-4.123,1.376,2.307,1.17-6.258c0.903,1.934,2.04,4.051,0.707,7.781c0.473,0.381,0.91,1.904,1.375,2.299
	c0.989-4.438,0.227-11.154,0.211-14.254c-0.053,1.193-0.131,2.619-0.336,3.352l-2.006-12.418c0.543-1.953,0.98-0.402,1.406,1.133
	c-0.155-2.518-0.822-4.256-0.946-7.955c1.177,0.959,2.392,0.729,2.944,5.965l-1.304-11.832c0.511-0.789,1.405-6.072,1.839-4.535
	c0.691-6.561-2.284-16.09-1.371-24.787c-0.229-0.451-0.445-1.355-0.615-3.207c0.266-8.171,1.711-15.412,0.098-25.099l2.109-5.496
	c-0.479-7.585-2.657,7.44-3.454-5.191c-0.671-8.943,1.8-3.339,2.386-6.475c-1.063-4.448-3.225-12.181-1.51-20.396
	C373.541,185.023,373.229,187.155,373.385,189.695 M372.449,96.131c0.305,1.813,1.242,5.429,0.387,6.754
	C371.18,100.82,371.974,99.223,372.449,96.131 M427.266,18.364c-1.346,0.478-3.432,0.242-5.785-0.308
	C423.189,17.938,425.123,17.994,427.266,18.364 M703.033,142.723c-0.023-0.078-0.04-0.132-0.07-0.195
	C703.526,138.486,703.305,139.92,703.033,142.723 M702.406,151.12c0.201,0.843,0.4,0.786,0.604,0.429
	c-0.367-0.587-0.392-2.472-0.287-4.619C702.342,147.526,702.079,148.612,702.406,151.12 M376.063,446.271l-2.368-0.381
	c2.74-0.205,3.686-0.217,3.785-0.123C377.609,445.861,376.848,446.061,376.063,446.271"/>
<path fill="#EDE3D9" d="M411.139,20.344c-0.512-0.245-0.652-0.515-0.774-0.786C409.65,19.801,409.637,20.082,411.139,20.344"/>
<path fill="#EDE3D9" d="M374.146,247.885l-0.018,0.285c0.088,0.154,0.176,0.24,0.262,0.285L374.146,247.885z"/>
<path fill="#EDE3D9" d="M690.133,24.006c0.21-0.952,0.474-1.653,0.748-2.226C690.527,22.015,690.229,22.675,690.133,24.006"/>
<path fill="#EDE3D9" d="M704.863,195.622l-0.376-5.379c0.073,2.601-0.245,3.528-0.474,4.843
	C704.352,194.967,704.84,193.94,704.863,195.622"/>
<path fill="#EDE3D9" d="M695.908,242.311c0.177,0.787,0.02,1.666,0.2,2.443l0.671-0.215
	C696.736,241.191,696.193,238.849,695.908,242.311"/>
<path fill="#EDE3D9" d="M700.057,200.601c-1.219,0.426-0.805,3.801-0.58,7.569c-0.005-0.226-0.016-0.442,0-0.667
	C701.182,208.614,700.615,204.599,700.057,200.601"/>
<path fill="#EDE3D9" d="M699.518,209.043c0.057,1.162,0.089,2.347,0.03,3.483C700.23,212.967,699.689,211.115,699.518,209.043"/>
<path fill="#EDE3D9" d="M703.211,161.772c-0.313,1.786,1.558,1.122,1.061,2.131C705.822,165.898,702.396,151.99,703.211,161.772"/>
<polygon fill="#EDE3D9" points="696.044,203.652 697.547,202.3 696.336,200.189 "/>
<path fill="#EDE3D9" d="M697.146,173.9l-0.414,6.021c0.252-0.092,0.398,0.673,0.512,1.612
	C697.295,177.824,697.592,173.758,697.146,173.9"/>
<path fill="#EDE3D9" d="M697.244,181.534c-0.028,1.933,0.002,3.771,0.248,4.847C697.477,185.335,697.427,183.085,697.244,181.534"/>
<polygon fill="#EDE3D9" points="695.593,195.421 695.906,193.641 696.016,189.39 "/>
<path fill="#EDE3D9" d="M697.438,109.177l-0.432-6.571c-0.516-0.669-0.83,1.122-0.623,3.568
	C696.74,107.748,696.939,110.185,697.438,109.177"/>
<path fill="#EDE3D9" d="M693.32,129.05c0.313-1.778,0.649-1.896,1.145-2.898l-1.863-0.201L693.32,129.05z"/>
<path fill="#EDE3D9" d="M692.886,109.887c-0.517-0.654-1.482-9.537-1.366-1.207C692.033,109.346,692.463,115.928,692.886,109.887"/>
<path fill="#EDE3D9" d="M691.14,16.077l1.575-0.023l1.039-1.527l1.007-1.529c0,0-1.005,0.77-1.905,1.541
	C691.945,15.308,691.14,16.077,691.14,16.077"/>
<path fill="#EDE3D9" d="M604.365,23.386c7.787,0.732,1.85-1.885,8.886-0.972c1.828-0.722-5.751-0.746-3.876-1.37
	C604.674,21.807,602.207,21.376,604.365,23.386"/>
<path fill="#EDE3D9" d="M609.373,21.045c0.755-0.12,1.552-0.267,2.4-0.465C610.412,20.771,609.771,20.918,609.373,21.045"/>
<polygon fill="#EDE3D9" points="682.238,447.82 687.246,448.457 684.014,447.432 "/>
<path fill="#EDE3D9" d="M691.85,445.555l1.18,1.947l3.008-1.764C694.906,445.826,692.711,445.994,691.85,445.555"/>
<path fill="#EDE3D9" d="M376.374,82.223l-0.47-0.381c-0.506,0.774-0.545,1.947-0.625,4.294L376.374,82.223z"/>
<polygon fill="#EDE3D9" points="374.916,150.131 374.955,148.963 373.193,151.147 "/>
<path fill="#EDE3D9" d="M377.162,207.126c0.073-2.327-0.319-5.062-0.244-7.397C377.235,204.799,374.967,207.754,377.162,207.126"/>
</svg>
