<?xml version="1.0" encoding="utf-8"?>
<!-- Generator: Adobe Illustrator 16.0.0, SVG Export Plug-In . SVG Version: 6.00 Build 0)  -->
<!DOCTYPE svg PUBLIC "-//W3C//DTD SVG 1.1//EN" "http://www.w3.org/Graphics/SVG/1.1/DTD/svg11.dtd">
<svg version="1.1" id="Livello_1" xmlns="http://www.w3.org/2000/svg" xmlns:xlink="http://www.w3.org/1999/xlink" x="0px" y="0px"
	 width="539.447px" height="340.231px" viewBox="93 60.667 539.447 340.231" enable-background="new 93 60.667 539.447 340.231"
	 xml:space="preserve">
<polygon fill="#D6CBC1" points="622.649,394.949 103.812,392.787 105.727,71.699 624.564,73.862 "/>
<path fill="#D6CBC1" d="M628.138,393.02c-0.098,2.48,0.851,1.596,1.018,1.969C628.972,390.838,627.892,393.124,628.138,393.02"/>
<polygon fill="#D6CBC1" points="626.242,352.068 626.623,352.793 625.717,346.753 "/>
<path fill="#D6CBC1" d="M626.488,313.782c-1.629,3.61,0.176,13.874-0.436,20.69l-0.373,1.124l1.275,3.085
	C626.798,330.391,626.006,319.618,626.488,313.782"/>
<path fill="#D6CBC1" d="M630.084,293.391c-0.633,1.256-0.512-4.42-0.225,4.758c0.072-0.461,0.111-0.592,0.164-0.86
	C630.017,296.462,630.027,295.324,630.084,293.391"/>
<path fill="#D6CBC1" d="M630.023,297.287C630.045,301.321,630.564,294.653,630.023,297.287"/>
<path fill="#D6CBC1" d="M629.777,278.666l0.525,5.313c0.375-1.107,0.486-5.832,0.744-4.076
	C630.775,274.454,630.401,275.573,629.777,278.666"/>
<path fill="#D6CBC1" d="M628.635,273.623l0.219,2.754C629.011,275.897,629.07,275.168,628.635,273.623"/>
<path fill="#D6CBC1" d="M629.318,282.218l-0.464-5.841c-0.265,0.77-0.786,0.848,0.165,2.682
	C628.545,278.578,628.995,279.735,629.318,282.218"/>
<path fill="#D6CBC1" d="M629.052,285.52c-0.365,2.979-0.609,6.824-1.135,1.49C628.078,297.172,629.219,295.682,629.052,285.52"/>
<path fill="#D6CBC1" d="M624.838,311.819l-0.492,3.98l0.518,3.447C624.605,317.524,625.344,311.573,624.838,311.819"/>
<path fill="#D6CBC1" d="M630.805,245.588c-0.339-0.334-0.923,1.779-1.362,2.174l0.369,3.924
	C630.058,249.672,630.296,245.852,630.805,245.588"/>
<path fill="#D6CBC1" d="M629.443,247.762l-0.551-5.873C628.791,247.131,629.065,248.092,629.443,247.762"/>
<polygon fill="#D6CBC1" points="626.856,272.666 628.031,282.315 626.851,270.809 "/>
<polygon fill="#D6CBC1" points="630.98,223.173 631.754,226.504 630.594,220.57 "/>
<path fill="#D6CBC1" d="M630.931,208.302c0.641,2.466,1.129-3.37,1.516-0.765c-0.094-4.038-0.635-7.49-1.123-10.6
	C631.588,200.24,631.496,203.757,630.931,208.302"/>
<path fill="#D6CBC1" d="M630.621,191.72c0.145,1.649,0.418,3.358,0.705,5.219C631.183,195.186,630.978,193.46,630.621,191.72"/>
<path fill="#D6CBC1" d="M629.121,231.893c0.209-0.453,0.756-1.325,1.004-4.613l-0.977,2.303
	C629.14,230.286,629.131,231.084,629.121,231.893"/>
<path fill="#D6CBC1" d="M629.118,229.662l0.03-0.08c0.043-2.507,0.072-4.243,0.084-4.988
	C629.219,225.235,629.183,226.76,629.118,229.662"/>
<path fill="#D6CBC1" d="M629.113,232.475c0.004-0.215,0.005-0.372,0.008-0.582C629.025,232.115,628.992,232.248,629.113,232.475"/>
<path fill="#D6CBC1" d="M627.818,257.286c-0.517-3.452-1.051-10.644-1.912-3.692C626.551,256.071,627.041,252.092,627.818,257.286"
	/>
<path fill="#D6CBC1" d="M627.894,235.334l-0.258,6.232c0.256-0.121,0.632-1.244,0.889,0.467L627.894,235.334z"/>
<polygon fill="#D6CBC1" points="627.606,232.28 627.893,235.334 627.988,233.024 "/>
<path fill="#D6CBC1" d="M629.656,202.395c-0.402-2.696-0.421-5.642-0.467-8.97c-0.209,3.565-0.335,7.252-0.353,10.754
	C629.135,204.675,629.668,206.216,629.656,202.395"/>
<path fill="#D6CBC1" d="M629.31,215.645c-0.016-0.186-0.037-0.424-0.052-0.599C629.174,215.413,629.147,215.709,629.31,215.645"/>
<path fill="#D6CBC1" d="M629.39,160.667c-0.063,0.181-0.114,0.339-0.176,0.523c0.055,0.042,0.107,0.071,0.164,0.124L629.39,160.667z
	"/>
<path fill="#D6CBC1" d="M628.652,204.775c-0.201,2.681,0.025,4.283,0.313,5.812c-0.084-2.004-0.135-4.129-0.129-6.409
	C628.701,203.956,628.611,203.913,628.652,204.775"/>
<path fill="#D6CBC1" d="M630.225,182.579c-0.21,1.395-0.39,2.977-0.556,4.64C629.98,185.855,630.472,183.075,630.225,182.579"/>
<path fill="#D6CBC1" d="M629.531,214.144c0.014,0.134,0.025,0.255,0.039,0.402C629.783,213.668,629.68,213.778,629.531,214.144"/>
<path fill="#D6CBC1" d="M629.531,214.144c-0.132-1.38-0.361-2.467-0.566-3.557c0.066,1.631,0.162,3.146,0.295,4.458
	C629.328,214.715,629.435,214.383,629.531,214.144"/>
<path fill="#D6CBC1" d="M623.279,150.705c0.887,0.479,1.668,7.532,0.677,13.608c0.634,5.992,3.587,2.095,5.259-3.122
	c-0.39-0.188-0.748-0.189-1.238-6.354c-0.5,2.152-1.219,13.662-1.996,8.46c-0.408-8.164,0.357-6.686,0.852-10.65
	c-1.131,3.366-1.555-10.392-3.197-8.624l0.531,7.16C623.912,151.316,623.522,148.718,623.279,150.705"/>
<path fill="#D6CBC1" d="M629.051,172.929l0.096,2.536c0.174-2.89,0.543-4.956,1.264-8.761c-0.41-4.219-0.738-5.098-1.031-5.391
	l-0.199,12.483L629.051,172.929z"/>
<path fill="#D6CBC1" d="M629.083,186.846c-0.958-1.985-1.333-8.076-2.405-4.354c0.023,7.439,0.779,5.218,1.172,9.665
	c-0.168-12.006,0.521,3.453,1.123-5.219c0.15,2.361,0.189,4.484,0.217,6.486c0.131-2.162,0.289-4.245,0.479-6.207
	c-0.022,0.11-0.041,0.187-0.061,0.276l0.003,0.057c-0.007,0-0.009-0.013-0.015-0.013c-0.125,0.518-0.201,0.688-0.126,0.104
	c-0.012-0.041-0.015-0.187-0.019-0.25c-0.133-0.083-0.25-0.305-0.361-0.546c0.222-3.475,0.254-0.546,0.361,0.546
	c0.049,0.04,0.092,0.135,0.145,0.146c0.006-0.011,0.008-0.028,0.012-0.044l-0.459-12.028
	C628.998,178.009,629.006,181.196,629.083,186.846"/>
<path fill="#D6CBC1" d="M623.859,247.166c0.088-0.373,0.156-0.355,0.227-0.383C623.974,246.004,623.892,245.709,623.859,247.166"/>
<path fill="#D6CBC1" d="M624.474,242.223c0.131,0.877,0.514,1.607,0.396,4.449c-0.305,2.463-0.463-0.015-0.783,0.111
	c0.246,1.715,0.66,6,1.162,0.63l-0.125-0.851c0.359-4.84,1.607-11.053,1.734-10.207
	C625.978,237.763,625.351,239.006,624.474,242.223"/>
<path fill="#D6CBC1" d="M626.534,214.188l-0.417-10.017l-0.869,5.095l0.508-0.256C625.523,214.705,626.15,213.478,626.534,214.188"
	/>
<polygon fill="#D6CBC1" points="629.881,159.523 630.896,160.859 629.486,155.064 "/>
<polygon fill="#D6CBC1" points="629.834,146.509 630.722,146.995 630.207,143.557 "/>
<path fill="#D6CBC1" d="M110.218,214.664l0.235,2.945C110.384,216.216,110.305,215.319,110.218,214.664"/>
<path fill="#D6CBC1" d="M110.406,193.361l-0.435-0.525C110.206,193.824,110.383,194.229,110.406,193.361"/>
<path fill="#D6CBC1" d="M377.582,67.228c-4.283-0.849-9.065-2.159-8.553-1.156l1.313,0.981
	C373.338,66.892,375.633,67.01,377.582,67.228"/>
<path fill="#D6CBC1" d="M158.664,72.144c0.407,0.097,0.831,0.2,1.252,0.301c1.043-0.33,2.022-0.643,2.899-0.921
	C161.566,71.711,160.15,71.923,158.664,72.144"/>
<path fill="#D6CBC1" d="M155.622,76.172l-5.646-0.654C151.244,75.743,153.06,75.961,155.622,76.172"/>
<path fill="#D6CBC1" d="M110.559,331.02l0.975,3.439C111.559,329.086,111.044,331.448,110.559,331.02"/>
<path fill="#D6CBC1" d="M563.912,68.265c-3.697-0.397-6.641-0.571-9.227-0.629C559.139,68.216,562.731,69.072,563.912,68.265"/>
<path fill="#D6CBC1" d="M99.91,206.219c0.166,1.802,0.358,2.572,0.578,2.52C100.332,206.885,100.151,205.836,99.91,206.219"/>
<path fill="#D6CBC1" d="M544.004,67.595c0.651,0.101,1.293,0.153,1.953,0.237c2.705-0.151,5.426-0.272,8.73-0.196
	C551.396,67.206,547.629,66.933,544.004,67.595"/>
<path fill="#D6CBC1" d="M463.998,388.719c0.305,0.045,0.676,0.068,0.953,0.121C465.044,388.707,464.621,388.698,463.998,388.719"/>
<path fill="#D6CBC1" d="M586.888,399.08c-1.211,0.057-3.186,0.049-5.047,0.055C582.747,399.205,584.269,399.205,586.888,399.08"/>
<path fill="#D6CBC1" d="M630.572,94.15C630.621,96.91,630.677,94.589,630.572,94.15"/>
<path fill="#D6CBC1" d="M626.633,107.55c-0.105-0.587-0.242-1.034-0.468-1.107C626.398,106.674,626.545,107.058,626.633,107.55"/>
<path fill="#D6CBC1" d="M516.484,73.557c-0.08,0-0.145-0.002-0.238-0.004C517.066,73.747,516.926,73.71,516.484,73.557"/>
<path fill="#D6CBC1" d="M630.103,98.301c0.127-1.035,0.233-2.229,0.311-3.528C630.336,95.342,630.236,96.414,630.103,98.301"/>
<path fill="#D6CBC1" d="M630.568,97.744c-0.041,0.952-0.076,1.699-0.108,2.412C630.621,100.505,630.724,100.198,630.568,97.744"/>
<path fill="#D6CBC1" d="M630.543,90.304c0.006,1.578-0.049,3.051-0.129,4.468c0.07-0.541,0.127-0.769,0.158-0.622
	C630.568,93.341,630.558,92.198,630.543,90.304"/>
<path fill="#D6CBC1" d="M237.893,390.389c0.182,0.031,0.393,0.051,0.592,0.094C241.271,390.09,240.047,390.149,237.893,390.389"/>
<path fill="#D6CBC1" d="M305.704,77.066c0.129-0.009,0.198-0.035,0.315-0.046c-0.13-0.012-0.292-0.026-0.407-0.036L305.704,77.066z"
	/>
<path fill="#D6CBC1" d="M295.787,77.752c4.227-1.197,6.626-1.038,9.824-0.767l-3.269-2.83L295.787,77.752z"/>
<path fill="#D6CBC1" d="M110.197,265.676l0.917-6.957c1.394,8.411,0.86,14.488,2.131,7.96c-3.049-1.003-0.151-27.062-3.198-28.049
	l0.668-4.585c-0.037,1.314,0.143,1.525,0.104,2.826c1.516-8.917-2.17-6.645-1.667-18.142c0.258-4.005,0.718-6.8,1.064-4.064
	l-0.701-8.935c0.074-2.598,0.6-1.959,0.527,0.627l-0.164-13.622l0.09,0.102c-0.468-1.946-1.183-6.354-1.485-8.506
	c0.458-3.459,0.313,1.737,0.7,0.854l-0.695-7.546c0.81-3.069,1.542,3.186,1.397,8.395c3.092-7.024-0.734-6.261,1.141-21.451
	l0.345,7.124c1.761-4.582,1.166-10.143,2.295-18.187c-0.577,1.907-2.819,16.102-3.531,7.913c0.245-2.305,0.372-5.345-0.218-9.765
	c1.087-0.035,0.846-4.347,0.817-9.742l1.436,0.377c-0.38-5.836-1.115-5.379-1.744-8.814c0.182-6.5,1.304-7.841,2.252-9.366
	c0.291-10.408-1.83,7.179-2.029-5.146c0.603-8.655,0.052-14.738-0.749-25.101c0.532-6.057,0.875,1.065,1.299-1.105l-1.116-5.378
	c0.035-1.314,0.386-0.889,0.562-0.672c-0.208-2.265-0.567-2.36-0.918-2.78c-0.176-0.208-0.347-0.5-0.499-1.182
	c-0.077-0.342-0.146-0.781-0.208-1.358c-0.042-0.464-0.095-1.038-0.162-1.753c-0.692-0.605-0.319-2.791,0.163-4.615
	c1.803,0.31,3.504,0.665,4.949,0.817l0.273,0.026l0.141,0.012l0.259,0.01l1.033,0.027c0.688,0.01,1.371,0.004,2.046-0.022
	c1.349-0.053,2.663-0.188,3.901-0.436c2.167,0.418-1.052,0.877-0.392,1.438c12.09-1.13,10.364-0.815,20.292-2.364l8.448,0.981
	c-6.206-1.107,1.734-2.353,8.689-3.375c-2.202-0.531-4.082-0.995-5.344-1.219l11.095-0.727c1.339,0.242,0.22,0.732-1.6,1.326
	c0.756-0.116,1.475-0.231,2.034-0.337c3.962,0.548,1.904,1.37-0.941,2.162c-1.35-0.305-2.689-0.608-3.992-0.905
	c-2.743,0.863-5.31,1.821-4.742,2.666c0.722-0.163,2.11-0.3,3.636-0.374c-0.717,0.234-1.175,0.445-0.844,0.589
	c0.375,0.154,1.534-0.16,3.351-0.52l2.515,1.615l0.615-0.635l14.507,1.065c10.389-1.573,19.43-3.912,35.911-4.506
	c-4.094,1.159-0.886,1.919-1.115,3.311c-4.49-1.494-12.766,0.574-21.305,0.239c4.455,0.173,3.474,0.834,2.339,1.061l15.237-1.277
	c-0.349,1.138,3.232,0.867,7.208,1.355c-2.998-2.265,11.359-1.453,17.562-2.119c0.381,0.759-1.108,1.524-8.67,1.311
	c8.337,1.732,10.792-2.602,18.975-1.126c-1.848,0.013-2.842-0.108-3.574,0.272c4.315-0.654,14.857-0.077,12.374,0.57l-1.843,0.009
	c12.257,0.317,37.313,0.171,39.15-1.734c0.122,0.247-1.616,2.3-2.36,2.684l21.898-6.348c-1.934,1.635,5.447,5.581-4.723,6.466
	c2.917,0.247,6.527,0.536,12.683-0.02c-1.991-0.242-4.953-2.397-2.23-2.536c7.459,1.861,5.18,1.001,14.379,2.599
	c-2.984-0.366,0.343-2.93,5.058-2.827c-0.738,0.383,0.383,2.546-1.343,2.807l11.749-2.481c-2.932,0.443-0.526,2.143,2.097,2.868
	c-1.216-0.501,10.148,0.089,13.278-0.149l-4.973-0.607c13.251,0.437,13.107-3.503,26.253-3.316c-1.594,0.516-3.945,3.201,2.74,3.546
	c3.07-1.283,13.596-6.177,25.232-7.126l2.229,0.75l8.93-0.806c-5.568,1.927-21.182,5.965-29.703,7.526
	c4.957,0.607,1.377,0.879,8.805,0.844c2.621,0.705-4.053,1.035-6.238,1.067l17.291,0.521c-0.764-1.518,13.23-1.463,12.576-2.726
	l-18.789,1.489c-0.754-1.512,10.877-4.248,23.129-3.929c3.115,0.614-2.342,2.683-2.089,3.188c1.593-0.515,11.634-0.947,12.759-0.572
	l-5.203,0.786c6.82,0.598,11.142-1.958,19.333-0.48c2.827,0.108,8.438,1.982,8.931,1.091c-4.607-1.746-5.486-7.089-2.404-8.372
	c0.99,0.12,14.849,1.712,18.076,2.579c4.652,1.373-7.008,3.196-3.047,4.375c0.172-0.414,2.746-0.912,3.821-1.071
	c2.971,0.364-1.235,1.275,5.221,1.115c1.085-1.528,13.132,0.185,3.059-1.284c6.316-0.411,6.71,0.344,14.126,0.308
	c-2.357-1.001,6.672-3.344,13.002-3.756c-0.374,0.39,1.044,0.902,1.73,1.137c12.947,0.193,19.892,0.919,31.963,0.981
	c1.111,0.375,6.934,0.85,4.451,1.5c1.736-0.264,3.334-0.778,7.059-0.798c7.199,1.355-8.303,0.171-2.816,1.787
	c0.473-0.888,9.635-1.188,14.938-1.723c-1.624-1.384-12.25-0.315-17.563,0.218c-0.018-1.898,9.236-3.848,21.857-4.673
	c10.029-0.429,4.344,1.246,6.084,0.982c18.834,0.41,16.059-3.249,31.693-1.813c7.049,1.238-0.012,2.408,1.643,3.287
	c-8.17,0.423-12.538-0.82-18.074-0.794l6.814,0.601c-2.6,0.39-8.055,0.674-11.023,0.311c1.826,0.389,6.297,0.546,11.955,0.634
	c5.541,0.062,12.246,0.136,18.693,0.208c-0.049,2.695-0.114,5.332-0.207,7.756c-0.094,2.511-0.217,4.992-0.377,7.136
	c0.391,2.584,0.783,7.042,1.281,4.937l-0.141-4.598c1.002-4.221,1.297,8.66,1.787,2.844c0.648,6.171,1.686,13.091,1.082,21.771
	l-1.389,1.624c0.403-0.184,0.854-5.67,0.447-8.113c0.592,3.623-1.945,13.303-0.162,17.278l0.992-6.081
	c0.656,6.199,2.074,13.861,1.594,21.553c1.383-3.494-0.146-1.775,1.481-7.235c-2.011,4.729,0.202-19.683-1.928-12.08
	c1.884-5.601,0.843-9.706,2.462-17.033c-0.455,0.225-0.885,2.593-0.622-3.864c-0.13-0.292-0.296-0.982-0.392-1.421
	c0.016-0.198,0.021-0.267,0.037-0.436c-0.021,0.13-0.037,0.225-0.057,0.356c-0.066-0.281-0.08-0.307-0.018,0.132
	c-0.209,1.539-0.456,2.783-0.714,3.288c-1.024-3.213-0.931-13.485-1.45-16.961c0.24-3.832,0.513,1.606,1.01-0.484
	c0,0-0.049-0.324-0.122-0.812c-0.035-0.243-0.079-0.527-0.123-0.831c-0.023-0.162-0.048-0.329-0.071-0.5
	c-0.022-0.231-0.047-0.469-0.07-0.706c-0.191-1.819-0.383-3.636-0.383-3.636c0.51-0.5,0.952-4.49,1.334-6.943
	c0.381-2.396,0.701-3.182,0.951,4.203l0.07-7.382l-6.234-0.047c-1.925-0.149-4.113-0.281-6.426-0.383
	c-1.616-0.072-3.283-0.146-4.924-0.219c-2.752-0.085-5.412-0.047-7.441,0.158c-3.832-0.234-9.688,1.078-6.346,0.3l-12.748,0.574
	l-0.119-0.253c-12.574-0.18-25.895,1.565-40.266-0.319c-4.234,0.237-8.611,0.531-15.694,0.215l-1.376-0.88
	c-5.438,0.282-16.322-0.943-18.662-0.042c-5.855-2.376-26.381-0.623-35.939-1.08l-0.367,1.14c-6.58-0.092-12.891,0.205-21.063,0.629
	l0.498,1.011c-7.047,0.798-18.104-0.794-29.244-0.736c0.76-0.383,3.584-0.27,5.584-0.028c-13.301-2.335-28.088,1.541-40.152-0.17
	c-3.008,0.354-5.186,0.221-7.295-0.043c0.281-0.001,0.531-0.018,0.747-0.049c-0.308-0.014-0.765-0.019-1.235-0.017
	c-1.328-0.18-2.693-0.387-4.176-0.555c1.26,0.25,2.465,0.457,3.514,0.555c-2.32,0.012-5.838,0.122-9.288,0.36l-1.465-1.089
	c-0.28,0.009-0.507,0.017-0.798,0.027c-3.383-0.413-2.723,0.502-0.922,1.324c-1.736,0.171-3.328,0.379-4.563,0.635
	c-2.742-1.76-9.051,0.552-12.796-1.329c-2.327,0.899-17.34,0.611-19.185,2.517c-0.116-0.25-1.132-0.371,0.73-0.38
	c-3.844-0.234-7.686-0.468-11.136,0.056l-1.626-1.383l-8.402,1.816c-5.096-0.861-7.209-1.356-2.141-2.396
	c-12.235,1.579-9.924,0.573-20.33,2.145l0.512-0.888c-3.718,0.018-9.664,1.187-11.903,0.441c-8.308-1.727-41.143-0.405-62.48-2.068
	c4.128,2.641-9.917-1.215-10.77,0.813c-1.241-0.625-4.213-0.987-0.755-1.512c-10.896,0.563-16.362-1.053-23.89,0.63
	c-1.244-0.628,2.336-0.9,1.228-1.274c-0.875,0.131-3.463,0.525-4.595,0.151c-1.107-0.375,1.597-0.515,3.323-0.778
	c-11.127,0.058-12.261,1.965-13.078,3.756c-5.635-0.873-8.448-0.764-12.526,0.395c-1.961-0.594-5.231-1.222,1.683-1.404
	c-3.89-0.102-23.757-0.96-24.16,0.478c-1.217-0.37-5.436-0.131-6.462,0.032c-4.363-0.078-6.736-0.12-9.092-0.161
	c-1.392-0.011-2.779-0.02-4.451-0.032c-1.898,0.008-4.122,0.017-7.001,0.028l3.327,0.248c-1.242,0.612-2.531,0.833-4.224,0.873
	c0.032,1.598-0.083,3.226-0.197,5.235c-0.056,1-0.111,2.092-0.146,3.288c-0.012,0.601-0.022,1.223-0.035,1.87
	c0.005,0.527,0.008,1.072,0.013,1.64l-0.177-0.199c-1.345,15.834,0.559,6.844-0.962,22.464l1.083-0.844
	c2.313,1.471-1.451,13.84-0.617,22.916l0.636-3.271c0.766,4.959-3.239,13.829-3.559,18.803c-0.207,1.083-0.314-1.715-0.454-3.229
	c-1.447,13.016,1.404,1.696,1.675,11.404c-0.774,1.786-1.926-2.319-2.106,4.213c-0.637,3.251,2.361,18.964,0.846,27.869
	c0.599-1.961,1.198-3.907,1.613,0.604c0.168,6.912-2.333,18.668-0.518,24.92c-0.167,0.878-0.322,1.209-0.468,1.245
	c0.446,5.285,0.691,17.171,1.677,20.359c-3.758,4.86,1.616,32.851-1.82,32.712l0.088,16.25l-0.35-0.427
	c-0.289,10.386,0.513,14.062,1.316,17.718c-0.249,2.4-0.558,0.645-0.736,0.445c-0.784,15.17-0.647,16.682,0.989,29.414l-1.123,1.316
	c0.626,3.454-1.88,21.93-0.668,36.822c-0.125-0.146-0.34-0.456-0.49-1.641c0.35,4.844,0.218,10.236-0.047,15.604
	c-0.073,1.34-0.146,2.682-0.219,4.012c-0.041,0.665-0.079,1.327-0.118,1.984l-0.061,1.115l-0.063,1.541
	c-0.165,4.107-0.323,8.234-0.426,12.145c2.745,0.072,5.423,0.111,7.939,0.11c1.26-0.013,2.474-0.028,3.64-0.041
	c0.579-0.017,1.146-0.034,1.702-0.048c0.27-0.012,0.537-0.023,0.8-0.034c0.167-0.013,0.332-0.026,0.495-0.04
	c2.603-0.224,4.664-0.695,5.961-1.548l11.055-0.954c-14.295-0.375,2.138-1.752-3.741-2.453c5.623-0.215,14.531,1.286,7.62,1.467
	l-1.079-0.21c-2.548,2.108,17.762,0.825,17.371,2.267c28.134,0.013,55.548,1.299,81.9,1.498l-3.028-1.658l9.191,0.133
	c2.411,0.393,3.233,1.301-3.325,1.205c3.445,0.947,11.001-0.734,11.189-1.092c12.837,0.719-5.022,1.898-1.084,1.953l5.348-0.1
	l-1.205-0.198c4.337-0.653,4.725-1.365,12.606-1.251c4.985,0.35,2.554,1.025,4.517,1.099c-0.011,0.116,0.651,0.173,3.012,0.059
	l11.579,0.188l-4.625-1.318c5.136-0.619,10.889,0.113,5.553-1.381c7.834,2.303,43.195,0.994,48.009,1.719
	c7.193-0.916,14.289-0.869,23.08-0.721c-2.186-0.277-3.487-1.746,4.094-1.535c-2.784,3.004,13.877,1.367,19.999,3.561
	c-5.471-1.459,21.557-0.264,12.972-2.342c6.327,0.27,0.381,1.129,5.177,1.859c15.063-1.105,33.182,0.896,51.797,0.58
	c0.291-0.394-2.822-1.012,1.172-1.584l9.82,2.02c3.676-0.182,3.393-2.271,10.104-0.869c-0.947-0.335-2.359-0.846,0.105-0.961
	c36.455,2.08,74.515-1.268,111.529,2.51c-5.012-0.789-1.67-0.852,2.162-0.864c-2.49-0.193,0.061-0.976-0.426-1.515l15.494,1.555
	c2.832-1.479,16.623-0.031,18.246-1.449l-4.909,0.236c6.536-1.652-9.122-3.771-8.156-5.923c-7.318,1.88-19.265-2.907-31.271-0.226
	c-2.646-0.448,2.262-0.683,0.848-1.189c-3.045,0.911-6.717,1.088-13.52,0.646l0.771-0.227c-19.115,0.145-27.309-0.799-48.779-1.494
	l1.586,1.072c-4.615-0.162-5.584-0.5-7.744-0.777c-5.301,1.596,12.96,0.145,8.127,1.907c-6.109-2.192-32.541-0.169-36.666-2.649
	c-7.1-0.045,2.076,1.243-5.021,1.199l-1.878-0.676l-1.798,0.852c-4.654-0.16-6.997-1.004-7.17-1.57
	c1.128,0.072,3.211-0.143,4.422-0.188c-6.033-0.809-17.02,0.197-19.09-0.066l6.818,0.439c-19.375,0.541-43.027-0.432-61.75,0.846
	l1.42,0.51c-14.297,0.871-11.447-0.602-27.141-0.234l0.57-0.117c-3.142,0.486-7.338,0.721-11.632,0.646
	c3.966-0.573-7.451-1.176-2.25-1.805c-15.502,0.934-7.669,0.752-17.914,2.579l-2.358-0.844c-3.49,0.741-3.784,1.137-11.624,1.321
	c6.431-0.689-4.995-1.295,2.208-2.211c-16.438-1.894-24.428,1.74-31.962-0.959c-7.562,2.277,14.227,1.342,9.995,1.818
	c3.538,0.77-6.241,1.699-11.401,1.447c-5.255-0.072-8.921-2.99-22.137-3.002c1.314,0.015,1.404-0.158,2.716-0.143
	c-4.944-0.609-9.695,0.758-15.757-0.227c-3.406,1.383-7.877-0.111-8.864,1.664l12.125-0.36c-6.874,0.438-13.329,2.495-24.646,1.437
	c0.884-0.355,4.255-0.814,6.57-1.067c-3.309-0.54-6.377,0.322-9.807-0.233c0.986-1.779,14.735-0.326,22.104-1.652
	c-3.551-0.769-13.935,1.23-10.226-0.684c-5.329,2.432-13.021-0.363-21.979,1.471l0.595-1.064c-1.417,0.164-4.354,0.654-6.959,0.617
	l4.725-1.363c-7.25,1.148-13.964-1.094-20.918-0.479c14.552,0.027,3.262,1.299,9.412,2.104c-17.954,1.355-10.31-2.834-30.407-2.406
	c2.722-0.139,10.21,0.684,5.953,1.16c-3.824-0.234-8.875-0.666-11.22-1.236c-13.313,0.168,2.04,1.107-3.63,1.74
	c-4.527-1.322-6.539,0.502-12.377,0.893l-0.037-1.086c-15.168-0.76-4.03,2.246-17.686,1.35l5.778-1.482l-7.122,0.359l1.474-1.229
	c-7.75,0.884-10.161,0.638-17.75,0.26c0.881,0.385,0.63,0.876-0.68,1.271c-0.655,0.199-1.575,0.371-2.751,0.496
	c-0.572,0.064-1.279,0.113-1.917,0.148c-0.43,0.035-0.906,0.057-1.417,0.059c-1.23-0.318-0.729-0.568-0.656-0.727
	c0.087-0.158-0.091-0.227-2.253-0.176c0-0.063-0.005-0.193-0.009-0.334c0.07,0.047,0.144,0.09,0.217,0.132
	c0.791-0.308,1.479-0.606,2.053-0.716c0.589-0.11,1.031-0.034,1.802,0.417c0.141-0.176,0.206-0.347,0.868-0.515
	c0.533-0.168,1.067-0.334,1.286-0.508c-0.381-0.059-0.779-0.108-1.187-0.154c-0.205-0.019-0.413-0.041-0.623-0.063l-0.197-0.049
	c-0.251-0.059-0.496-0.095-0.749-0.111c-0.499-0.036-1.033-0.001-1.586,0.049c-0.061-0.548-0.143-1.081-0.144-1.488
	c-0.043,0.425-0.105,0.953-0.262,1.354c0,0-0.371-0.823-0.739-2.312c-0.355-3.399-0.71-6.798-0.71-6.798
	c0.42-2.172,0.736-0.445,1.048,1.266c-0.101-2.799-0.588-4.734-0.657-8.848c0.875,1.07,1.788,0.82,2.168,6.643l-0.9-13.162
	c0.387-0.877,1.093-6.746,1.409-5.037c0.563-7.289-1.604-17.898-0.864-27.566c-0.167-0.5-0.326-1.512-0.439-3.568
	c0.254-9.086,1.384-17.131,0.239-27.91l1.619-6.102c-0.31-8.438-2.042,8.262-2.555-5.789c-0.445-9.947,1.371-3.704,1.833-7.189
	c-0.77-4.951-2.34-13.559-0.999-22.686C110.343,260.479,110.095,262.85,110.197,265.676 M110.115,161.631
	c0.217,2.017,0.895,6.042,0.246,7.512C109.131,166.838,109.737,165.066,110.115,161.631 M173.972,74.294
	c-1.501,0.354-3.817,0.166-6.432-0.256C169.439,73.957,171.589,74.006,173.972,74.294 M614.582,68.573
	c-0.086,0.018-0.145,0.03-0.215,0.052C609.873,68.184,611.467,68.357,614.582,68.573 M628.338,69.101
	c0.717-0.064,1.131-0.13,1.234-0.197c0.029,0.108,0.059,0.091,0.09-0.088c0.012,0.03,0.086-0.061,0.048-0.08
	c-0.03-0.027-0.101-0.055-0.187-0.083c-1.325,0.271-4.582,0.275-8.316,0.183C622.17,69.123,623.827,69.327,628.338,69.101
	 M267.344,397.818l-1.817-0.292C269.633,397.231,268.482,397.508,267.344,397.818"/>
<path fill="#D6CBC1" d="M156.033,75.705c-0.57-0.186-0.728-0.388-0.86-0.594C154.38,75.291,154.362,75.502,156.033,75.705"/>
<path fill="#D6CBC1" d="M110.38,330.383l-0.014,0.314c0.062,0.176,0.127,0.268,0.193,0.322L110.38,330.383z"/>
<path fill="#D6CBC1" d="M479.229,77.683c-1.921-0.163-2.993-0.368-3.704-0.576C475.42,77.374,476.293,77.601,479.229,77.683"/>
<path fill="#D6CBC1" d="M630.892,122.72l-0.246-5.983c0.036,2.893-0.207,3.924-0.389,5.385
	C630.512,121.991,630.885,120.851,630.892,122.72"/>
<path fill="#D6CBC1" d="M623.865,174.599c0.129,0.875,0.006,1.854,0.135,2.717l0.506-0.236
	C624.494,173.356,624.103,170.751,623.865,174.599"/>
<path fill="#D6CBC1" d="M627.254,128.238c-0.918,0.469-0.629,4.222-0.484,8.413c-0.002-0.252-0.01-0.492,0.006-0.741
	C628.045,137.152,627.646,132.684,627.254,128.238"/>
<path fill="#D6CBC1" d="M626.793,137.623c0.035,1.291,0.053,2.609,0,3.874C627.302,141.99,626.91,139.927,626.793,137.623"/>
<path fill="#D6CBC1" d="M629.879,85.074c-0.246,1.985,1.16,1.254,0.781,2.376c0.574,1.113,0.242-2.201-0.166-4.433
	c-0.025-0.14-0.051-0.274-0.076-0.405c-0.027-0.212-0.053-0.416-0.076-0.608c-0.051-0.389-0.102-0.728-0.15-1
	c-0.096-0.545-0.186-0.826-0.256-0.722c-0.067,0.104-0.115,0.59-0.133,1.589c-0.002,0.236-0.004,0.502-0.005,0.802
	c0.003,0.197,0.007,0.417,0.011,0.659C629.828,83.818,629.851,84.395,629.879,85.074"/>
<polygon fill="#D6CBC1" points="624.224,131.612 625.361,130.117 624.469,127.762 "/>
<path fill="#D6CBC1" d="M625.25,98.533l-0.354,6.693c0.191-0.099,0.297,0.751,0.373,1.797
	C625.333,102.898,625.584,98.378,625.25,98.533"/>
<path fill="#D6CBC1" d="M625.271,107.023c-0.035,2.147-0.023,4.192,0.154,5.39C625.421,111.25,625.398,108.747,625.271,107.023"/>
<polygon fill="#D6CBC1" points="623.941,122.458 624.187,120.479 624.297,115.753 "/>
<path fill="#D6CBC1" d="M577.263,72.615l-7.308,0.293c-0.745,0.383,1.243,0.628,3.966,0.485
	C575.672,73.131,578.385,72.992,577.263,72.615"/>
<path fill="#D6CBC1" d="M599.349,75.794c-1.975-0.241-2.107-0.493-3.221-0.87l-0.227,1.396L599.349,75.794z"/>
<path fill="#D6CBC1" d="M578.039,76.031c-0.729,0.385-10.608,1.069-1.348,1.02C577.435,76.669,584.754,76.378,578.039,76.031"/>
<polygon fill="#D6CBC1" points="467.947,73.805 469.807,73.794 469.549,71.502 "/>
<path fill="#D6CBC1" d="M370.888,78.883c8.654,0.585,2.063-1.406,9.883-0.688c2.035-0.533-6.393-0.586-4.307-1.045
	C371.235,77.699,368.496,77.365,370.888,78.883"/>
<path fill="#D6CBC1" d="M376.465,77.149c0.838-0.086,1.725-0.191,2.67-0.337C377.619,76.949,376.906,77.056,376.465,77.149"/>
<polygon fill="#D6CBC1" points="607.281,400.397 612.849,400.899 609.258,400.112 "/>
<path fill="#D6CBC1" d="M617.976,398.742l1.307,1.465l3.349-1.307C621.375,398.959,618.931,399.076,617.976,398.742"/>
<path fill="#D6CBC1" d="M113.149,146.181l-0.349-0.426c-0.386,0.86-0.422,2.162-0.497,4.774L113.149,146.181z"/>
<polygon fill="#D6CBC1" points="111.606,221.688 111.644,220.388 110.308,222.809 "/>
<path fill="#D6CBC1" d="M112.912,285.074c0.069-2.587-0.206-5.631-0.136-8.227C112.982,282.488,111.262,285.764,112.912,285.074"/>
<rect x="101.297" y="71.398" fill="#EDE3D9" width="254.926" height="318.892"/>
<path fill="#EDE3D9" d="M361.701,388.949c-0.082,1.693,0.861,1.086,1.029,1.34C362.522,387.455,361.456,389.02,361.701,388.949"/>
<polygon fill="#EDE3D9" points="359.562,360.979 359.947,361.475 359.004,357.35 "/>
<path fill="#EDE3D9" d="M359.578,334.824c-1.606,2.473,0.26,9.477-0.312,14.138l-0.366,0.767l1.292,2.104
	C359.989,346.168,359.131,338.813,359.578,334.824"/>
<path fill="#EDE3D9" d="M363.052,320.878c-0.625,0.861-0.539-3.015-0.196,3.253c0.068-0.314,0.108-0.406,0.158-0.59
	C363.006,322.977,363.008,322.199,363.052,320.878"/>
<path fill="#EDE3D9" d="M363.015,323.541C363.061,326.297,363.541,321.74,363.015,323.541"/>
<path fill="#EDE3D9" d="M362.657,310.821l0.559,3.627c0.368-0.756,0.452-3.986,0.721-2.787
	C363.631,307.94,363.263,308.705,362.657,310.821"/>
<path fill="#EDE3D9" d="M361.485,307.381l0.237,1.881C361.877,308.932,361.93,308.434,361.485,307.381"/>
<path fill="#EDE3D9" d="M362.22,313.248l-0.499-3.986c-0.26,0.524-0.781,0.58,0.18,1.83
	C361.426,310.765,361.883,311.555,362.22,313.248"/>
<path fill="#EDE3D9" d="M361.975,315.506c-0.349,2.035-0.569,4.664-1.125,1.021C361.072,323.469,362.2,322.446,361.975,315.506"/>
<path fill="#EDE3D9" d="M357.917,333.489l-0.47,2.721l0.538,2.355C357.719,337.387,358.421,333.321,357.917,333.489"/>
<path fill="#EDE3D9" d="M363.489,288.219c-0.342-0.227-0.911,1.219-1.348,1.492l0.391,2.679
	C362.767,291.012,362.983,288.401,363.489,288.219"/>
<path fill="#EDE3D9" d="M362.141,289.711l-0.588-4.012C361.485,289.281,361.764,289.936,362.141,289.711"/>
<polygon fill="#EDE3D9" points="359.701,306.735 360.935,313.321 359.686,305.465 "/>
<polygon fill="#EDE3D9" points="363.532,272.906 364.322,275.178 363.128,271.129 "/>
<path fill="#EDE3D9" d="M363.393,262.747c0.656,1.682,1.109-2.308,1.513-0.528c-0.119-2.759-0.682-5.115-1.186-7.236
	C364.002,257.237,363.93,259.639,363.393,262.747"/>
<path fill="#EDE3D9" d="M362.982,251.42c0.158,1.125,0.439,2.293,0.738,3.563C363.569,253.785,363.351,252.608,362.982,251.42"/>
<path fill="#EDE3D9" d="M361.724,278.869c0.207-0.311,0.747-0.905,0.976-3.155l-0.961,1.576
	C361.734,277.772,361.728,278.317,361.724,278.869"/>
<path fill="#EDE3D9" d="M361.707,277.346l0.03-0.055c0.028-1.711,0.047-2.898,0.055-3.406
	C361.781,274.321,361.755,275.363,361.707,277.346"/>
<path fill="#EDE3D9" d="M361.719,279.268c0-0.146,0.002-0.254,0.004-0.396C361.629,279.024,361.598,279.114,361.719,279.268"/>
<path fill="#EDE3D9" d="M360.572,296.223c-0.537-2.355-1.114-7.268-1.934-2.514C359.297,295.399,359.763,292.678,360.572,296.223"/>
<path fill="#EDE3D9" d="M360.517,281.225l-0.219,4.26c0.253-0.084,0.623-0.852,0.891,0.314L360.517,281.225z"/>
<polygon fill="#EDE3D9" points="360.212,279.141 360.517,281.225 360.599,279.647 "/>
<path fill="#EDE3D9" d="M362.083,258.716c-0.418-1.84-0.453-3.853-0.52-6.126c-0.189,2.438-0.292,4.955-0.289,7.348
	C361.575,260.276,362.116,261.326,362.083,258.716"/>
<path fill="#EDE3D9" d="M361.816,267.769c-0.018-0.128-0.04-0.29-0.055-0.409C361.679,267.612,361.654,267.813,361.816,267.769"/>
<path fill="#EDE3D9" d="M361.569,230.21c-0.061,0.124-0.113,0.233-0.174,0.358c0.056,0.029,0.11,0.048,0.167,0.085L361.569,230.21z"
	/>
<path fill="#EDE3D9" d="M361.094,260.346c-0.186,1.833,0.049,2.928,0.347,3.971c-0.097-1.37-0.16-2.822-0.168-4.379
	C361.136,259.787,361.046,259.756,361.094,260.346"/>
<path fill="#EDE3D9" d="M362.533,245.176c-0.202,0.953-0.372,2.035-0.529,3.172C362.31,247.416,362.784,245.515,362.533,245.176"/>
<path fill="#EDE3D9" d="M362.027,266.743c0.015,0.093,0.033,0.173,0.042,0.274C362.277,266.416,362.176,266.491,362.027,266.743"/>
<path fill="#EDE3D9" d="M362.027,266.743c-0.139-0.943-0.375-1.683-0.586-2.429c0.075,1.116,0.179,2.148,0.32,3.047
	C361.828,267.133,361.933,266.907,362.027,266.743"/>
<path fill="#EDE3D9" d="M355.397,223.43c0.891,0.322,1.714,5.137,0.759,9.292c0.668,4.091,3.599,1.418,5.238-2.155
	c-0.389-0.126-0.749-0.126-1.274-4.336c-0.486,1.475-1.138,9.339-1.945,5.789c-0.458-5.576,0.315-4.568,0.786-7.279
	c-1.109,2.304-1.616-7.094-3.248-5.879l0.574,4.889C356.033,223.844,355.629,222.072,355.397,223.43"/>
<path fill="#EDE3D9" d="M361.303,238.588l0.11,1.732c0.154-1.975,0.512-3.389,1.209-5.99c-0.435-2.881-0.766-3.48-1.062-3.678
	l-0.125,8.529L361.303,238.588z"/>
<path fill="#EDE3D9" d="M361.417,248.098c-0.97-1.353-1.383-5.513-2.432-2.965c0.065,5.082,0.811,3.561,1.231,6.598
	c-0.24-8.202,0.539,2.355,1.088-3.57c0.166,1.611,0.216,3.062,0.257,4.43c0.117-1.477,0.264-2.9,0.442-4.24
	c-0.024,0.074-0.04,0.125-0.059,0.188l0.003,0.037c-0.006,0-0.009-0.007-0.015-0.007c-0.121,0.354-0.195,0.47-0.124,0.07
	c-0.013-0.026-0.018-0.128-0.021-0.17c-0.135-0.058-0.253-0.208-0.366-0.37c0.201-2.377,0.252-0.374,0.366,0.37
	c0.047,0.026,0.092,0.091,0.144,0.1c0.006-0.009,0.01-0.021,0.013-0.03l-0.533-8.217
	C361.279,242.061,361.305,244.237,361.417,248.098"/>
<path fill="#EDE3D9" d="M356.553,289.324c0.086-0.254,0.156-0.242,0.226-0.262C356.66,288.531,356.578,288.33,356.553,289.324"/>
<path fill="#EDE3D9" d="M357.139,285.946c0.135,0.6,0.523,1.096,0.423,3.037c-0.292,1.686-0.465-0.01-0.782,0.08
	c0.256,1.171,0.694,4.098,1.166,0.424l-0.131-0.58c0.332-3.305,1.543-7.557,1.675-6.979
	C358.617,282.895,357.995,283.746,357.139,285.946"/>
<path fill="#EDE3D9" d="M359.031,266.784l-0.475-6.841l-0.839,3.484l0.504-0.177C358.022,267.142,358.643,266.301,359.031,266.784"
	/>
<polygon fill="#EDE3D9" points="362.051,229.427 363.074,230.334 361.629,226.383 "/>
<polygon fill="#EDE3D9" points="361.927,220.536 362.819,220.865 362.282,218.519 "/>
<path fill="#EDE3D9" d="M106.642,169.048l0.253,2.011C106.816,170.105,106.732,169.495,106.642,169.048"/>
<path fill="#EDE3D9" d="M106.702,154.493l-0.439-0.356C106.506,154.81,106.682,155.087,106.702,154.493"/>
<path fill="#EDE3D9" d="M287.007,65.793c-2.929-0.831-6.2-2.121-5.846-1.119l0.898,0.975
	C284.106,65.475,285.675,65.584,287.007,65.793"/>
<path fill="#EDE3D9" d="M137.464,71.622c0.279,0.097,0.568,0.197,0.857,0.297c0.71-0.336,1.38-0.651,1.978-0.934
	C139.447,71.177,138.479,71.395,137.464,71.622"/>
<path fill="#EDE3D9" d="M135.398,75.662l-3.86-0.63C132.405,75.253,133.646,75.462,135.398,75.662"/>
<path fill="#EDE3D9" d="M107.677,248.533l0.994,2.348C108.665,247.211,108.165,248.826,107.677,248.533"/>
<path fill="#EDE3D9" d="M361.569,129.477c0.381-2.527,0.541-4.537,0.588-6.304C361.596,126.218,360.756,128.674,361.569,129.477"/>
<path fill="#EDE3D9" d="M96.283,163.32c0.176,1.23,0.375,1.757,0.593,1.719C96.709,163.774,96.522,163.056,96.283,163.32"/>
<path fill="#EDE3D9" d="M362.155,115.875c-0.098,0.445-0.147,0.882-0.23,1.335c0.164,1.848,0.296,3.706,0.234,5.964
	C362.575,120.926,362.833,118.349,362.155,115.875"/>
<path fill="#EDE3D9" d="M247.821,384.721c0.209,0.043,0.463,0.065,0.652,0.117C248.536,384.703,248.247,384.698,247.821,384.721"/>
<path fill="#EDE3D9" d="M331.806,394.569c-0.828,0.063-2.176,0.064-3.449,0.076C328.977,394.713,330.017,394.703,331.806,394.569"/>
<path fill="#EDE3D9" d="M362.354,184.763C362.418,186.649,362.462,185.063,362.354,184.763"/>
<path fill="#EDE3D9" d="M358.494,193.934c-0.11-0.401-0.25-0.706-0.475-0.754C358.254,193.336,358.404,193.598,358.494,193.934"/>
<path fill="#EDE3D9" d="M356.078,97.093c0.001-0.056,0.002-0.101,0.003-0.163C355.891,97.49,355.927,97.395,356.078,97.093"/>
<path fill="#EDE3D9" d="M361.91,187.601c0.121-0.708,0.219-1.523,0.29-2.412C362.125,185.58,362.031,186.312,361.91,187.601"/>
<path fill="#EDE3D9" d="M362.372,187.219c-0.038,0.65-0.067,1.161-0.095,1.647C362.44,189.104,362.541,188.895,362.372,187.219"/>
<path fill="#EDE3D9" d="M362.301,182.137c0.016,1.079-0.031,2.084-0.101,3.052c0.066-0.37,0.122-0.526,0.155-0.424
	C362.344,184.211,362.327,183.431,362.301,182.137"/>
<path fill="#EDE3D9" d="M104.256,382.1c-0.03,0.084-0.05,0.182-0.092,0.277C104.569,383.541,104.505,383.018,104.256,382.1"/>
<path fill="#EDE3D9" d="M237.93,75.931c0.089-0.01,0.136-0.035,0.215-0.048c-0.088-0.011-0.199-0.024-0.278-0.033L237.93,75.931z"/>
<path fill="#EDE3D9" d="M231.158,76.658c2.883-1.214,4.523-1.065,6.709-0.809l-2.24-2.814L231.158,76.658z"/>
<path fill="#EDE3D9" d="M106.922,203.896l0.878-4.756c1.443,5.74,0.946,9.894,2.179,5.429c-3.057-0.672-0.313-18.486-3.365-19.149
	l0.642-3.135c-0.029,0.898,0.15,1.043,0.12,1.931c1.463-6.098-2.209-4.531-1.774-12.386c0.234-2.739,0.677-4.649,1.039-2.782
	l-0.754-6.102c0.058-1.773,0.589-1.341,0.53,0.426l-0.244-9.305l0.09,0.069c-0.479-1.328-1.219-4.335-1.536-5.805
	c0.439-2.364,0.325,1.186,0.705,0.58l-0.739-5.152c0.792-2.099,1.561,2.172,1.447,5.731c3.051-4.813-0.769-4.275,1.013-14.66
	l0.387,4.866c1.734-3.137,1.106-6.934,2.188-12.435c-0.565,1.305-2.724,11.012-3.486,5.419c0.231-1.575,0.34-3.652-0.275-6.669
	c1.087-0.028,0.82-2.973,0.76-6.659l1.438,0.25c-0.416-3.984-1.148-3.669-1.797-6.014c0.141-4.442,1.257-5.362,2.197-6.409
	c0.229-7.111-1.787,4.913-2.059-3.506c0.551-5.917-0.038-10.069-0.899-17.146c0.497-4.14,0.881,0.725,1.293-0.76l-1.147-3.671
	c0.027-0.899,0.38-0.609,0.558-0.462c-0.11-0.771-0.257-1.175-0.418-1.42c-0.081-0.141-0.166-0.176-0.253-0.207
	c-0.091-0.038-0.171-0.071-0.264-0.109c-0.353-0.171-0.7-0.456-0.894-2.076c-0.696-0.631-0.336-2.013,0.136-3.11
	c1.328,0.303,2.603,0.65,3.637,0.796c0.523,0.074,1.003,0.095,1.48,0.038c0.144-0.03,0.709-0.081,1.135-0.153
	c0.446-0.075,0.882-0.174,1.303-0.3c1.482,0.409-0.716,0.882-0.262,1.439c8.253-1.182,7.076-0.857,13.854-2.448l5.774,0.945
	c-4.243-1.082,1.177-2.359,5.926-3.41c-1.505-0.522-2.791-0.979-3.654-1.196l7.579-0.772c0.915,0.236,0.152,0.73-1.09,1.332
	c0.516-0.119,1.006-0.236,1.389-0.346c2.709,0.533,1.304,1.362-0.637,2.167c-0.923-0.284-1.839-0.587-2.73-0.888
	c-1.872,0.874-3.624,1.842-3.233,2.684c0.493-0.165,1.439-0.309,2.484-0.388c-0.489,0.237-0.803,0.448-0.576,0.593
	c0.258,0.152,1.049-0.167,2.288-0.533l1.722,1.603l0.418-0.636l9.914,1.002c7.093-1.614,13.263-3.991,24.521-4.654
	c-2.794,1.177-0.6,1.922-0.752,3.315c-3.072-1.474-8.719,0.627-14.554,0.328c3.045,0.155,2.375,0.82,1.6,1.052l10.406-1.343
	c-0.234,1.141,2.211,0.855,4.929,1.326c-2.054-2.253,7.756-1.5,11.991-2.19c0.264,0.757-0.752,1.528-5.918,1.346
	c5.699,1.697,7.363-2.646,12.958-1.205c-1.262,0.018-1.942-0.098-2.44,0.287c2.946-0.673,10.15-0.14,8.455,0.519l-1.258,0.015
	c8.374,0.267,25.491,0.018,26.741-1.896c0.084,0.246-1.096,2.305-1.603,2.693l14.941-6.439c-1.316,1.643,3.736,5.558-3.208,6.486
	c1.994,0.234,4.46,0.508,8.663-0.072c-1.359-0.233-3.389-2.377-1.531-2.527c5.103,1.831,3.542,0.98,9.831,2.538
	c-2.039-0.352,0.227-2.929,3.448-2.847c-0.503,0.386,0.269,2.545-0.909,2.813l8.019-2.53c-2.001,0.455-0.353,2.145,1.441,2.86
	c-0.833-0.495,6.933,0.046,9.071-0.205l-3.399-0.585c9.054,0.383,8.944-3.559,17.924-3.425c-1.087,0.523-2.685,3.217,1.884,3.536
	c2.093-1.297,9.27-6.234,17.217-7.232l1.524,0.74l6.098-0.844c-3.797,1.951-14.451,6.053-20.271,7.65
	c3.388,0.587,0.943,0.874,6.018,0.808c1.792,0.693-2.766,1.053-4.259,1.093l11.813,0.449c-0.525-1.514,9.035-1.517,8.583-2.778
	l-12.831,1.569c-0.521-1.51,7.419-4.295,15.789-4.027c2.13,0.602-1.592,2.692-1.417,3.196c1.085-0.521,7.945-0.993,8.713-0.624
	l-3.551,0.807c4.66,0.57,7.605-2.004,13.206-0.561c1.932,0.097,5.772,1.949,6.105,1.053c-3.153-1.726-3.769-7.064-1.668-8.363
	c0.17,0.03,0.888,0.15,1.907,0.321c0.509,0.089,1.093,0.189,1.719,0.299c0.755,0.114,1.563,0.233,2.385,0.356
	c3.313,0.505,6.135,1.102,6.854,1.528c0.076,0.05,0.132,0.101,0.071,0.151c-0.42,1.268-0.881,1.408-1.353,1.352
	c-1.056,0.518-2.331,1.047-3.143,1.543c-0.831,0.495-1.223,0.958-1.005,1.342c0.305-0.367,1.542-0.813,2.286-1.021
	c0.026,0.082,0.046,0.122,0.064,0.159c-0.176,0.854-0.498,0.973-0.75,1.25c-0.253,0.278-0.437,0.628-0.344,1.779
	c0.766-0.239,0.733,1.28,0.688,2.091c-0.023,0.4-0.05,0.682,0.018,0.548c0.07-0.129,0.233-0.58,0.589-1.887
	c0.111,0.725,0.145,1.327,0.138,1.837c-0.009,0.667-0.06,1.296-0.123,1.907c-0.125,1.24-0.297,2.575-0.264,5.108
	c0.992-1.613,3.374,4.548,3.811,8.87c-0.389-0.254-0.897,0.717-1.13,1.186c-0.138,8.845-0.835,13.592-0.848,21.838
	c-0.372,0.761-0.82,4.74-1.48,3.046c0.271,1.186,0.791,2.276,0.828,4.82c-1.325,4.922-0.206-5.672-1.799-1.919
	c0.891,0.32,1.228,6.579,1.787,10.202c1.376-1.115,0.263-8.372-0.293-11.998c1.898-0.019,3.887,6.298,4.765,14.918
	c0.471,6.85-1.227,2.97-0.956,4.159c-0.331,12.868,3.314,10.962,1.946,21.647c-1.21,4.239-2.408,0.191-3.28,1.132
	c-0.458-5.581,0.769-8.568,0.72-12.351l-0.573,4.656c-0.403-1.775-0.707-5.5-0.356-7.531c-1.087,3.554-0.209,21.74-1.213,31.667
	c0.407,1.764,0.826,4.808,1.312,3.368l-0.169-3.141c0.976-2.888,1.35,5.912,1.804,1.935c0.686,4.213,1.764,8.938,1.213,14.87
	l-1.38,1.115c0.403-0.126,0.822-3.877,0.402-5.546c0.61,2.473-1.867,9.097-0.061,11.804l0.955-4.158
	c0.694,4.232,2.158,9.461,1.724,14.717c1.361-2.391-0.156-1.211,1.438-4.947c-1.983,3.238,0.083-13.449-2-8.246
	c1.849-3.834,0.783-6.635,2.361-11.646c-0.454,0.155-0.87,1.775-0.646-2.638c-0.133-0.2-0.302-0.67-0.4-0.969
	c0.015-0.134,0.02-0.183,0.033-0.298c-0.019,0.088-0.033,0.154-0.054,0.243c-0.069-0.191-0.082-0.208-0.019,0.091
	c-0.198,1.051-0.437,1.903-0.691,2.248c-1.045-2.19-1.011-9.208-1.552-11.582c0.217-2.619,0.521,1.096,1.008-0.334l-0.809-3.545
	c1.011-0.351,1.679-6.956,2.272-0.789l0.045-5.553c0.566-3.268,0.793-7.765,0.367-10.537c0.218-2.619-1.119-6.615-0.328-4.335
	l-0.626-8.707l0.253-0.082c0.127-8.592-1.674-17.687,0.151-27.51c-0.255-2.892-0.567-5.882-0.281-10.72l0.875-0.943
	c-0.306-3.713,0.874-11.153-0.035-12.749c1.01-1.722,1.247-5.294,1.222-9.324c-0.055-2.785-0.114-5.729-0.171-8.59
	c-0.081-3.792-0.162-7.397-0.182-10.614c-2.151,0.012-4.07-0.002-5.711-0.061l-1.145,1.141c-1.896-0.016-3.795-0.008-5.705,0.02
	c-0.951,0.02-1.908,0.039-2.875,0.058c-0.336,0.013-0.672,0.026-1.013,0.039c-0.288,0.015-0.578,0.031-0.871,0.046
	c-2.338,0.131-4.811,0.326-7.601,0.556l0.343,1.008c-4.811,0.828-12.369-0.718-19.98-0.614c0.517-0.387,2.448-0.284,3.813-0.052
	c-9.092-2.277-19.184,1.658-27.43-0.002c-2.055,0.366-3.543,0.242-4.983-0.012c0.191-0.002,0.362-0.021,0.509-0.053
	c-0.21-0.013-0.522-0.015-0.844-0.013c-0.906-0.173-1.841-0.375-2.854-0.538c0.859,0.245,1.684,0.449,2.401,0.542
	c-1.585,0.021-3.989,0.146-6.345,0.398l-1.002-1.084c-0.192,0.012-0.346,0.02-0.545,0.032c-2.312-0.401-1.859,0.513-0.625,1.327
	c-1.187,0.179-2.274,0.393-3.116,0.653c-1.878-1.748-6.181,0.59-8.745-1.275c-1.587,0.911-11.844,0.685-13.1,2.598
	c-0.079-0.249-0.774-0.368,0.497-0.384c-2.626-0.219-5.251-0.436-7.607,0.104l-1.115-1.378l-5.735,1.853
	c-3.484-0.839-4.928-1.329-1.469-2.388c-8.354,1.63-6.777,0.614-13.882,2.231l0.347-0.891c-2.54,0.033-6.6,1.227-8.13,0.49
	c-5.68-1.692-28.107-0.234-42.689-1.807c2.829,2.622-6.778-1.176-7.355,0.855c-0.85-0.617-2.882-0.969-0.521-1.508
	c-7.441,0.61-11.18-0.984-16.318,0.73c-0.853-0.624,1.593-0.91,0.835-1.278c-0.598,0.135-2.365,0.54-3.139,0.17
	c-0.758-0.369,1.089-0.521,2.268-0.791c-7.603,0.103-8.37,2.015-8.924,3.809c-3.852-0.849-5.774-0.729-8.556,0.448
	c-1.341-0.588-3.579-1.201,1.146-1.412c-2.657-0.085-16.232-0.861-16.504,0.577c-0.833-0.363-3.715-0.105-4.414,0.06
	c-3.238-0.059-5-0.091-6.747-0.122c-2.173-0.026-4.358-0.024-8.243,0.044l2.347,0.235c-0.65,0.615-1.458,0.842-2.6,0.89
	c0.043,1.105-0.065,2.184-0.165,3.522c-0.102,1.331-0.196,2.937-0.128,4.859l-0.178-0.207c-0.138,1.56-0.248,2.813-0.337,3.836
	c-0.071,0.89-0.107,1.579-0.12,2.135c-0.024,1.112,0.046,1.692,0.108,2.267c0.128,1.15,0.234,2.281-0.481,7.621l1.079-0.582
	c2.323,0.996-1.369,9.462-0.481,15.658l0.616-2.237c0.795,3.385-3.155,9.46-3.446,12.859c-0.203,0.742-0.325-1.17-0.473-2.203
	c-1.373,8.898,1.411,1.153,1.739,7.784c-0.763,1.223-1.939-1.577-2.081,2.887c-0.618,2.224,2.474,12.946,1.013,19.035
	c0.587-1.342,1.173-2.673,1.615,0.406c0.21,4.721-2.222,12.764-0.369,17.027c-0.161,0.599-0.313,0.827-0.46,0.851
	c0.479,3.609,0.794,11.729,1.798,13.902c-3.727,3.334,1.813,22.436-1.625,22.355l0.185,11.099l-0.351-0.291
	c-0.229,7.096,0.596,9.606,1.421,12.1c-0.234,1.64-0.555,0.442-0.734,0.306c-0.693,10.369-0.547,11.4,1.166,20.093l-1.116,0.902
	c0.648,2.357-1.75,14.988-0.449,25.158c-0.125-0.1-0.342-0.311-0.5-1.117c1.309,11.44-3.094,27.389,0.968,31.58l1.001,7.549
	c0.314-9.768,1.763,1.455,2.437-2.563c0.239,3.84-1.225,9.93-1.434,5.208l0.204-0.737c-2.116-1.735-0.75,12.137-2.192,11.875
	c0.104,19.221-1.068,37.951-1.158,55.953l1.646-2.074l-0.094,6.66c-0.192,1.148-0.514,2.034-0.779,1.795
	c-0.133-0.123-0.251-0.535-0.332-1.354c-0.041-0.408-0.072-0.916-0.091-1.537c-0.006-0.236-0.014-0.492-0.02-0.77
	c0.001-0.242,0.001-0.501,0.002-0.781c-0.117,0.295-0.192,0.632-0.234,1l-0.024,0.291c-0.005,0.148-0.01,0.299-0.014,0.449
	c-0.005,0.303-0.002,0.615,0.005,0.928c0.036,1.262,0.173,2.574,0.353,3.705c0.357,2.289,0.874,3.771,1.053,3.717
	c-0.08,1.514-0.168,2.645-0.261,3.439c1.799,0.266,0.94,0.57-0.848,0.849c-0.449-1.881-0.829-6.39-0.85-4.032l0.103,4.777l1.01-0.02
	l-0.846-0.145l0.049-0.367c0.018,0.111,0.036,0.217,0.055,0.266c4.979-0.655,5.813-1.329,13.206-1.248
	c0.147,0.01,0.288,0.021,0.423,0.031c0.097,0.011,0.189,0.021,0.276,0.033c0.175,0.027,0.332,0.051,0.475,0.072
	c0.284,0.051,0.502,0.104,0.674,0.16c0.344,0.113,0.499,0.232,0.589,0.342c0.177,0.219,0.099,0.406,0.769,0.439
	c-0.008,0.117,0.444,0.172,2.057,0.047l7.912,0.141l-3.163-1.299c3.506-0.641,7.439,0.069,3.788-1.404
	c5.358,2.27,29.513,0.816,32.802,1.52c4.913-0.945,9.76-0.93,15.765-0.816c-1.493-0.27-2.386-1.732,2.793-1.553
	c-1.893,3.016,9.486,1.309,13.672,3.478c-3.741-1.437,14.727-0.354,8.855-2.396c4.323,0.245,0.264,1.128,3.543,1.839
	c10.287-1.168,22.671,0.758,35.387,0.361c0.198-0.393-1.931-0.998,0.796-1.588l6.712,1.98c2.511-0.196,2.312-2.285,6.902-0.912
	c-0.648-0.333-1.616-0.836,0.068-0.96c24.911,1.928,50.903-1.579,76.201,2.042c-3.427-0.766-1.143-0.842,1.474-0.869
	c-1.702-0.184,0.038-0.979-0.296-1.516l10.591,1.49c1.93-1.49,11.355-0.102,12.46-1.523l-3.353,0.254
	c4.46-1.68-6.242-3.732-5.59-5.889c-4.994,1.91-13.168-2.828-21.362-0.094c-1.809-0.439,1.542-0.693,0.576-1.193
	c-2.079,0.924-4.586,1.115-9.235,0.701l0.526-0.229c-13.06,0.227-18.658-0.686-33.328-1.293l1.084,1.066
	c-3.152-0.143-3.816-0.477-5.292-0.744c-3.618,1.617,8.854,0.092,5.559,1.873c-4.183-2.168-22.232-0.031-25.058-2.497
	c-4.85-0.013,1.421,1.233-3.425,1.22l-1.286-0.666l-1.227,0.858c-3.179-0.142-4.783-0.976-4.901-1.54
	c0.771,0.068,2.192-0.158,3.02-0.206c-4.124-0.786-11.625,0.269-13.043,0.012l4.66,0.413c-13.235,0.621-29.395-0.254-42.183,1.104
	l0.972,0.502c-9.767,0.932-7.822-0.553-18.544-0.121l0.39-0.119c-2.145,0.5-5.011,0.752-7.944,0.697
	c2.708-0.59-5.093-1.146-1.543-1.797c-10.588,0.998-5.237,0.783-12.231,2.652l-1.613-0.834c-2.383,0.756-2.582,1.152-7.938,1.369
	c4.392-0.717-3.417-1.271,1.502-2.219c-11.234-1.826-16.684,1.844-21.839-0.824c-5.159,2.309,9.724,1.281,6.835,1.775
	c2.419,0.756-4.259,1.725-7.785,1.492c-3.589-0.051-6.103-2.953-15.132-2.91c0.898,0.012,0.958-0.162,1.855-0.154
	c-0.844-0.146-1.681-0.171-2.524-0.137c-0.778,0.031-1.913,0.119-2.14,0.195c-0.834,0.156-1.959,0.262-2.585-0.217
	c-0.63,0.415-1.188,0.576-1.646,0.645c-0.163-0.826,0.196-1.881-1.057-1.484l0.193,2.348l2.901-0.221
	c-0.954,0.145-2.065,0.447-3.443,0.763c-0.35-0.804-0.719-1.907-0.912-3.464c-0.098-0.775-0.151-1.648-0.136-2.6
	c0.015-1.154,0.097-2.389,0.271-3.721c0.179,0.301,0.387,1.029,0.582,1.877c0.09,0.424,0.187,0.879,0.281,1.326
	c0.044,0.206,0.085,0.486,0.124,0.621c0.038,0.142,0.075,0.279,0.108,0.41c0.067-0.209,0.11-0.34,0.138-0.59
	c0.027-0.277,0.038-0.553,0.038-0.828c0.002-0.553-0.042-1.098-0.083-1.648c-0.086-1.1-0.169-2.209,0.1-3.381
	c0.868,0.324,0.983,2.713,1.029,5.654c0.011,0.426,0.021,0.873,0.032,1.324c0.013,0.4,0.034,0.803,0.071,1.18
	c0.073,0.752,0.215,1.416,0.509,1.691c0.112-0.035,0.21-0.07,0.306-0.107c-0.019-0.043-0.052-0.076-0.097-0.102
	c0.216-0.77-0.104-1.404-0.252-2.102c-0.074-0.328-0.104-0.625-0.002-0.774c0.103-0.158,0.337-0.141,0.791-0.029
	c-0.306-0.089-0.532-0.253-0.693-0.462c-0.083-0.119-0.148-0.189-0.201-0.377c-0.053-0.263-0.092-0.533-0.121-0.807
	c-0.115-1.102-0.06-2.291,0.016-3.557c0.15-2.535,0.373-5.379-0.564-8.436l1.068,0.404c-0.167-0.969-0.672-2.975-0.645-4.754
	l1.383,3.225c-1.181-4.951,1.033-9.545,0.391-14.293c0.033,9.941-1.287,2.232-2.065,6.436c-1.429-12.262,2.793-7.053,2.28-20.781
	c0.151,1.859-0.641,6.979-1.136,4.072c0.22-2.613,0.63-6.064,1.19-7.666c-0.222-9.098-1.098,1.393-1.753-2.477
	c1.299-3.098-0.53-4.467-0.946-8.453l1.085-0.029c0.697-10.363-2.262-2.748-1.421-12.078l1.505,3.943l-0.389-4.863l1.234,1.003
	c-0.917-5.292-0.68-6.94-0.333-12.126c-0.765,1.205-1.97-0.676-2.003-5.268c0.645-3.132,1.032,1.752,0.876-4.755
	c0.679,1.47,1.532,3.079,0.531,5.913c0.354,0.289,0.682,1.447,1.031,1.746c0.741-3.373,0.169-8.475,0.159-10.83
	c-0.04,0.906-0.1,1.99-0.253,2.547l-1.501-9.438c0.406-1.484,0.734-0.307,1.056,0.859c-0.117-1.91-0.618-3.232-0.711-6.041
	c0.883,0.727,1.794,0.553,2.209,4.529l-0.979-8.988c0.383-0.6,1.054-4.611,1.379-3.445c0.518-4.983-1.712-12.223-1.028-18.828
	c-0.172-0.344-0.334-1.031-0.461-2.436c0.201-6.208,1.282-11.709,0.073-19.069l1.582-4.175c-0.359-5.763-1.992,5.653-2.59-3.944
	c-0.504-6.794,1.35-2.536,1.791-4.918c-0.798-3.379-2.421-9.253-1.134-15.495C107.039,200.345,106.805,201.965,106.922,203.896
	 M106.221,132.817c0.229,1.377,0.931,4.124,0.29,5.13C105.269,136.379,105.864,135.165,106.221,132.817 M147.928,73.709
	c-1.024,0.358-2.607,0.182-4.394-0.231C144.83,73.39,146.299,73.431,147.928,73.709 M361.471,164.095
	c-0.018-0.06-0.03-0.099-0.053-0.147C361.84,160.876,361.674,161.966,361.471,164.095 M360.999,170.474
	c0.152,0.641,0.302,0.597,0.454,0.327c-0.275-0.446-0.293-1.877-0.217-3.51C360.952,167.745,360.756,168.568,360.999,170.474
	 M113.501,394.639l-1.242-0.287C115.061,394.041,114.278,394.324,113.501,394.639"/>
<path fill="#EDE3D9" d="M135.677,75.193c-0.389-0.184-0.498-0.385-0.589-0.59C134.546,74.787,134.534,74.997,135.677,75.193"/>
<path fill="#EDE3D9" d="M107.493,248.1l-0.012,0.217c0.065,0.119,0.132,0.182,0.196,0.219L107.493,248.1z"/>
<path fill="#EDE3D9" d="M351.796,75.95c0.013-0.064,0.026-0.126,0.038-0.164c-0.431-0.149-0.632-0.331-0.741-0.52
	c-0.22,0.251-0.087,0.466,0.716,0.547C351.805,75.842,351.8,75.896,351.796,75.95"/>
<path fill="#EDE3D9" d="M362.844,204.281l-0.282-4.087c0.053,1.978-0.184,2.683-0.356,3.681
	C362.459,203.784,362.826,203.003,362.844,204.281"/>
<path fill="#EDE3D9" d="M356.127,239.75c0.133,0.598,0.015,1.268,0.149,1.856l0.504-0.164
	C356.748,238.899,356.341,237.121,356.127,239.75"/>
<path fill="#EDE3D9" d="M359.238,208.065c-0.914,0.324-0.603,2.886-0.435,5.75c-0.003-0.172-0.011-0.336,0-0.506
	C360.081,214.152,359.658,211.1,359.238,208.065"/>
<path fill="#EDE3D9" d="M358.834,214.478c0.043,0.882,0.067,1.783,0.023,2.646C359.368,217.46,358.964,216.052,358.834,214.478"/>
<path fill="#EDE3D9" d="M361.605,178.566c-0.234,1.358,1.167,0.852,0.796,1.62C363.563,181.703,360.994,171.136,361.605,178.566"/>
<polygon fill="#EDE3D9" points="356.229,210.382 357.357,209.356 356.448,207.752 "/>
<path fill="#EDE3D9" d="M357.057,187.78l-0.312,4.575c0.189-0.069,0.299,0.513,0.384,1.226
	C357.167,190.761,357.39,187.673,357.057,187.78"/>
<path fill="#EDE3D9" d="M357.129,193.58c-0.021,1.468,0.002,2.863,0.187,3.68C357.304,196.466,357.266,194.758,357.129,193.58"/>
<polygon fill="#EDE3D9" points="355.891,204.13 356.126,202.777 356.208,199.548 "/>
<path fill="#EDE3D9" d="M357.274,138.612l-0.323-4.991c-0.387-0.509-0.623,0.851-0.469,2.71
	C356.751,137.525,356.901,139.378,357.274,138.612"/>
<path fill="#EDE3D9" d="M354.187,153.709c0.234-1.35,0.486-1.441,0.857-2.202l-1.397-0.152L354.187,153.709z"/>
<path fill="#EDE3D9" d="M353.861,139.151c-0.388-0.498-1.112-7.245-1.025-0.918C353.22,138.74,353.543,143.74,353.861,139.151"/>
<path fill="#EDE3D9" d="M348.677,71.994l1.188-0.019c0,0,0.116-0.572,0.231-1.145c0.104-0.574,0.207-1.146,0.207-1.146
	s-0.482,0.577-0.885,1.155C349.008,71.416,348.677,71.994,348.677,71.994"/>
<path fill="#EDE3D9" d="M282.466,77.475c5.916,0.549,1.406-1.414,6.75-0.729c1.389-0.542-4.369-0.56-2.945-1.028
	C282.7,76.291,280.826,75.968,282.466,77.475"/>
<path fill="#EDE3D9" d="M286.271,75.719c0.571-0.09,1.178-0.2,1.822-0.349C287.06,75.514,286.573,75.625,286.271,75.719"/>
<polygon fill="#EDE3D9" points="345.74,395.801 349.545,396.28 347.09,395.508 "/>
<path fill="#EDE3D9" d="M353.043,394.1l0.896,1.461l2.285-1.323C355.365,394.305,353.697,394.432,353.043,394.1"/>
<path fill="#EDE3D9" d="M109.164,122.251l-0.353-0.29c-0.378,0.59-0.409,1.479-0.468,3.264L109.164,122.251z"/>
<polygon fill="#EDE3D9" points="108.071,173.84 108.1,172.952 106.779,174.612 "/>
<path fill="#EDE3D9" d="M109.755,217.136c0.055-1.767-0.239-3.844-0.184-5.618C109.81,215.37,108.108,217.615,109.755,217.136"/>
<rect x="365.345" y="69.359" fill="#EDE3D9" width="247.613" height="318.892"/>
<path fill="#EDE3D9" d="M618.435,386.926c-0.08,1.674,0.861,1.072,1.029,1.324C619.257,385.451,618.191,386.996,618.435,386.926"/>
<polygon fill="#EDE3D9" points="616.295,359.315 616.681,359.802 615.736,355.731 "/>
<path fill="#EDE3D9" d="M616.312,333.492c-1.605,2.439,0.26,9.355-0.311,13.955l-0.366,0.759l1.292,2.075
	C616.722,344.691,615.865,337.43,616.312,333.492"/>
<path fill="#EDE3D9" d="M619.787,319.724c-0.625,0.85-0.539-2.978-0.195,3.21c0.069-0.311,0.109-0.4,0.16-0.58
	C619.74,321.795,619.743,321.03,619.787,319.724"/>
<path fill="#EDE3D9" d="M619.75,322.352C619.795,325.071,620.276,320.573,619.75,322.352"/>
<path fill="#EDE3D9" d="M619.391,309.793l0.558,3.582c0.369-0.748,0.453-3.938,0.723-2.752
	C620.364,306.948,619.998,307.705,619.391,309.793"/>
<path fill="#EDE3D9" d="M618.219,306.399l0.235,1.855C618.611,307.929,618.664,307.438,618.219,306.399"/>
<path fill="#EDE3D9" d="M618.953,312.19l-0.496-3.936c-0.261,0.519-0.782,0.574,0.179,1.808
	C618.16,309.74,618.617,310.519,618.953,312.19"/>
<path fill="#EDE3D9" d="M618.711,314.418c-0.352,2.012-0.57,4.605-1.125,1.011C617.804,322.283,618.935,321.272,618.711,314.418"/>
<path fill="#EDE3D9" d="M614.652,332.174l-0.471,2.686l0.54,2.324C614.453,336.022,615.156,332.006,614.652,332.174"/>
<path fill="#EDE3D9" d="M620.223,287.479c-0.343-0.223-0.911,1.205-1.347,1.473l0.391,2.645
	C619.502,290.239,619.719,287.66,620.223,287.479"/>
<path fill="#EDE3D9" d="M618.875,288.951l-0.586-3.959C618.219,288.529,618.498,289.176,618.875,288.951"/>
<polygon fill="#EDE3D9" points="616.435,305.758 617.67,312.262 616.42,304.506 "/>
<polygon fill="#EDE3D9" points="620.265,272.362 621.058,274.606 619.863,270.608 "/>
<path fill="#EDE3D9" d="M620.127,262.332c0.656,1.662,1.109-2.275,1.514-0.521c-0.119-2.725-0.682-5.049-1.186-7.144
	C620.736,256.893,620.666,259.264,620.127,262.332"/>
<path fill="#EDE3D9" d="M619.717,251.151c0.158,1.109,0.439,2.263,0.736,3.516C620.302,253.485,620.084,252.321,619.717,251.151"/>
<path fill="#EDE3D9" d="M618.457,278.25c0.208-0.307,0.747-0.896,0.977-3.116l-0.959,1.558
	C618.469,277.166,618.463,277.705,618.457,278.25"/>
<path fill="#EDE3D9" d="M618.441,276.746l0.031-0.055c0.027-1.689,0.046-2.861,0.055-3.363
	C618.515,273.758,618.489,274.787,618.441,276.746"/>
<path fill="#EDE3D9" d="M618.453,278.643c0.001-0.145,0.002-0.251,0.004-0.393C618.363,278.399,618.332,278.491,618.453,278.643"/>
<path fill="#EDE3D9" d="M617.305,295.381c-0.536-2.326-1.112-7.174-1.933-2.482C616.031,294.567,616.498,291.881,617.305,295.381"/>
<path fill="#EDE3D9" d="M617.252,280.574l-0.219,4.207c0.252-0.084,0.623-0.842,0.891,0.311L617.252,280.574z"/>
<polygon fill="#EDE3D9" points="616.945,278.518 617.252,280.574 617.334,279.018 "/>
<path fill="#EDE3D9" d="M618.817,258.352c-0.419-1.816-0.454-3.802-0.521-6.047c-0.189,2.404-0.291,4.891-0.289,7.255
	C618.31,259.894,618.851,260.931,618.817,258.352"/>
<path fill="#EDE3D9" d="M618.549,267.291c-0.016-0.125-0.039-0.287-0.053-0.404C618.414,267.135,618.388,267.335,618.549,267.291"/>
<path fill="#EDE3D9" d="M618.302,230.21c-0.061,0.123-0.113,0.229-0.174,0.354c0.057,0.028,0.109,0.047,0.166,0.083L618.302,230.21z
	"/>
<path fill="#EDE3D9" d="M617.828,259.964c-0.186,1.806,0.049,2.888,0.348,3.917c-0.098-1.352-0.161-2.783-0.168-4.321
	C617.871,259.41,617.781,259.381,617.828,259.964"/>
<path fill="#EDE3D9" d="M619.267,244.987c-0.201,0.941-0.371,2.01-0.529,3.13C619.045,247.196,619.519,245.319,619.267,244.987"/>
<path fill="#EDE3D9" d="M618.76,266.278c0.018,0.091,0.034,0.172,0.043,0.271C619.01,265.957,618.91,266.029,618.76,266.278"/>
<path fill="#EDE3D9" d="M618.76,266.278c-0.137-0.93-0.375-1.661-0.584-2.396c0.076,1.102,0.179,2.121,0.32,3.006
	C618.562,266.664,618.666,266.439,618.76,266.278"/>
<path fill="#EDE3D9" d="M612.131,223.516c0.891,0.319,1.715,5.073,0.76,9.175c0.67,4.037,3.598,1.397,5.238-2.127
	c-0.39-0.125-0.748-0.125-1.275-4.281c-0.484,1.454-1.137,9.22-1.943,5.715c-0.459-5.505,0.314-4.51,0.787-7.188
	c-1.11,2.275-1.617-7.001-3.25-5.804l0.574,4.827C612.767,223.927,612.361,222.176,612.131,223.516"/>
<path fill="#EDE3D9" d="M618.037,238.481l0.111,1.713c0.154-1.951,0.512-3.346,1.208-5.916c-0.435-2.843-0.765-3.435-1.062-3.629
	l-0.125,8.42L618.037,238.481z"/>
<path fill="#EDE3D9" d="M618.152,247.869c-0.97-1.335-1.383-5.442-2.432-2.926c0.066,5.018,0.811,3.516,1.23,6.514
	c-0.238-8.098,0.539,2.324,1.09-3.525c0.164,1.592,0.217,3.023,0.256,4.373c0.117-1.457,0.264-2.861,0.441-4.186
	c-0.021,0.072-0.039,0.123-0.057,0.186l0.002,0.037c-0.008,0-0.01-0.008-0.016-0.008c-0.12,0.35-0.195,0.465-0.123,0.07
	c-0.014-0.027-0.018-0.125-0.021-0.168c-0.136-0.057-0.253-0.205-0.366-0.367c0.201-2.346,0.252-0.369,0.366,0.367
	c0.047,0.025,0.091,0.09,0.144,0.098c0.006-0.008,0.009-0.02,0.014-0.029l-0.533-8.113
	C618.011,241.908,618.041,244.057,618.152,247.869"/>
<path fill="#EDE3D9" d="M613.289,288.573c0.084-0.252,0.154-0.24,0.225-0.26C613.394,287.787,613.312,287.59,613.289,288.573"/>
<path fill="#EDE3D9" d="M613.873,285.237c0.137,0.588,0.523,1.08,0.422,2.998c-0.291,1.662-0.464-0.01-0.781,0.078
	c0.256,1.156,0.693,4.043,1.167,0.421l-0.132-0.575c0.332-3.266,1.543-7.461,1.674-6.891
	C615.351,282.223,614.73,283.063,613.873,285.237"/>
<path fill="#EDE3D9" d="M615.765,266.319l-0.477-6.756l-0.84,3.441l0.504-0.174C614.757,266.672,615.377,265.842,615.765,266.319"/>
<polygon fill="#EDE3D9" points="618.785,229.437 619.81,230.334 618.363,226.431 "/>
<polygon fill="#EDE3D9" points="618.662,220.66 619.554,220.985 619.015,218.668 "/>
<path fill="#EDE3D9" d="M370.689,165.763l0.252,1.985C370.861,166.808,370.779,166.206,370.689,165.763"/>
<path fill="#EDE3D9" d="M370.75,151.395l-0.439-0.354C370.552,151.708,370.728,151.981,370.75,151.395"/>
<path fill="#EDE3D9" d="M548.687,63.754c-2.893-0.831-6.119-2.122-5.771-1.12l0.887,0.976
	C545.822,63.436,547.371,63.543,548.687,63.754"/>
<path fill="#EDE3D9" d="M401.049,69.583c0.274,0.097,0.562,0.197,0.846,0.297c0.703-0.337,1.361-0.652,1.953-0.934
	C403.006,69.136,402.051,69.353,401.049,69.583"/>
<path fill="#EDE3D9" d="M399.01,73.622l-3.813-0.63C396.056,73.212,397.281,73.422,399.01,73.622"/>
<path fill="#EDE3D9" d="M371.724,244.238l0.994,2.317C372.713,242.931,372.211,244.525,371.724,244.238"/>
<path fill="#EDE3D9" d="M618.302,130.761c0.383-2.495,0.541-4.479,0.588-6.225C618.331,127.543,617.49,129.968,618.302,130.761"/>
<path fill="#EDE3D9" d="M360.328,160.109c0.178,1.215,0.376,1.734,0.594,1.698C360.756,160.557,360.569,159.849,360.328,160.109"/>
<path fill="#EDE3D9" d="M618.887,117.333c-0.097,0.439-0.146,0.871-0.229,1.318c0.164,1.824,0.297,3.659,0.232,5.886
	C619.309,122.316,619.568,119.776,618.887,117.333"/>
<path fill="#EDE3D9" d="M505.937,382.682c0.205,0.043,0.456,0.064,0.644,0.115C506.642,382.664,506.357,382.658,505.937,382.682"/>
<path fill="#EDE3D9" d="M588.851,392.531c-0.816,0.06-2.149,0.061-3.406,0.072C586.06,392.672,587.084,392.664,588.851,392.531"/>
<path fill="#EDE3D9" d="M619.09,185.343C619.154,187.205,619.197,185.637,619.09,185.343"/>
<path fill="#EDE3D9" d="M615.228,194.396c-0.109-0.396-0.25-0.697-0.475-0.744C614.988,193.806,615.137,194.066,615.228,194.396"/>
<path fill="#EDE3D9" d="M612.814,98.789c0-0.055,0-0.098,0.002-0.161C612.625,99.181,612.662,99.086,612.814,98.789"/>
<path fill="#EDE3D9" d="M618.644,188.144c0.12-0.699,0.22-1.504,0.291-2.38C618.859,186.148,618.764,186.872,618.644,188.144"/>
<path fill="#EDE3D9" d="M619.105,187.768c-0.036,0.642-0.065,1.146-0.095,1.626C619.175,189.63,619.277,189.422,619.105,187.768"/>
<path fill="#EDE3D9" d="M619.037,182.75c0.015,1.063-0.031,2.059-0.102,3.014c0.066-0.365,0.121-0.518,0.154-0.421
	C619.076,184.798,619.062,184.027,619.037,182.75"/>
<path fill="#EDE3D9" d="M368.302,376.35c-0.031,0.121-0.051,0.266-0.094,0.398C368.613,378.627,368.551,377.803,368.302,376.35"/>
<path fill="#EDE3D9" d="M500.235,73.891c0.088-0.01,0.132-0.035,0.212-0.047c-0.088-0.011-0.195-0.025-0.275-0.034L500.235,73.891z"
	/>
<path fill="#EDE3D9" d="M493.55,74.618c2.848-1.215,4.466-1.064,6.624-0.809l-2.213-2.814L493.55,74.618z"/>
<path fill="#EDE3D9" d="M370.969,200.167l0.879-4.695c1.443,5.668,0.945,9.769,2.178,5.361c-3.057-0.666-0.313-18.252-3.365-18.905
	l0.641-3.096c-0.027,0.886,0.151,1.029,0.121,1.905c1.463-6.019-2.209-4.471-1.774-12.229c0.235-2.702,0.677-4.589,1.04-2.746
	l-0.754-6.023c0.057-1.751,0.588-1.325,0.531,0.419l-0.246-9.187l0.092,0.069c-0.48-1.31-1.221-4.28-1.537-5.73
	c0.439-2.335,0.324,1.169,0.705,0.572l-0.739-5.086c0.792-2.072,1.56,2.144,1.446,5.657c3.051-4.75-0.768-4.22,1.014-14.473
	l0.388,4.803c1.734-3.096,1.106-6.845,2.188-12.275c-0.565,1.289-2.725,10.872-3.486,5.352c0.231-1.556,0.342-3.607-0.273-6.585
	c1.086-0.027,0.818-2.936,0.758-6.574l1.439,0.248c-0.416-3.934-1.148-3.623-1.797-5.938c0.143-4.386,1.256-5.295,2.195-6.326
	c0.23-7.022-1.785,4.848-2.057-3.463c0.549-5.839-0.039-9.939-0.9-16.925c0.497-4.087,0.883,0.714,1.294-0.751l-1.149-3.624
	c0.029-0.887,0.381-0.601,0.559-0.454c-0.109-0.764-0.256-1.162-0.418-1.403c-0.162-0.141-0.34-0.172-0.516-0.261
	c-0.354-0.173-0.701-0.459-0.895-2.061c-0.695-0.632-0.334-1.991,0.137-3.069c1.314,0.302,2.578,0.65,3.6,0.795
	c0.52,0.073,0.992,0.096,1.463,0.037c0.361-0.051,0.717-0.103,1.068-0.153c0.438-0.074,0.867-0.173,1.285-0.299
	c1.463,0.408-0.705,0.882-0.26,1.438c8.15-1.182,6.988-0.858,13.678-2.449l5.703,0.946c-4.189-1.081,1.163-2.359,5.851-3.41
	c-1.487-0.521-2.757-0.979-3.608-1.196l7.482-0.773c0.902,0.236,0.148,0.73-1.076,1.332c0.51-0.119,0.994-0.236,1.371-0.346
	c2.674,0.532,1.287,1.362-0.629,2.167c-0.912-0.284-1.816-0.587-2.696-0.888c-1.847,0.875-3.575,1.843-3.19,2.685
	c0.484-0.165,1.422-0.309,2.452-0.388c-0.483,0.237-0.792,0.45-0.567,0.593c0.254,0.151,1.033-0.167,2.258-0.533l1.699,1.603
	l0.414-0.637l9.787,1.005c7.002-1.615,13.094-3.992,24.209-4.655c-2.758,1.177-0.593,1.921-0.742,3.316
	c-3.033-1.475-8.609,0.627-14.369,0.328c3.005,0.154,2.344,0.819,1.58,1.052l10.272-1.344c-0.231,1.141,2.183,0.855,4.866,1.327
	c-2.027-2.253,7.658-1.5,11.838-2.191c0.259,0.756-0.742,1.529-5.844,1.346c5.628,1.697,7.271-2.646,12.795-1.204
	c-1.246,0.017-1.916-0.098-2.41,0.286c2.91-0.673,10.021-0.14,8.348,0.518l-1.242,0.016c8.268,0.267,25.168,0.016,26.4-1.897
	c0.084,0.246-1.084,2.306-1.583,2.693l14.751-6.439c-1.299,1.644,3.689,5.559-3.168,6.487c1.967,0.233,4.404,0.507,8.555-0.072
	c-1.344-0.234-3.348-2.377-1.512-2.527c5.035,1.83,3.494,0.978,9.704,2.539c-2.013-0.353,0.223-2.93,3.403-2.848
	c-0.496,0.386,0.266,2.544-0.896,2.813l7.916-2.53c-1.975,0.457-0.348,2.144,1.422,2.859c-0.82-0.494,6.846,0.047,8.956-0.204
	l-3.356-0.587c8.94,0.383,8.828-3.558,17.697-3.425c-1.074,0.522-2.65,3.218,1.859,3.536c2.066-1.298,9.152-6.234,16.998-7.232
	l1.506,0.74l6.019-0.844c-3.749,1.951-14.268,6.054-20.013,7.65c3.346,0.586,0.932,0.873,5.941,0.807
	c1.77,0.694-2.73,1.052-4.204,1.093l11.663,0.449c-0.518-1.515,8.92-1.518,8.475-2.777l-12.667,1.568
	c-0.515-1.51,7.325-4.294,15.587-4.027c2.103,0.603-1.571,2.692-1.4,3.196c1.074-0.521,7.845-0.993,8.605-0.624l-3.508,0.809
	c4.602,0.568,7.508-2.006,13.039-0.563c0.952,0.049,2.377,0.536,3.604,0.898c0.152,0.045,0.299,0.088,0.443,0.13
	c0.053,0.039,0.107,0.076,0.158,0.11c0.098,0.067,0.184,0.117,0.256,0.142c0.148,0.047,0.26-0.004,0.346-0.228
	c-0.197-0.431-0.422-1.089-0.693-1.852c-0.36-0.764-0.735-1.633-0.855-2.49c-0.141-0.856-0.119-1.7,0.066-2.409
	c0.094-0.354,0.227-0.676,0.402-0.949c0.09-0.138,0.188-0.263,0.297-0.372c0.133-0.111,0.301-0.208,0.477-0.29
	c0.29,0.04,1.859,0.25,3.908,0.527c1.955,0.284,4.158,0.647,5.797,1.012c-0.344,2.358-0.688,4.161-0.961,5.052
	c-0.679,2-1.484,1.011-2.267,0.583c-0.782-0.522-1.541-0.514-2.122,0.722c0.412-0.301,0.924,0.446,1.086,0.891
	c-0.177,0.764-0.496,0.734-0.75,0.893c-0.252,0.161-0.438,0.423-0.344,1.601c0.768-0.154,0.734,2.285,0.689,3.508
	c-0.045,1.274-0.106,1.606,0.608-1.793c0.437,4.26-0.315,4.526-0.249,9.529c0.99-1.593,3.372,4.491,3.811,8.759
	c-0.391-0.252-0.898,0.706-1.13,1.17c-0.138,8.732-0.833,13.419-0.849,21.561c-0.371,0.75-0.82,4.679-1.48,3.006
	c0.271,1.172,0.791,2.247,0.828,4.759c-1.326,4.859-0.207-5.601-1.799-1.895c0.891,0.316,1.229,6.495,1.785,10.071
	c1.379-1.1,0.266-8.265-0.291-11.846c1.898-0.016,3.887,6.219,4.766,14.729c0.471,6.764-1.229,2.932-0.959,4.106
	c-0.33,12.703,3.316,10.824,1.948,21.372c-1.21,4.187-2.408,0.189-3.278,1.117c-0.46-5.509,0.766-8.458,0.718-12.193l-0.573,4.599
	c-0.4-1.753-0.705-5.431-0.357-7.436c-1.086,3.509-0.207,21.462-1.211,31.263c0.404,1.743,0.826,4.749,1.313,3.325l-0.17-3.1
	c0.977-2.851,1.35,5.836,1.805,1.911c0.686,4.16,1.764,8.824,1.211,14.68l-1.379,1.1c0.402-0.125,0.821-3.827,0.4-5.473
	c0.611,2.441-1.867,8.979-0.061,11.654l0.956-4.104c0.692,4.176,2.157,9.34,1.723,14.53c1.362-2.363-0.155-1.197,1.438-4.885
	c-1.984,3.198,0.084-13.278-2.001-8.142c1.851-3.785,0.785-6.549,2.36-11.496c-0.453,0.153-0.869,1.752-0.644-2.604
	c-0.135-0.198-0.304-0.662-0.401-0.957c0.016-0.133,0.021-0.18,0.033-0.294c-0.02,0.087-0.033,0.152-0.053,0.24
	c-0.068-0.189-0.082-0.205-0.02,0.09c-0.199,1.037-0.438,1.878-0.69,2.219c-1.046-2.163-1.014-9.092-1.552-11.435
	c0.215-2.584,0.521,1.082,1.006-0.329l-0.808-3.501c1.011-0.346,1.679-6.868,2.271-0.777l0.045-5.483
	c0.566-3.228,0.793-7.667,0.365-10.404c0.221-2.585-1.117-6.532-0.326-4.279l-0.625-8.598l0.252-0.079
	c0.128-8.483-1.674-17.462,0.148-27.16c-0.254-2.856-0.566-5.807-0.279-10.583l0.874-0.932c-0.304-3.667,0.876-11.01-0.036-12.586
	c1.178-1.978,1.305-6.426,1.191-11.187c-0.039-1.188-0.078-2.4-0.117-3.595c-0.023-0.611-0.047-1.221-0.071-1.821
	c-0.021-1.072-0.041-2.13-0.062-3.166c-0.078-4.134-0.113-7.842-0.01-10.88c0,0-0.285,0.148-0.57,0.294
	c-0.287,0.154-0.571,0.311-0.571,0.311c0.003-0.402,0.005-0.802,0.007-1.2c-3.547-0.013-7.137,0.061-10.855,0.19
	c-0.924,0.037-1.86,0.072-2.816,0.108l-0.713,0.03l-0.355,0.016l-0.217,0.016c-0.291,0.021-0.582,0.044-0.879,0.065
	c-1.182,0.095-2.418,0.195-3.721,0.3l0.34,1.008c-4.752,0.829-12.215-0.718-19.727-0.613c0.51-0.386,2.416-0.285,3.766-0.053
	c-8.977-2.278-18.94,1.658-27.08-0.002c-2.029,0.367-3.498,0.242-4.921-0.012c0.188-0.002,0.357-0.021,0.501-0.052
	c-0.205-0.014-0.516-0.016-0.83-0.014c-0.896-0.172-1.82-0.375-2.818-0.537c0.85,0.245,1.662,0.447,2.369,0.541
	c-1.564,0.021-3.938,0.146-6.264,0.399l-0.99-1.084c-0.189,0.011-0.34,0.02-0.537,0.031c-2.283-0.4-1.836,0.514-0.617,1.328
	c-1.172,0.179-2.244,0.393-3.078,0.654c-1.855-1.749-6.102,0.589-8.633-1.277c-1.568,0.911-11.693,0.685-12.932,2.598
	c-0.08-0.249-0.766-0.368,0.489-0.383c-2.593-0.218-5.183-0.436-7.511,0.104l-1.1-1.376l-5.662,1.852
	c-3.439-0.839-4.864-1.327-1.451-2.388c-8.247,1.629-6.691,0.614-13.703,2.23l0.341-0.891c-2.509,0.034-6.515,1.227-8.026,0.491
	c-5.609-1.694-27.75-0.235-42.145-1.807c2.791,2.623-6.693-1.175-7.263,0.855c-0.839-0.619-2.847-0.969-0.513-1.508
	c-7.348,0.609-11.039-0.985-16.111,0.73c-0.842-0.624,1.572-0.909,0.824-1.278c-0.59,0.136-2.334,0.541-3.1,0.171
	c-0.747-0.369,1.075-0.521,2.238-0.791c-7.506,0.104-8.264,2.015-8.81,3.809c-3.803-0.85-5.7-0.729-8.448,0.448
	c-1.322-0.587-3.531-1.203,1.131-1.412c-2.623-0.085-16.025-0.86-16.293,0.577c-0.822-0.365-3.668-0.105-4.357,0.06
	c-3.217-0.059-4.965-0.091-6.701-0.123c-2.146-0.026-4.302-0.025-8.137,0.044l2.321,0.234c-0.633,0.615-1.43,0.843-2.555,0.891
	c0.043,1.092-0.065,2.154-0.166,3.477c-0.101,1.312-0.195,2.896-0.127,4.796l-0.178-0.207c-0.137,1.552-0.248,2.799-0.336,3.817
	c-0.071,0.877-0.107,1.559-0.121,2.107c-0.024,1.098,0.046,1.671,0.108,2.238c0.129,1.135,0.234,2.253-0.48,7.524l1.078-0.575
	c2.322,0.984-1.369,9.34-0.481,15.458l0.616-2.209c0.795,3.342-3.156,9.341-3.445,12.696c-0.202,0.732-0.324-1.155-0.474-2.175
	c-1.369,8.785,1.415,1.138,1.743,7.686c-0.764,1.207-1.939-1.556-2.081,2.85c-0.618,2.196,2.475,12.781,1.014,18.793
	c0.586-1.325,1.172-2.64,1.615,0.401c0.21,4.661-2.222,12.599-0.369,16.81c-0.161,0.593-0.313,0.815-0.459,0.841
	c0.478,3.563,0.794,11.578,1.797,13.725c-3.728,3.292,1.814,22.149-1.625,22.07l0.185,10.959l-0.351-0.286
	c-0.229,7.004,0.596,9.481,1.421,11.944c-0.233,1.618-0.554,0.437-0.734,0.302c-0.693,10.235-0.547,11.253,1.166,19.834
	l-1.114,0.892c0.647,2.328-1.749,14.8-0.45,24.838c-0.126-0.098-0.342-0.307-0.5-1.105c1.309,11.297-3.094,27.043,0.968,31.182
	l1.001,7.453c0.315-9.645,1.763,1.435,2.437-2.531c0.239,3.791-1.224,9.805-1.433,5.143l0.203-0.729
	c-2.116-1.711-0.75,11.982-2.19,11.723c0.104,18.975-1.068,37.467-1.157,55.242l1.645-2.047l-0.094,6.199
	c-0.384,1.627-1.288,2.184-1.219-2.24c-0.468,1.166-0.271,3.02,0.085,4.598c0.047,0.197,0.094,0.391,0.141,0.578
	c0.05,0.271,0.102,0.535,0.149,0.787c0.102,0.502,0.205,0.943,0.304,1.307c0.196,0.734,0.37,1.158,0.46,1.177
	c-0.333,6.108-0.813,5.485-1.215,3.206c-0.401-2.213-0.724-5.988-0.744-3.845l0.124,5.729l0.192-1.395
	c0.413,2.605,0.841,3.428,1.091,5.614c1.447-0.157,3.346-0.243,6.237-0.212c2.309,0.166,2.893,0.42,3.1,0.641
	c0.211,0.219,0.047,0.406,1.065,0.438c-0.017,0.059,0.147,0.104,0.632,0.115c0.24,0.006,0.561,0.006,0.975-0.006
	c0.193-0.008,0.406-0.016,0.645-0.023c0.164-0.012,0.346-0.023,0.545-0.039l7.811,0.141l-3.123-1.297
	c3.462-0.642,7.346,0.066,3.742-1.406c5.289,2.271,29.137,0.816,32.385,1.52c4.848-0.945,9.635-0.93,15.564-0.816
	c-1.477-0.27-2.357-1.731,2.756-1.553c-1.869,3.016,9.363,1.311,13.498,3.479c-3.693-1.439,14.539-0.355,8.742-2.396
	c4.268,0.242,0.26,1.129,3.497,1.836c10.155-1.166,22.383,0.762,34.937,0.365c0.195-0.395-1.907-1,0.785-1.59l6.629,1.98
	c2.479-0.195,2.283-2.283,6.813-0.912c-0.641-0.333-1.596-0.834,0.068-0.96c24.594,1.927,50.254-1.581,75.23,2.044
	c-3.383-0.768-1.129-0.843,1.453-0.872c-1.68-0.183,0.039-0.978-0.293-1.513l10.457,1.488c1.904-1.488,11.211-0.102,12.303-1.523
	l-3.313,0.254c4.403-1.678-6.162-3.73-5.517-5.887c-4.933,1.91-13.002-2.828-21.091-0.094c-1.787-0.441,1.523-0.695,0.568-1.195
	c-2.051,0.924-4.527,1.115-9.117,0.703l0.519-0.23c-12.892,0.227-18.421-0.684-32.903-1.291l1.072,1.064
	c-3.111-0.141-3.768-0.477-5.224-0.744c-3.573,1.617,8.739,0.094,5.487,1.875c-4.129-2.17-21.949-0.033-24.74-2.498
	c-4.787-0.014,1.405,1.234-3.382,1.219l-1.269-0.666l-1.211,0.859c-3.139-0.142-4.721-0.977-4.839-1.539
	c0.761,0.064,2.165-0.158,2.979-0.207c-4.068-0.787-11.475,0.268-12.873,0.012l4.602,0.41c-13.068,0.625-29.021-0.25-41.647,1.105
	l0.96,0.504c-9.641,0.928-7.722-0.553-18.307-0.123l0.385-0.119c-2.119,0.502-4.947,0.754-7.844,0.697
	c2.672-0.59-5.029-1.145-1.523-1.797c-10.453,1-5.171,0.783-12.074,2.652l-1.594-0.832c-2.352,0.754-2.548,1.152-7.836,1.367
	c4.338-0.717-3.373-1.27,1.484-2.217c-11.092-1.826-16.473,1.842-21.559-0.828c-5.096,2.311,9.598,1.282,6.746,1.777
	c2.389,0.754-4.205,1.726-7.686,1.494c-1.773-0.026-3.279-0.764-5.457-1.491c-1.09-0.362-2.346-0.722-3.887-0.99
	c-0.771-0.134-1.611-0.243-2.541-0.319c-0.432-0.026-0.885-0.053-1.358-0.084c-0.253-0.018-0.515-0.027-0.791-0.025
	c0.45,0.012,0.47-0.164,0.925-0.154c-0.693-0.246-1.258-0.146-2.018-0.018c-0.729,0.131-1.629,0.287-2.306,0.158
	c0.052-0.352,0.144-0.754,0.298-1.178c-0.699-0.006-0.676-0.822-0.705-1.397c-0.027-0.603-0.104-1.054-0.994-1.194l0.396,4.773
	l0.19-0.014l-0.206,0.029c-0.26-1.096-0.885-2.152-1.32-4.07c-0.05-0.242-0.102-0.49-0.154-0.742
	c-0.047-0.258-0.09-0.508-0.129-0.887c-0.077-0.697-0.133-1.426-0.16-2.19c-0.055-1.526,0.008-3.199,0.256-5.068
	c0.359,0.595,0.832,2.866,1.094,4.429c0.525-2.234-0.347-4.299,0.191-6.615c0.892,0.329,0.988,2.814,1.032,5.837
	c0.013,0.756,0.023,1.546,0.035,2.343l0.032,1.199l0.012,0.301l0.012,0.229l0.029,0.299c0.088,0.787,0.256,1.495,0.596,1.838
	c0.189-0.372,0.203-0.727,0.146-1.109c-0.027-0.191-0.074-0.391-0.123-0.592c-0.023-0.104-0.049-0.206-0.074-0.307
	c-0.023-0.116-0.05-0.146-0.072-0.418c-0.174-1.738-0.203-2.863,0.762-1.615c-2.453-3.588,0.311-8.782-1.563-14.82l1.066,0.398
	c-0.168-0.953-0.674-2.934-0.645-4.693l1.383,3.184c-1.18-4.887,1.034-9.421,0.393-14.108c0.031,9.813-1.289,2.202-2.066,6.354
	c-1.43-12.107,2.793-6.963,2.279-20.517c0.152,1.835-0.641,6.89-1.136,4.02c0.222-2.579,0.63-5.988,1.19-7.573
	c-0.223-8.977-1.098,1.381-1.754-2.443c1.301-3.057-0.529-4.408-0.947-8.344l1.086-0.029c0.697-10.232-2.262-2.713-1.421-11.924
	l1.506,3.893l-0.39-4.803l1.234,0.992c-0.918-5.227-0.68-6.854-0.332-11.973c-0.768,1.189-1.971-0.67-2.004-5.201
	c0.645-3.092,1.031,1.73,0.877-4.693c0.678,1.451,1.529,3.039,0.529,5.836c0.355,0.285,0.684,1.428,1.031,1.725
	c0.742-3.328,0.17-8.365,0.158-10.691c-0.039,0.896-0.098,1.965-0.252,2.516l-1.504-9.314c0.408-1.465,0.734-0.301,1.055,0.85
	c-0.116-1.889-0.617-3.191-0.709-5.967c0.883,0.721,1.793,0.548,2.207,4.475l-0.979-8.875c0.384-0.592,1.055-4.553,1.38-3.4
	c0.519-4.92-1.714-12.068-1.028-18.59c-0.172-0.338-0.334-1.017-0.461-2.405c0.199-6.129,1.283-11.559,0.074-18.825l1.582-4.122
	c-0.36-5.688-1.994,5.58-2.592-3.893c-0.502-6.708,1.35-2.504,1.789-4.857c-0.797-3.335-2.418-9.135-1.131-15.296
	C371.086,196.663,370.851,198.262,370.969,200.167 M370.267,129.994c0.229,1.359,0.932,4.072,0.291,5.065
	C369.316,133.51,369.911,132.313,370.267,129.994 M411.381,71.669c-1.01,0.359-2.575,0.182-4.34-0.23
	C408.322,71.349,409.772,71.392,411.381,71.669 M618.205,164.938c-0.018-0.059-0.029-0.099-0.053-0.146
	C618.574,161.76,618.41,162.836,618.205,164.938 M617.734,171.236c0.151,0.632,0.301,0.589,0.453,0.322
	c-0.275-0.44-0.293-1.854-0.215-3.464C617.687,168.54,617.49,169.355,617.734,171.236 M372.978,392.6l-1.777-0.287
	c2.056-0.152,2.766-0.162,2.84-0.092C374.136,392.291,373.566,392.442,372.978,392.6"/>
<path fill="#EDE3D9" d="M399.285,73.154c-0.385-0.184-0.49-0.386-0.581-0.59C398.168,72.747,398.158,72.958,399.285,73.154"/>
<path fill="#EDE3D9" d="M371.54,243.81l-0.013,0.214c0.065,0.115,0.131,0.18,0.195,0.214L371.54,243.81z"/>
<path fill="#EDE3D9" d="M608.531,75.901c0.156-0.714,0.354-1.24,0.561-1.67C608.826,74.407,608.601,74.902,608.531,75.901"/>
<path fill="#EDE3D9" d="M619.578,204.613l-0.283-4.034c0.056,1.95-0.184,2.646-0.354,3.632
	C619.195,204.121,619.56,203.351,619.578,204.613"/>
<path fill="#EDE3D9" d="M612.861,239.629c0.133,0.59,0.016,1.25,0.15,1.832l0.503-0.16
	C613.482,238.789,613.075,237.033,612.861,239.629"/>
<path fill="#EDE3D9" d="M615.972,208.346c-0.914,0.319-0.604,2.851-0.434,5.677c-0.004-0.17-0.012-0.332,0-0.5
	C616.816,214.356,616.391,211.345,615.972,208.346"/>
<path fill="#EDE3D9" d="M615.568,214.678c0.043,0.872,0.067,1.76,0.023,2.612C616.103,217.621,615.697,216.232,615.568,214.678"/>
<path fill="#EDE3D9" d="M618.34,179.225c-0.236,1.339,1.168,0.841,0.795,1.598C620.297,182.319,617.727,171.888,618.34,179.225"/>
<polygon fill="#EDE3D9" points="612.964,210.635 614.092,209.621 613.183,208.038 "/>
<path fill="#EDE3D9" d="M613.79,188.321l-0.311,4.516c0.188-0.068,0.299,0.505,0.384,1.209
	C613.902,191.263,614.125,188.215,613.79,188.321"/>
<path fill="#EDE3D9" d="M613.863,194.047c-0.021,1.45,0.002,2.828,0.186,3.635C614.039,196.897,614.001,195.21,613.863,194.047"/>
<polygon fill="#EDE3D9" points="612.625,204.462 612.859,203.127 612.943,199.938 "/>
<path fill="#EDE3D9" d="M614.01,139.779l-0.324-4.929c-0.388-0.502-0.623,0.842-0.467,2.676
	C613.485,138.707,613.635,140.535,614.01,139.779"/>
<path fill="#EDE3D9" d="M610.92,154.683c0.236-1.333,0.488-1.422,0.859-2.174l-1.396-0.15L610.92,154.683z"/>
<path fill="#EDE3D9" d="M610.595,140.311c-0.389-0.491-1.112-7.153-1.025-0.905C609.955,139.906,610.277,144.842,610.595,140.311"/>
<path fill="#EDE3D9" d="M609.285,69.954l1.182-0.018l0.779-1.146l0.756-1.146c0,0-0.754,0.577-1.43,1.156
	C609.888,69.377,609.285,69.954,609.285,69.954"/>
<path fill="#EDE3D9" d="M544.204,75.435c5.841,0.55,1.388-1.413,6.665-0.729c1.371-0.542-4.314-0.56-2.908-1.027
	C544.435,74.251,542.586,73.928,544.204,75.435"/>
<path fill="#EDE3D9" d="M547.96,73.68c0.567-0.09,1.165-0.201,1.8-0.349C548.739,73.474,548.259,73.585,547.96,73.68"/>
<polygon fill="#EDE3D9" points="602.609,393.76 606.365,394.239 603.941,393.47 "/>
<path fill="#EDE3D9" d="M609.818,392.063l0.885,1.46l2.256-1.323C612.109,392.266,610.465,392.391,609.818,392.063"/>
<path fill="#EDE3D9" d="M373.211,119.563l-0.353-0.286c-0.38,0.581-0.409,1.46-0.469,3.22L373.211,119.563z"/>
<polygon fill="#EDE3D9" points="372.117,170.494 372.146,169.618 370.825,171.256 "/>
<path fill="#EDE3D9" d="M373.802,213.241c0.056-1.746-0.239-3.797-0.183-5.548C373.857,211.495,372.156,213.712,373.802,213.241"/>
</svg>
