<?xml version="1.0" encoding="utf-8"?>
<!-- Generator: Adobe Illustrator 16.0.0, SVG Export Plug-In . SVG Version: 6.00 Build 0)  -->
<!DOCTYPE svg PUBLIC "-//W3C//DTD SVG 1.1//EN" "http://www.w3.org/Graphics/SVG/1.1/DTD/svg11.dtd">
<svg version="1.1" xmlns="http://www.w3.org/2000/svg" xmlns:xlink="http://www.w3.org/1999/xlink" x="0px" y="0px"
	 width="257.333px" height="355.997px" viewBox="0 0 257.333 355.997" enable-background="new 0 0 257.333 355.997"
	 xml:space="preserve">
<g id="Layer_1">
</g>
<g id="Layer_3">
</g>
<g id="serpente">
</g>
<g id="Layer_2">
</g>
<g id="timeline">
</g>
<g id="linee_personaggi">
</g>
<g id="legami_personaggi">
</g>
<g id="letters">
</g>
<g id="lettere_opache">
</g>
<g id="info_destinatari">
</g>
<g id="lettera_preview">
	<g>
		<rect x="8.86" y="7.483" transform="matrix(1 0.005 -0.005 1 0.8905 -0.644)" fill="#D6CBC1" width="241.768" height="341.998"/>
		<g>
			<g>
				<g>
					<g>
						<path fill="#D6CBC1" d="M254.65,348.741c-0.081,1.725,0.759,1.109,0.908,1.369
							C255.387,347.225,254.432,348.813,254.65,348.741z"/>
						<polygon fill="#D6CBC1" points="252.889,320.278 253.229,320.783 252.412,316.584 						"/>
						<path fill="#D6CBC1" d="M253.038,293.669c-1.44,2.508,0.183,9.643-0.349,14.38l-0.328,0.781l1.137,2.144
							C253.344,305.211,252.62,297.725,253.038,293.669z"/>
						<path fill="#D6CBC1" d="M256.197,279.498c-0.561,0.872-0.463-3.072-0.191,3.308c0.062-0.32,0.099-0.413,0.145-0.599
							C256.144,281.633,256.15,280.842,256.197,279.498z"/>
						<path fill="#D6CBC1" d="M256.15,282.207C256.176,285.009,256.626,280.375,256.15,282.207L256.15,282.207z"/>
						<path fill="#D6CBC1" d="M255.896,269.264l0.478,3.693c0.332-0.77,0.423-4.055,0.655-2.833
							C256.776,266.337,256.446,267.115,255.896,269.264z"/>
						<path fill="#D6CBC1" d="M254.872,265.759l0.2,1.914C255.211,267.339,255.261,266.833,254.872,265.759z"/>
						<path fill="#D6CBC1" d="M255.495,271.732l-0.423-4.059c-0.233,0.533-0.696,0.587,0.15,1.863
							C254.801,269.202,255.205,270.006,255.495,271.732z"/>
						<path fill="#D6CBC1" d="M255.266,274.027c-0.321,2.069-0.53,4.743-1.006,1.036
							C254.422,282.125,255.43,281.089,255.266,274.027z"/>
						<path fill="#D6CBC1" d="M251.568,292.303l-0.431,2.767l0.466,2.396C251.372,296.27,252.016,292.134,251.568,292.303z"/>
						<path fill="#D6CBC1" d="M256.75,246.274c-0.302-0.232-0.815,1.237-1.205,1.51l0.335,2.728
							C256.094,249.113,256.299,246.458,256.75,246.274z"/>
						<path fill="#D6CBC1" d="M255.544,247.785l-0.501-4.082C254.963,247.346,255.208,248.014,255.544,247.785z"/>
						<polygon fill="#D6CBC1" points="253.291,265.093 254.352,271.799 253.282,263.801 						"/>
						<polygon fill="#D6CBC1" points="256.866,230.695 257.556,233.011 256.515,228.887 						"/>
						<path fill="#D6CBC1" d="M256.794,220.361c0.573,1.713,0.997-2.341,1.346-0.531c-0.09-2.808-0.578-5.208-1.016-7.368
							C257.363,214.757,257.287,217.201,256.794,220.361z"/>
						<path fill="#D6CBC1" d="M256.487,208.836c0.134,1.146,0.378,2.334,0.638,3.626
							C256.995,211.244,256.808,210.044,256.487,208.836z"/>
						<path fill="#D6CBC1" d="M255.228,236.755c0.185-0.314,0.669-0.919,0.884-3.206l-0.862,1.6
							C255.243,235.638,255.235,236.192,255.228,236.755z"/>
						<path fill="#D6CBC1" d="M255.221,235.205l0.028-0.056c0.032-1.742,0.055-2.948,0.064-3.466
							C255.302,232.127,255.274,233.188,255.221,235.205z"/>
						<path fill="#D6CBC1" d="M255.222,237.16c0.002-0.149,0.004-0.259,0.006-0.405C255.143,236.909,255.115,237.002,255.222,237.16
							z"/>
						<path fill="#D6CBC1" d="M254.117,254.403c-0.467-2.399-0.953-7.398-1.706-2.566
							C252.987,253.559,253.416,250.793,254.117,254.403z"/>
						<path fill="#D6CBC1" d="M254.144,239.146l-0.217,4.332c0.226-0.083,0.559-0.864,0.79,0.325L254.144,239.146z"/>
						<polygon fill="#D6CBC1" points="253.882,237.024 254.144,239.146 254.224,237.541 						"/>
						<path fill="#D6CBC1" d="M255.65,216.253c-0.362-1.873-0.384-3.921-0.433-6.234c-0.18,2.478-0.283,5.04-0.294,7.474
							C255.19,217.838,255.667,218.909,255.65,216.253z"/>
						<path fill="#D6CBC1" d="M255.367,225.463c-0.015-0.13-0.033-0.295-0.047-0.417
							C255.246,225.302,255.222,225.507,255.367,225.463z"/>
						<path fill="#D6CBC1" d="M255.337,187.251c-0.055,0.126-0.103,0.236-0.158,0.365c0.052,0.028,0.099,0.048,0.147,0.085
							L255.337,187.251z"/>
						<path fill="#D6CBC1" d="M254.762,217.909c-0.174,1.862,0.029,2.977,0.287,4.039c-0.078-1.393-0.127-2.87-0.126-4.454
							C254.802,217.338,254.723,217.309,254.762,217.909z"/>
						<path fill="#D6CBC1" d="M256.119,202.481c-0.184,0.97-0.34,2.069-0.486,3.225C255.908,204.759,256.34,202.826,256.119,202.481
							z"/>
						<path fill="#D6CBC1" d="M255.559,224.42c0.013,0.093,0.023,0.178,0.036,0.279C255.784,224.089,255.692,224.165,255.559,224.42
							z"/>
						<path fill="#D6CBC1" d="M255.559,224.42c-0.119-0.96-0.325-1.715-0.51-2.473c0.062,1.134,0.149,2.187,0.271,3.099
							C255.381,224.816,255.475,224.585,255.559,224.42z"/>
						<path fill="#D6CBC1" d="M249.885,180.326c0.79,0.333,1.498,5.235,0.628,9.458c0.572,4.164,3.191,1.457,4.666-2.168
							c-0.345-0.131-0.664-0.133-1.11-4.417c-0.439,1.497-1.06,9.495-1.758,5.879c-0.379-5.673,0.304-4.646,0.736-7.401
							c-0.998,2.338-1.4-7.224-2.857-5.996l0.485,4.977C250.451,180.751,250.098,178.946,249.885,180.326z"/>
						<path fill="#D6CBC1" d="M255.058,195.775l0.09,1.761c0.148-2.008,0.472-3.444,1.104-6.088
							c-0.372-2.934-0.663-3.542-0.926-3.747l-0.153,8.676L255.058,195.775z"/>
						<path fill="#D6CBC1" d="M255.112,205.447c-0.855-1.38-1.202-5.613-2.146-3.027c0.033,5.171,0.701,3.627,1.06,6.718
							c-0.172-8.345,0.468,2.399,0.986-3.627c0.139,1.641,0.176,3.116,0.205,4.508c0.112-1.501,0.249-2.95,0.415-4.313
							c-0.021,0.076-0.036,0.129-0.055,0.191l0.004,0.04c-0.007,0-0.009-0.009-0.014-0.009c-0.11,0.36-0.176,0.478-0.11,0.073
							c-0.012-0.028-0.015-0.129-0.017-0.175c-0.12-0.057-0.225-0.212-0.324-0.378c0.189-2.416,0.226-0.378,0.324,0.378
							c0.041,0.028,0.081,0.094,0.127,0.102c0.005-0.008,0.007-0.02,0.01-0.031l-0.43-8.361
							C255.019,199.305,255.033,201.52,255.112,205.447z"/>
						<path fill="#D6CBC1" d="M250.58,247.369c0.077-0.258,0.139-0.247,0.201-0.266C250.677,246.562,250.607,246.356,250.58,247.369
							z"/>
						<path fill="#D6CBC1" d="M251.118,243.934c0.116,0.608,0.459,1.116,0.36,3.091c-0.268,1.712-0.414-0.011-0.697,0.078
							c0.223,1.191,0.598,4.169,1.036,0.438l-0.115-0.592c0.312-3.363,1.409-7.682,1.524-7.093
							C252.446,240.834,251.889,241.698,251.118,243.934z"/>
						<path fill="#D6CBC1" d="M252.895,224.449l-0.388-6.962l-0.763,3.541l0.448-0.178
							C251.998,224.807,252.553,223.955,252.895,224.449z"/>
						<polygon fill="#D6CBC1" points="255.769,186.458 256.675,187.385 255.41,183.358 						"/>
						<polygon fill="#D6CBC1" points="255.706,177.412 256.497,177.751 256.03,175.36 						"/>
						<path fill="#D6CBC1" d="M13.969,106.247l0.214,2.046C14.12,107.325,14.047,106.703,13.969,106.247z"/>
						<path fill="#D6CBC1" d="M14.097,91.441l-0.389-0.365C13.919,91.764,14.078,92.045,14.097,91.441z"/>
						<path fill="#D6CBC1" d="M198.666,2.842c-2.976-0.753-6.298-1.916-5.942-1.024l0.91,0.872
							C195.716,2.545,197.311,2.649,198.666,2.842z"/>
						<path fill="#D6CBC1" d="M46.505,7.265c0.284,0.087,0.579,0.178,0.871,0.268c0.725-0.294,1.406-0.572,2.016-0.819
							C48.524,6.879,47.539,7.068,46.505,7.265z"/>
						<path fill="#D6CBC1" d="M44.386,10.846l-3.925-0.58C41.344,10.466,42.606,10.66,44.386,10.846z"/>
						<path fill="#D6CBC1" d="M14.487,187.117l0.87,2.39C15.373,185.774,14.918,187.415,14.487,187.117z"/>
						<path fill="#D6CBC1" d="M255.848,84.774c0.352-2.57,0.504-4.614,0.556-6.412C255.89,81.458,255.129,83.952,255.848,84.774z"/>
						<path fill="#D6CBC1" d="M4.791,100.375c0.15,1.253,0.325,1.788,0.519,1.753C5.167,100.838,5.004,100.108,4.791,100.375z"/>
						<path fill="#D6CBC1" d="M256.437,70.938c-0.088,0.453-0.135,0.897-0.211,1.358c0.137,1.88,0.244,3.771,0.178,6.066
							C256.787,76.078,257.028,73.459,256.437,70.938z"/>
						<path fill="#D6CBC1" d="M139.518,344.581c0.213,0.041,0.469,0.06,0.663,0.107C140.247,344.57,139.951,344.563,139.518,344.581
							z"/>
						<path fill="#D6CBC1" d="M224.914,353.762c-0.841,0.049-2.214,0.043-3.508,0.05
							C222.036,353.874,223.093,353.873,224.914,353.762z"/>
						<path fill="#D6CBC1" d="M256.266,141.021C256.313,142.94,256.36,141.326,256.266,141.021L256.266,141.021z"/>
						<path fill="#D6CBC1" d="M252.788,150.333c-0.095-0.408-0.217-0.718-0.419-0.767
							C252.578,149.725,252.709,149.992,252.788,150.333z"/>
						<path fill="#D6CBC1" d="M251.133,51.804c0.001-0.056,0.002-0.101,0.003-0.166C250.963,52.208,250.996,52.11,251.133,51.804z"
							/>
						<path fill="#D6CBC1" d="M255.857,143.906c0.11-0.72,0.203-1.549,0.27-2.452C256.057,141.85,255.97,142.595,255.857,143.906z"
							/>
						<path fill="#D6CBC1" d="M256.269,143.52c-0.036,0.661-0.065,1.181-0.093,1.676
							C256.321,145.438,256.412,145.225,256.269,143.52z"/>
						<path fill="#D6CBC1" d="M256.233,138.349c0.008,1.097-0.038,2.121-0.106,3.105c0.062-0.377,0.111-0.534,0.14-0.433
							C256.259,140.458,256.25,139.666,256.233,138.349z"/>
						<path fill="#D6CBC1" d="M10.766,323.237c-0.027,0.127-0.046,0.273-0.084,0.411C11.033,325.584,10.98,324.735,10.766,323.237z"
							/>
						<path fill="#D6CBC1" d="M148.694,11.604c0.09-0.008,0.138-0.03,0.22-0.041c-0.091-0.011-0.203-0.023-0.284-0.032
							L148.694,11.604z"/>
						<path fill="#D6CBC1" d="M141.8,12.217c2.939-1.065,4.607-0.924,6.829-0.685l-2.267-2.513L141.8,12.217z"/>
						<path fill="#D6CBC1" d="M14.042,141.701l0.804-4.835c1.253,5.847,0.789,10.07,1.909,5.532
							c-2.713-0.697-0.185-18.808-2.895-19.494l0.587-3.188c-0.03,0.915,0.128,1.062,0.097,1.964
							c1.332-6.197-1.941-4.618-1.514-12.608c0.222-2.784,0.626-4.727,0.938-2.826l-0.641-6.209c0.062-1.806,0.53-1.362,0.47,0.436
							l-0.169-9.468l0.079,0.071c-0.42-1.353-1.062-4.417-1.335-5.912c0.4-2.403,0.28,1.208,0.624,0.594l-0.633-5.245
							c0.715-2.132,1.377,2.215,1.258,5.835c2.736-4.882-0.663-4.353,0.974-14.909l0.321,4.95c1.556-3.183,1.017-7.048,2.005-12.639
							c-0.508,1.326-2.476,11.191-3.125,5.499c0.214-1.603,0.322-3.715-0.209-6.787c0.965-0.023,0.743-3.021,0.707-6.771
							l1.278,0.262c-0.35-4.056-1.002-3.738-1.566-6.126c0.149-4.518,1.145-5.45,1.984-6.509c0.239-7.235-1.613,4.988-1.812-3.577
							c0.52-6.015,0.019-10.243-0.711-17.446c0.461-4.209,0.779,0.741,1.151-0.768l-1.001-3.738
							c0.028-0.915,0.341-0.618,0.498-0.468c-0.19-1.573-0.51-1.64-0.821-1.931c-0.156-0.137-0.311-0.367-0.446-0.803
							c-0.137-0.28-0.255-0.748-0.338-1.561c-0.614-0.556-0.287-2.006,0.138-3.181c1.312,0.275,2.562,0.59,3.594,0.725
							c0.262,0.034,0.515,0.057,0.763,0.064h0.37l0.673-0.023c0.938-0.047,1.851-0.168,2.712-0.388
							c1.506,0.371-0.733,0.78-0.274,1.278c8.403-1.008,7.203-0.727,14.105-2.106l5.87,0.869c-4.311-0.982,1.209-2.091,6.044-3.001
							c-1.528-0.471-2.834-0.884-3.711-1.082l7.712-0.648c0.931,0.215,0.151,0.65-1.114,1.179c0.526-0.104,1.025-0.206,1.414-0.3
							c2.754,0.486,1.321,1.218-0.657,1.923c-0.938-0.257-1.868-0.532-2.772-0.803c-1.908,0.768-3.693,1.62-3.301,2.371
							c0.502-0.145,1.467-0.267,2.528-0.333c-0.499,0.208-0.818,0.395-0.588,0.524c0.261,0.136,1.067-0.144,2.329-0.463l1.745,1.435
							l0.428-0.564l10.081,0.942c7.224-1.4,13.511-3.481,24.967-4.013c-2.847,1.032-0.619,1.705-0.78,2.943
							c-3.119-1.328-8.873,0.513-14.808,0.217c3.097,0.153,2.413,0.74,1.624,0.942l10.593-1.14
							c-0.244,1.011,2.243,0.771,5.007,1.204c-2.08-2.014,7.898-1.295,12.208-1.888c0.265,0.673-0.771,1.355-6.026,1.167
							c5.791,1.537,7.504-2.315,13.188-1.005c-1.282,0.009-1.975-0.097-2.482,0.242c2.999-0.583,10.325-0.073,8.598,0.505
							l-1.279,0.007c8.517,0.279,25.933,0.144,27.213-1.551c0.083,0.219-1.128,2.045-1.645,2.387l15.229-5.649
							c-1.347,1.455,3.776,4.96-3.292,5.75c2.027,0.218,4.535,0.473,8.813-0.021c-1.383-0.215-3.438-2.131-1.547-2.254
							c5.183,1.652,3.6,0.888,9.99,2.307c-2.072-0.325,0.243-2.603,3.521-2.514c-0.514,0.34,0.262,2.262-0.938,2.495l8.17-2.208
							c-2.038,0.395-0.369,1.905,1.453,2.549c-0.845-0.444,7.053,0.077,9.229-0.137l-3.455-0.538
							c9.209,0.386,9.114-3.117,18.251-2.954c-1.107,0.459-2.746,2.845,1.9,3.152c2.136-1.142,9.458-5.493,17.548-6.34l1.547,0.667
							l6.207-0.72c-3.871,1.714-14.729,5.307-20.655,6.697c3.443,0.539,0.955,0.781,6.118,0.747
							c1.819,0.625-2.818,0.922-4.338,0.951l12.017,0.458c-0.527-1.347,9.198-1.303,8.745-2.425l-13.061,1.329
							c-0.522-1.345,7.566-3.779,16.081-3.499c2.164,0.546-1.632,2.385-1.457,2.834c1.108-0.458,8.087-0.845,8.867-0.512
							l-3.615,0.701c1.164,0.13,2.225,0.091,3.245-0.023c0.511-0.057,1.012-0.132,1.511-0.214c0.234-0.042,0.532-0.084,0.716-0.127
							l0.385-0.13c0.529-0.17,1.154-0.319,1.805-0.354c0.643-0.034,1.32,0.046,1.747,0.334c-0.02,0.064-0.041,0.133-0.062,0.203
							c-0.046,0.558-0.484,1.622-0.81,2.262c-0.326,0.666-0.54,1.012-0.143,1.027c0.771-0.684,2.348-2.026,3.875-3.119
							c1.528-1.083,3.005-1.581,3.575-0.312c-0.026,0.235-0.139,1.234-0.298,2.649c-0.041,0.34-0.084,0.705-0.13,1.089
							c-0.047,0.383-0.095,0.625-0.146,0.964c-0.104,0.637-0.215,1.318-0.327,2.012c-0.463,2.773-1.008,5.741-1.393,6.861
							c-1.218,3.232-2.844-4.876-3.89-2.124c0.367,0.12,0.812,1.912,0.953,2.658c-0.324,2.063-1.134-0.861-0.99,3.627
							c1.36,0.755-0.16,9.125,1.142,2.127c0.368,4.391-0.303,4.663-0.27,9.817c0.89-1.636,2.976,4.643,3.343,9.042
							c-0.346-0.261-0.803,0.725-1.01,1.202c-0.169,8.997-0.812,13.824-0.865,22.213c-0.335,0.772-0.755,4.818-1.332,3.091
							c0.235,1.208,0.691,2.319,0.712,4.907c-1.204,5.002-0.154-5.771-1.59-1.96c0.791,0.33,1.06,6.698,1.536,10.386
							c1.229-1.127,0.277-8.515-0.199-12.208c1.688-0.008,3.423,6.426,4.16,15.199c0.384,6.971-1.105,3.016-0.872,4.227
							c-0.36,13.088,2.892,11.167,1.62,22.031c-1.098,4.308-2.141,0.184-2.921,1.136c-0.379-5.679,0.726-8.712,0.701-12.561
							L251.551,113c-0.348-1.808-0.601-5.599-0.278-7.662c-0.984,3.61-0.296,22.114-1.238,32.209
							c0.353,1.796,0.709,4.896,1.148,3.432l-0.134-3.196c0.882-2.933,1.169,6.021,1.595,1.977
							c0.588,4.291,1.522,9.101,1.002,15.132l-1.232,1.128c0.359-0.128,0.751-3.94,0.385-5.639
							c0.531,2.518-1.705,9.244-0.114,12.009l0.871-4.227c0.595,4.308,1.87,9.634,1.457,14.98c1.223-2.428-0.133-1.233,1.303-5.027
							c-1.778,3.286,0.143-13.681-1.736-8.398c1.664-3.891,0.731-6.746,2.159-11.836c-0.405,0.155-0.783,1.802-0.562-2.687
							c-0.117-0.203-0.265-0.682-0.352-0.986c0.015-0.138,0.02-0.186,0.032-0.304c-0.018,0.09-0.031,0.158-0.049,0.248
							c-0.059-0.195-0.072-0.211-0.017,0.093c-0.182,1.068-0.399,1.934-0.627,2.284c-0.918-2.232-0.854-9.373-1.322-11.789
							c0.206-2.664,0.459,1.116,0.897-0.336l-0.699-3.61c0.899-0.353,1.526-7.071,2.021-0.792l0.068-5.649
							c0.521-3.323,0.743-7.896,0.379-10.72c0.209-2.663-0.96-6.734-0.269-4.41l-0.513-8.862l0.226-0.081
							c0.156-8.74-1.397-18.001,0.272-27.986c-0.211-2.944-0.474-5.986-0.194-10.908l0.781-0.956
							c-0.252-3.78,0.835-11.342,0.033-12.97c2.112-4.066,0.548-18.334,0.952-24.978l-1.014-0.255
							c0.02-1.106,0.019-2.202,0.001-3.308c-0.033-1.168-0.065-2.348-0.1-3.561c-0.089-3.852-0.232-7.817-0.404-12.028
							c-0.265,0.01-0.572,0.022-0.883,0.035c0,0-0.074,0.224-0.148,0.448c-0.085,0.224-0.17,0.448-0.17,0.448
							c-2.013,0.174-4.073,0.215-6.313,0.181c-1.12-0.018-2.283-0.054-3.501-0.103c-0.571-0.027-1.151-0.054-1.741-0.082
							c-0.426-0.03-0.857-0.061-1.295-0.091c-3.501-0.258-7.356-0.597-11.229-0.57c0.528-0.341,2.491-0.242,3.88-0.028
							c-9.24-2.072-19.523,1.376-27.905-0.141c-2.092,0.315-3.604,0.197-5.069-0.037c0.194,0,0.369-0.016,0.519-0.044
							c-0.214-0.012-0.532-0.015-0.858-0.015c-0.922-0.159-1.872-0.343-2.901-0.493c0.874,0.224,1.712,0.407,2.439,0.494
							c-1.611,0.011-4.057,0.109-6.455,0.322l-1.017-0.969c-0.194,0.009-0.352,0.016-0.554,0.025
							c-2.351-0.368-1.894,0.447-0.642,1.177c-1.208,0.153-2.314,0.338-3.174,0.566c-1.902-1.565-6.29,0.492-8.89-1.18
							c-1.619,0.802-12.053,0.549-13.339,2.244c-0.08-0.221-0.786-0.331,0.509-0.338c-2.672-0.207-5.341-0.414-7.74,0.054
							l-1.128-1.229l-5.843,1.617c-3.541-0.764-5.007-1.205-1.483-2.129c-8.506,1.406-6.897,0.512-14.133,1.912l0.356-0.79
							c-2.583,0.017-6.719,1.056-8.273,0.395c-5.771-1.533-28.594-0.351-43.421-1.823c2.866,2.347-6.891-1.078-7.487,0.726
							c-0.861-0.556-2.927-0.877-0.522-1.346C70.296,3.072,66.5,1.637,61.265,3.135c-0.863-0.558,1.625-0.801,0.855-1.131
							c-0.608,0.115-2.407,0.467-3.193,0.134c-0.77-0.332,1.11-0.457,2.31-0.691c-7.733,0.054-8.524,1.75-9.095,3.342
							c-3.915-0.775-5.871-0.678-8.706,0.354c-1.362-0.528-3.636-1.086,1.171-1.249c-2.704-0.089-16.511-0.847-16.793,0.43
							c-0.845-0.329-3.777-0.114-4.49,0.03c-3.106-0.068-4.796-0.105-6.473-0.142c-2.207-0.034-4.43-0.044-8.391-0.003l2.357,0.22
							C10.074,4.973,9.222,5.17,8.054,5.206c0.032,1.12-0.068,2.229-0.165,3.605c-0.097,1.366-0.188,3.012-0.139,4.96l-0.157-0.189
							c-0.129,1.463-0.232,2.64-0.317,3.6c-0.068,0.904-0.104,1.605-0.117,2.17c-0.027,1.132,0.031,1.722,0.085,2.307
							c0.108,1.171,0.196,2.322-0.466,7.75l0.962-0.586c2.059,1.023-1.265,9.618-0.507,15.926l0.559-2.273
							c0.688,3.447-2.854,9.61-3.129,13.066c-0.183,0.753-0.281-1.191-0.41-2.244c-1.262,9.047,1.252,1.179,1.511,7.927
							c-0.685,1.24-1.716-1.612-1.865,2.928c-0.561,2.259,2.136,13.18,0.805,19.368c0.529-1.361,1.058-2.715,1.434,0.421
							c0.163,4.803-2.038,12.974-0.414,17.32c-0.146,0.61-0.283,0.84-0.413,0.865c0.406,3.673,0.646,11.935,1.528,14.15
							c-3.332,3.376,1.497,22.832-1.558,22.735l0.106,11.293l-0.311-0.297c-0.238,7.218,0.482,9.773,1.203,12.314
							c-0.217,1.667-0.497,0.448-0.655,0.31c-0.669,10.544-0.544,11.594,0.934,20.443l-0.996,0.915
							c0.564,2.4-1.63,15.24-0.525,25.591c-0.111-0.102-0.303-0.317-0.438-1.139c1.105,11.645-2.89,27.849,0.699,32.132l0.852,7.685
							c0.331-9.935,1.559,1.488,2.18-2.597c0.192,3.909-1.139,10.097-1.301,5.294l0.185-0.75c-1.874-1.773-0.729,12.344-2.009,12.07
							c-0.005,19.553-1.142,38.605-1.312,56.919l1.473-2.103l-0.115,6.389c-0.351,1.675-1.156,2.245-1.072-2.312
							c-0.842,2.393,0.655,7.647,0.974,7.778c-0.638,8.921-1.688-3.494-1.737-0.757l0.09,3.717l0.176-0.837
							c0.583,3.016,1.214,3.286,1.115,8.764c-0.038,0.433-0.082,0.785-0.128,1.073c-0.062,0.374-0.109,0.664-0.147,0.893
							c-0.102,0.516-0.208,0.762-0.307,0.911c-0.197,0.3-0.363,0.201-0.397,1.263c-0.104,0.004-0.156,0.757-0.058,3.259
							c-0.029,1.981-0.06,3.962-0.069,5.924l6.594,0.118c0,0-1.139-0.294-2.143-0.588c-1.018-0.293-1.901-0.586-1.901-0.586
							c2.76-0.271,5.314-0.243,6.701-0.313c1.405-0.07,1.379-0.24-0.77-0.905c0.756,0.256,2.006,0.462,3.585,0.629
							c1.199,0.165,2.619,0.29,4.18,0.383c3.122,0.188,6.809,0.253,10.43,0.275c7.243,0.043,14.224-0.088,15.896,0.233
							c5-0.817,9.932-0.777,16.042-0.646c-1.519-0.249-2.42-1.551,2.848-1.365c-1.94,2.669,9.645,1.21,13.894,3.159
							c-3.8-1.297,14.982-0.241,9.02-2.085c4.396,0.238,0.262,1.003,3.596,1.65c10.471-0.986,23.06,0.789,35.997,0.504
							c0.204-0.35-1.959-0.899,0.817-1.409l6.821,1.793c2.556-0.16,2.362-2.02,7.023-0.775c-0.656-0.3-1.639-0.75,0.075-0.854
							c25.333,1.84,51.791-1.146,77.511,2.203c-3.482-0.699-1.158-0.756,1.504-0.767c-1.729-0.173,0.043-0.87-0.295-1.348
							l10.769,1.377c1.97-1.313,11.552-0.031,12.684-1.292l-3.414,0.211c4.546-1.469-6.333-3.35-5.659-5.263
							c-5.09,1.672-13.385-2.58-21.732-0.192c-1.838-0.4,1.573-0.61,0.591-1.059c-2.117,0.811-4.67,0.969-9.397,0.577l0.536-0.201
							c-13.286,0.136-18.979-0.702-33.9-1.317l1.101,0.954c-3.206-0.143-3.88-0.443-5.381-0.688
							c-3.688,1.417,9.008,0.125,5.646,1.692c-4.244-1.949-22.616-0.142-25.48-2.346c-4.935-0.036,1.44,1.104-3.491,1.066
							l-1.305-0.6l-1.25,0.758c-3.235-0.142-4.863-0.892-4.981-1.394c0.784,0.063,2.231-0.129,3.073-0.168
							c-4.191-0.719-11.829,0.179-13.268-0.055l4.738,0.389c-13.467,0.488-29.904-0.373-42.919,0.768l0.985,0.453
							c-9.938,0.776-7.954-0.531-18.862-0.204l0.396-0.104c-2.185,0.435-5.101,0.645-8.085,0.579
							c2.757-0.51-5.178-1.043-1.562-1.604c-10.776,0.834-5.332,0.67-12.455,2.296l-1.636-0.749
							c-2.429,0.658-2.633,1.011-8.08,1.176c4.47-0.614-3.472-1.147,1.537-1.964c-11.423-1.678-16.98,1.553-22.213-0.845
							c-5.26,2.026,9.886,1.189,6.943,1.614c2.459,0.684-4.34,1.513-7.926,1.289c-0.329-0.006-0.649-0.032-0.966-0.075
							c-0.338-0.043-0.602-0.103-0.839-0.175c-0.496-0.145-0.959-0.342-1.395-0.562c-0.88-0.438-1.62-0.963-2.464-1.335
							c0.291-1.232,0.489-2.331,0.484-3.588c-0.011,0.459,0.144,0.442,0.134,0.878c0.133-0.465,0.155-0.844,0.129-1.239
							l-0.028-0.298l-0.04-0.601c-0.031-0.436-0.063-0.875-0.096-1.32c-0.128-1.782-0.214-3.661,0.222-5.768
							c-1.229-2.369,0.099-5.474-1.48-6.163l0.324,8.428c-0.391-4.779-2.221-9.267-1.283-17.131
							c0.316,0.615,0.724,2.958,0.951,4.568c0.479-2.299-0.287-4.432,0.204-6.815c1.581,0.688,0.294,10.242,1.477,15.365
							c0.681-2.467-1.101-9.686,0.604-7.106c-2.163-3.707,0.32-9.049-1.314-15.277l0.946,0.416
							c-0.144-0.985-0.581-3.027-0.549-4.839l1.215,3.287c-1.024-5.041,0.965-9.704,0.419-14.538
							c-0.021,10.114-1.155,2.265-1.869,6.538c-1.208-12.48,2.518-7.162,2.133-21.129c0.125,1.891-0.604,7.095-1.03,4.136
							c0.209-2.657,0.591-6.167,1.097-7.796c-0.151-9.254-0.983,1.416-1.547-2.525c1.172-3.146-0.448-4.546-0.798-8.604l0.965-0.023
							c0.672-10.541-1.997-2.807-1.202-12.295l1.318,4.019l-0.321-4.95l1.093,1.026c-0.787-5.389-0.569-7.064-0.234-12.338
							c-0.687,1.224-1.747-0.698-1.755-5.368c0.59-3.182,0.909,1.789,0.804-4.832c0.597,1.497,1.346,3.138,0.442,6.015
							c0.312,0.297,0.599,1.477,0.907,1.782c0.677-3.426,0.193-8.619,0.196-11.016c-0.04,0.923-0.098,2.025-0.238,2.59l-1.288-9.603
							c0.369-1.509,0.654-0.309,0.934,0.879c-0.095-1.944-0.532-3.291-0.601-6.15c0.781,0.744,1.592,0.57,1.939,4.618l-0.823-9.147
							c0.344-0.609,0.959-4.688,1.242-3.499c0.486-5.067-1.459-12.442-0.817-19.16c-0.15-0.35-0.292-1.051-0.397-2.481
							c0.209-6.315,1.199-11.906,0.161-19.397l1.428-4.241c-0.29-5.865-1.801,5.741-2.282-4.023
							c-0.414-6.915,1.212-2.574,1.615-4.997c-0.691-3.441-2.104-9.424-0.928-15.768C14.165,138.089,13.949,139.737,14.042,141.701z
							 M13.779,69.388c0.196,1.402,0.807,4.199,0.233,5.22C12.915,73.007,13.449,71.775,13.779,69.388z M57.142,9.172
							c-1.043,0.315-2.654,0.149-4.47-0.225C53.993,8.873,55.486,8.917,57.142,9.172z M255.585,119.991
							c-0.016-0.059-0.027-0.101-0.046-0.149C255.931,116.718,255.777,117.826,255.585,119.991z M255.134,126.479
							c0.133,0.653,0.266,0.609,0.401,0.334c-0.242-0.454-0.252-1.912-0.175-3.571C255.107,123.702,254.927,124.54,255.134,126.479z
							 M4.164,344.973l0.263-1.937C4.683,347.115,4.438,346.051,4.164,344.973z"/>
						<path fill="#D6CBC1" d="M44.672,10.431c-0.396-0.165-0.505-0.345-0.597-0.527C43.524,10.063,43.511,10.25,44.672,10.431z"/>
						<path fill="#D6CBC1" d="M14.325,186.674l-0.012,0.22c0.057,0.121,0.116,0.186,0.174,0.223L14.325,186.674z"/>
						<path fill="#D6CBC1" d="M247.455,25.905c0.146-1.335,0.327-2.081,0.511-2.575C247.73,23.256,247.528,23.863,247.455,25.905z"
							/>
						<path fill="#D6CBC1" d="M256.602,160.88l-0.23-4.16c0.038,2.012-0.176,2.729-0.334,3.743
							C256.263,160.372,256.593,159.58,256.602,160.88z"/>
						<path fill="#D6CBC1" d="M250.452,196.933c0.115,0.608,0.007,1.289,0.123,1.889l0.449-0.164
							C251.008,196.07,250.655,194.259,250.452,196.933z"/>
						<path fill="#D6CBC1" d="M253.377,164.712c-0.814,0.325-0.551,2.935-0.415,5.847c-0.002-0.174-0.008-0.34,0.002-0.515
							C254.096,170.908,253.736,167.803,253.377,164.712z"/>
						<path fill="#D6CBC1" d="M252.986,171.235c0.034,0.897,0.052,1.814,0.008,2.692
							C253.448,174.27,253.093,172.836,252.986,171.235z"/>
						<path fill="#D6CBC1" d="M255.631,134.713c-0.216,1.38,1.033,0.872,0.699,1.652
							C257.355,137.913,255.125,127.151,255.631,134.713z"/>
						<polygon fill="#D6CBC1" points="250.692,167.057 251.699,166.018 250.899,164.382 						"/>
						<path fill="#D6CBC1" d="M251.542,144.067l-0.301,4.652c0.168-0.07,0.265,0.521,0.336,1.248
							C251.625,147.101,251.839,143.959,251.542,144.067z"/>
						<path fill="#D6CBC1" d="M251.577,149.967c-0.027,1.494-0.013,2.914,0.147,3.745
							C251.717,152.905,251.693,151.166,251.577,149.967z"/>
						<polygon fill="#D6CBC1" points="250.422,160.694 250.638,159.32 250.729,156.034 						"/>
						<path fill="#D6CBC1" d="M251.984,94.048l-0.262-5.08c-0.341-0.52-0.558,0.864-0.43,2.755
							C251.525,92.94,251.648,94.826,251.984,94.048z"/>
						<path fill="#D6CBC1" d="M249.165,109.392c0.215-1.372,0.438-1.464,0.771-2.236l-1.241-0.161L249.165,109.392z"/>
						<path fill="#D6CBC1" d="M248.948,94.582c-0.343-0.508-0.952-7.376-0.907-0.939C248.379,94.159,248.641,99.247,248.948,94.582z
							"/>
						<polygon fill="#D6CBC1" points="250.9,18.07 250.91,19.362 252.948,19.186 						"/>
						<path fill="#D6CBC1" d="M193.995,13.204c6.016,0.518,1.436-1.25,6.87-0.613c1.415-0.475-4.442-0.52-2.991-0.929
							C194.239,12.152,192.333,11.855,193.995,13.204z"/>
						<path fill="#D6CBC1" d="M197.874,11.662c0.583-0.077,1.199-0.172,1.855-0.3C198.676,11.483,198.181,11.579,197.874,11.662z"/>
						<polygon fill="#D6CBC1" points="239.084,354.926 242.954,355.371 240.458,354.673 						"/>
						<path fill="#D6CBC1" d="M246.522,353.452l0.905,1.304l2.329-1.164C248.881,353.645,247.184,353.749,246.522,353.452z"/>
						<path fill="#D6CBC1" d="M16.449,58.652l-0.311-0.297c-0.342,0.598-0.371,1.503-0.433,3.318L16.449,58.652z"/>
						<polygon fill="#D6CBC1" points="15.215,111.129 15.247,110.226 14.064,111.908 						"/>
						<path fill="#D6CBC1" d="M16.493,155.184c0.058-1.798-0.193-3.912-0.136-5.718C16.55,153.386,15.026,155.664,16.493,155.184z"
							/>
					</g>
				</g>
			</g>
		</g>
	</g>
	<g>
		<rect x="5.779" y="6.563" fill="#EDE3D9" width="241.767" height="338.709"/>
		<g>
			<g>
				<g>
					<g>
						<path fill="#EDE3D9" d="M252.415,343.916c-0.072,1.715,0.765,1.1,0.915,1.357
							C253.144,342.405,252.197,343.988,252.415,343.916z"/>
						<polygon fill="#EDE3D9" points="250.512,315.622 250.855,316.123 250.016,311.952 						"/>
						<path fill="#EDE3D9" d="M250.528,289.164c-1.428,2.501,0.23,9.587-0.277,14.301l-0.324,0.777l1.147,2.126
							C250.892,300.639,250.129,293.198,250.528,289.164z"/>
						<path fill="#EDE3D9" d="M253.617,275.056c-0.557,0.87-0.479-3.052-0.175,3.29c0.061-0.319,0.096-0.411,0.141-0.596
							C253.575,277.179,253.577,276.393,253.617,275.056z"/>
						<path fill="#EDE3D9" d="M253.583,277.75C253.623,280.536,254.05,275.926,253.583,277.75L253.583,277.75z"/>
						<path fill="#EDE3D9" d="M253.264,264.881l0.496,3.67c0.329-0.767,0.402-4.034,0.641-2.82
							C254.129,261.966,253.803,262.741,253.264,264.881z"/>
						<path fill="#EDE3D9" d="M252.222,261.401l0.21,1.902C252.57,262.971,252.618,262.467,252.222,261.401z"/>
						<path fill="#EDE3D9" d="M252.875,267.337l-0.443-4.034c-0.23,0.532-0.692,0.587,0.16,1.852
							C252.169,264.826,252.577,265.623,252.875,267.337z"/>
						<path fill="#EDE3D9" d="M252.658,269.621c-0.311,2.059-0.506,4.719-1,1.035C251.855,277.677,252.858,276.642,252.658,269.621z
							"/>
						<path fill="#EDE3D9" d="M249.051,287.812l-0.417,2.752l0.478,2.381C248.875,291.757,249.499,287.642,249.051,287.812z"/>
						<path fill="#EDE3D9" d="M254.003,242.018c-0.303-0.229-0.81,1.234-1.197,1.508l0.348,2.711
							C253.362,244.843,253.554,242.202,254.003,242.018z"/>
						<path fill="#EDE3D9" d="M252.806,243.525l-0.521-4.056C252.222,243.092,252.47,243.755,252.806,243.525z"/>
						<polygon fill="#EDE3D9" points="250.638,260.747 251.733,267.41 250.623,259.463 						"/>
						<polygon fill="#EDE3D9" points="254.042,226.525 254.745,228.825 253.682,224.729 						"/>
						<path fill="#EDE3D9" d="M253.918,216.25c0.583,1.701,0.985-2.333,1.344-0.534c-0.104-2.792-0.604-5.175-1.053-7.321
							C254.459,210.675,254.395,213.106,253.918,216.25z"/>
						<path fill="#EDE3D9" d="M253.554,204.792c0.139,1.139,0.39,2.319,0.655,3.604
							C254.074,207.184,253.881,205.992,253.554,204.792z"/>
						<path fill="#EDE3D9" d="M252.434,232.56c0.184-0.313,0.664-0.917,0.868-3.192l-0.854,1.594
							C252.444,231.449,252.439,232,252.434,232.56z"/>
						<path fill="#EDE3D9" d="M252.419,231.018l0.028-0.056c0.023-1.731,0.04-2.932,0.047-3.446
							C252.486,227.958,252.462,229.012,252.419,231.018z"/>
						<path fill="#EDE3D9" d="M252.43,232.962c0.002-0.148,0.003-0.258,0.004-0.403C252.35,232.713,252.322,232.806,252.43,232.962z
							"/>
						<path fill="#EDE3D9" d="M251.411,250.114c-0.479-2.384-0.989-7.352-1.719-2.543
							C250.277,249.28,250.692,246.527,251.411,250.114z"/>
						<path fill="#EDE3D9" d="M251.362,234.943l-0.195,4.308c0.226-0.084,0.556-0.862,0.792,0.319L251.362,234.943z"/>
						<polygon fill="#EDE3D9" points="251.09,232.833 251.362,234.943 251.434,233.345 						"/>
						<path fill="#EDE3D9" d="M252.753,212.171c-0.371-1.86-0.403-3.897-0.463-6.196c-0.168,2.464-0.258,5.013-0.257,7.433
							C252.302,213.749,252.785,214.812,252.753,212.171z"/>
						<path fill="#EDE3D9" d="M252.516,221.331c-0.015-0.129-0.034-0.294-0.049-0.414
							C252.395,221.171,252.373,221.375,252.516,221.331z"/>
						<path fill="#EDE3D9" d="M252.297,183.335c-0.055,0.125-0.102,0.235-0.157,0.364c0.052,0.028,0.1,0.047,0.148,0.084
							L252.297,183.335z"/>
						<path fill="#EDE3D9" d="M251.875,213.822c-0.165,1.852,0.044,2.96,0.308,4.015c-0.086-1.385-0.142-2.854-0.148-4.429
							C251.913,213.254,251.833,213.226,251.875,213.822z"/>
						<path fill="#EDE3D9" d="M253.154,198.475c-0.179,0.965-0.329,2.059-0.47,3.208
							C252.955,200.741,253.377,198.816,253.154,198.475z"/>
						<path fill="#EDE3D9" d="M252.705,220.292c0.013,0.092,0.023,0.176,0.037,0.277
							C252.926,219.962,252.835,220.038,252.705,220.292z"/>
						<path fill="#EDE3D9" d="M252.705,220.292c-0.124-0.954-0.335-1.704-0.522-2.456c0.067,1.127,0.16,2.173,0.285,3.08
							C252.528,220.687,252.621,220.458,252.705,220.292z"/>
						<path fill="#EDE3D9" d="M246.81,176.476c0.792,0.328,1.524,5.198,0.675,9.402c0.594,4.137,3.199,1.432,4.655-2.179
							c-0.345-0.129-0.664-0.129-1.132-4.387c-0.432,1.491-1.012,9.447-1.729,5.855c-0.407-5.64,0.28-4.622,0.699-7.363
							c-0.986,2.331-1.437-7.175-2.888-5.947l0.511,4.946C247.377,176.895,247.016,175.102,246.81,176.476z"/>
						<path fill="#EDE3D9" d="M252.06,191.812l0.099,1.751c0.139-1.998,0.454-3.427,1.074-6.059
							c-0.387-2.915-0.681-3.52-0.944-3.721l-0.11,8.627L252.06,191.812z"/>
						<path fill="#EDE3D9" d="M252.162,201.429c-0.862-1.368-1.229-5.575-2.16-2.999c0.059,5.142,0.719,3.603,1.093,6.675
							c-0.213-8.297,0.48,2.383,0.969-3.611c0.146,1.631,0.191,3.097,0.228,4.481c0.104-1.494,0.234-2.935,0.394-4.292
							c-0.021,0.076-0.036,0.128-0.054,0.19l0.004,0.039c-0.007,0-0.009-0.008-0.014-0.008c-0.108,0.358-0.173,0.476-0.11,0.073
							c-0.012-0.028-0.016-0.129-0.018-0.173c-0.12-0.056-0.226-0.21-0.326-0.375c0.178-2.403,0.224-0.378,0.326,0.375
							c0.041,0.028,0.082,0.092,0.128,0.101c0.005-0.009,0.007-0.02,0.01-0.031l-0.472-8.312
							C252.039,195.322,252.063,197.524,252.162,201.429z"/>
						<path fill="#EDE3D9" d="M247.838,243.137c0.076-0.257,0.138-0.246,0.2-0.266C247.932,242.333,247.861,242.129,247.838,243.137
							z"/>
						<path fill="#EDE3D9" d="M248.36,239.718c0.119,0.604,0.465,1.107,0.376,3.071c-0.26,1.704-0.414-0.008-0.697,0.081
							c0.229,1.184,0.618,4.144,1.038,0.431l-0.118-0.587c0.296-3.346,1.371-7.646,1.49-7.061
							C249.673,236.63,249.121,237.491,248.36,239.718z"/>
						<path fill="#EDE3D9" d="M250.041,220.334l-0.423-6.921l-0.745,3.524l0.447-0.179
							C249.144,220.695,249.696,219.845,250.041,220.334z"/>
						<polygon fill="#EDE3D9" points="252.724,182.543 253.635,183.461 252.35,179.463 						"/>
						<polygon fill="#EDE3D9" points="252.617,173.549 253.409,173.882 252.93,171.507 						"/>
						<path fill="#EDE3D9" d="M10.529,105.345l0.225,2.034C10.684,106.416,10.609,105.798,10.529,105.345z"/>
						<path fill="#EDE3D9" d="M10.583,90.622l-0.39-0.361C10.408,90.943,10.566,91.223,10.583,90.622z"/>
						<path fill="#EDE3D9" d="M193.643,1.581c-2.962-0.738-6.271-1.884-5.913-0.995l0.909,0.867
							C190.708,1.298,192.295,1.395,193.643,1.581z"/>
						<path fill="#EDE3D9" d="M42.365,6.762c0.282,0.086,0.576,0.175,0.867,0.264c0.719-0.298,1.395-0.579,2-0.83
							C44.37,6.367,43.391,6.56,42.365,6.762z"/>
						<path fill="#EDE3D9" d="M40.275,10.353l-3.905-0.56C37.248,9.988,38.503,10.176,40.275,10.353z"/>
						<path fill="#EDE3D9" d="M11.45,185.755l0.883,2.372C12.329,184.416,11.883,186.049,11.45,185.755z"/>
						<path fill="#EDE3D9" d="M252.297,81.434c0.338-2.557,0.48-4.591,0.522-6.378C252.322,78.136,251.575,80.62,252.297,81.434z"/>
						<path fill="#EDE3D9" d="M1.321,99.551c0.157,1.245,0.334,1.776,0.527,1.74C1.699,100.01,1.534,99.285,1.321,99.551z"/>
						<path fill="#EDE3D9" d="M252.817,67.673c-0.086,0.45-0.131,0.893-0.204,1.351c0.146,1.869,0.263,3.749,0.207,6.032
							C253.192,72.782,253.419,70.177,252.817,67.673z"/>
						<path fill="#EDE3D9" d="M137.884,340.321c0.213,0.04,0.468,0.058,0.66,0.104C138.609,340.307,138.315,340.301,137.884,340.321
							z"/>
						<path fill="#EDE3D9" d="M222.844,349.077c-0.837,0.054-2.202,0.055-3.489,0.067
							C219.982,349.203,221.034,349.197,222.844,349.077z"/>
						<path fill="#EDE3D9" d="M252.995,137.361C253.051,139.269,253.09,137.664,252.995,137.361L252.995,137.361z"/>
						<path fill="#EDE3D9" d="M249.563,146.638c-0.097-0.406-0.221-0.713-0.423-0.761
							C249.35,146.034,249.484,146.299,249.563,146.638z"/>
						<path fill="#EDE3D9" d="M247.417,48.673c0.001-0.056,0.001-0.101,0.002-0.165C247.25,49.076,247.282,48.978,247.417,48.673z"
							/>
						<path fill="#EDE3D9" d="M252.6,140.231c0.106-0.716,0.195-1.542,0.258-2.439C252.791,138.187,252.707,138.928,252.6,140.231z"
							/>
						<path fill="#EDE3D9" d="M253.01,139.845c-0.033,0.658-0.059,1.175-0.084,1.667
							C253.072,141.753,253.162,141.541,253.01,139.845z"/>
						<path fill="#EDE3D9" d="M252.949,134.704c0.013,1.091-0.027,2.109-0.091,3.088c0.06-0.375,0.108-0.531,0.137-0.431
							C252.985,136.802,252.971,136.013,252.949,134.704z"/>
						<path fill="#EDE3D9" d="M8.408,321.125c-0.027,0.126-0.045,0.271-0.082,0.409C8.686,323.458,8.628,322.613,8.408,321.125z"/>
						<path fill="#EDE3D9" d="M143.997,10.592c0.09-0.009,0.137-0.031,0.219-0.042c-0.09-0.01-0.202-0.022-0.283-0.031
							L143.997,10.592z"/>
						<path fill="#EDE3D9" d="M137.146,11.239c2.917-1.08,4.576-0.947,6.786-0.719l-2.266-2.501L137.146,11.239z"/>
						<path fill="#EDE3D9" d="M10.779,140.598l0.779-4.812c1.283,5.808,0.84,10.01,1.938,5.492
							c-2.717-0.68-0.278-18.701-2.992-19.37l0.571-3.173c-0.026,0.909,0.133,1.055,0.106,1.953
							c1.301-6.168-1.964-4.583-1.577-12.53c0.208-2.77,0.603-4.702,0.925-2.814l-0.672-6.171c0.053-1.796,0.523-1.356,0.473,0.431
							l-0.217-9.413l0.08,0.07c-0.427-1.343-1.084-4.387-1.364-5.872c0.389-2.392,0.286,1.2,0.626,0.587l-0.658-5.211
							c0.704-2.124,1.388,2.196,1.286,5.796c2.712-4.868-0.685-4.325,0.899-14.83l0.347,4.921c1.54-3.172,0.981-7.013,1.942-12.578
							c-0.502,1.32-2.421,11.14-3.099,5.483c0.206-1.595,0.304-3.696-0.243-6.748c0.966-0.028,0.729-3.007,0.674-6.736l1.28,0.255
							c-0.37-4.031-1.021-3.712-1.598-6.084c0.127-4.493,1.117-5.424,1.952-6.482c0.203-7.195-1.589,4.968-1.83-3.547
							c0.489-5.984-0.033-10.186-0.799-17.345c0.44-4.188,0.783,0.733,1.147-0.769l-1.02-3.712c0.024-0.909,0.338-0.615,0.496-0.467
							c-0.198-1.563-0.518-1.628-0.831-1.916c-0.157-0.128-0.312-0.381-0.45-0.779c-0.138-0.279-0.259-0.744-0.346-1.552
							c-0.617-0.553-0.297-1.995,0.122-3.163c1.307,0.269,2.553,0.578,3.581,0.707c0.261,0.033,0.512,0.054,0.759,0.061l0.368-0.001
							l0.648-0.026c0.932-0.052,1.84-0.177,2.694-0.402c1.499,0.363-0.725,0.784-0.266,1.279c8.351-1.05,7.158-0.763,14.015-2.176
							l5.842,0.84c-4.292-0.96,1.191-2.097,5.995-3.031c-1.522-0.464-2.823-0.87-3.695-1.063l7.665-0.687
							c0.926,0.21,0.153,0.649-1.103,1.184c0.523-0.106,1.019-0.21,1.404-0.307c2.741,0.473,1.32,1.211-0.644,1.926
							c-0.935-0.252-1.86-0.522-2.761-0.789c-1.895,0.777-3.665,1.638-3.271,2.387c0.498-0.147,1.457-0.274,2.512-0.346
							c-0.495,0.211-0.811,0.399-0.581,0.527c0.26,0.135,1.06-0.148,2.313-0.475l1.742,1.426l0.423-0.566l10.028,0.893
							c7.176-1.436,13.417-3.549,24.806-4.138c-2.825,1.046-0.607,1.708-0.761,2.947c-3.108-1.312-8.82,0.558-14.724,0.291
							c3.08,0.138,2.403,0.728,1.62,0.935l10.526-1.193c-0.237,1.013,2.235,0.76,4.985,1.179c-2.078-2.003,7.847-1.334,12.13-1.948
							c0.266,0.671-0.761,1.358-5.986,1.197c5.766,1.508,7.449-2.353,13.109-1.071c-1.276,0.016-1.964-0.087-2.468,0.254
							c2.979-0.598,10.267-0.125,8.552,0.462L106.917,9.8c8.471,0.237,25.787,0.015,27.051-1.687
							c0.084,0.219-1.11,2.051-1.622,2.395l15.114-5.725c-1.331,1.461,3.78,4.941-3.244,5.767c2.017,0.208,4.512,0.451,8.764-0.064
							c-1.376-0.208-3.43-2.113-1.55-2.246c5.162,1.627,3.584,0.87,9.945,2.257c-2.062-0.314,0.229-2.604,3.488-2.531
							c-0.509,0.343,0.271,2.261-0.92,2.5l8.112-2.249c-2.025,0.405-0.357,1.906,1.458,2.542c-0.843-0.44,7.013,0.042,9.176-0.183
							l-3.438-0.521c9.159,0.34,9.047-3.162,18.133-3.044c-1.099,0.464-2.716,2.859,1.905,3.142
							c2.118-1.152,9.377-5.54,17.417-6.427l1.542,0.659l6.168-0.751c-3.841,1.733-14.619,5.381-20.505,6.8
							c3.427,0.521,0.953,0.776,6.087,0.717c1.812,0.616-2.798,0.936-4.309,0.973l11.951,0.398c-0.531-1.345,9.14-1.349,8.684-2.469
							l-12.98,1.394c-0.526-1.342,7.506-3.816,15.974-3.579c2.154,0.535-1.611,2.394-1.436,2.842c1.1-0.463,8.037-0.885,8.815-0.556
							l-3.592,0.719c2.356,0.253,4.28-0.193,6.322-0.541l0.384-0.064l0.214-0.06c0.139-0.039,0.283-0.075,0.433-0.106
							c0.299-0.062,0.617-0.107,0.942-0.12c0.645-0.026,1.341,0.072,1.788,0.393c0.148,0.014,0.285,0.069,0.4,0.148
							c-0.204,0.712-0.567,1.528-0.797,2.027c-0.229,0.51-0.324,0.773,0.009,0.723c0.767-0.824,2.337-2.452,3.859-3.823
							c1.522-1.361,2.997-2.132,3.573-0.978c-0.025,0.239-0.133,1.252-0.284,2.688c-0.154,1.373-0.358,3.267-0.583,4.482
							c-0.448,2.76-0.979,5.714-1.357,6.83c-1.202,3.22-2.868-4.834-3.9-2.093c0.367,0.118,0.82,1.896,0.966,2.638
							c-0.313,2.053-1.138-0.851-0.972,3.611c1.364,0.744-0.114,9.075,1.152,2.109c0.39,4.364-0.28,4.638-0.221,9.763
							c0.881-1.631,2.999,4.602,3.388,8.975c-0.348-0.258-0.799,0.724-1.004,1.2c-0.124,8.946-0.743,13.75-0.755,22.092
							c-0.33,0.769-0.73,4.795-1.316,3.08c0.241,1.2,0.704,2.302,0.736,4.876c-1.179,4.979-0.183-5.738-1.599-1.941
							c0.792,0.325,1.093,6.655,1.588,10.32c1.223-1.127,0.234-8.468-0.261-12.138c1.688-0.017,3.455,6.373,4.235,15.092
							c0.42,6.929-1.09,3.004-0.851,4.208c-0.295,13.017,2.947,11.089,1.73,21.898c-1.076,4.289-2.141,0.193-2.916,1.144
							c-0.407-5.645,0.683-8.667,0.64-12.493l-0.51,4.711c-0.355-1.796-0.628-5.564-0.315-7.618
							c-0.967,3.595-0.187,21.991-1.078,32.034c0.361,1.785,0.733,4.865,1.166,3.407l-0.15-3.178
							c0.867-2.92,1.199,5.981,1.604,1.958c0.609,4.263,1.567,9.042,1.077,15.042l-1.226,1.127c0.358-0.129,0.73-3.922,0.356-5.609
							c0.543,2.501-1.66,9.201-0.055,11.942l0.85-4.207c0.616,4.28,1.919,9.57,1.531,14.888c1.211-2.42-0.139-1.226,1.278-5.005
							c-1.762,3.276,0.074-13.604-1.778-8.342c1.645-3.877,0.697-6.711,2.101-11.78c-0.405,0.157-0.774,1.796-0.575-2.669
							c-0.118-0.201-0.269-0.677-0.356-0.979c0.014-0.137,0.019-0.185,0.03-0.302c-0.018,0.089-0.03,0.157-0.048,0.246
							c-0.06-0.193-0.073-0.209-0.016,0.092c-0.177,1.063-0.39,1.925-0.615,2.274c-0.929-2.215-0.9-9.315-1.381-11.716
							c0.192-2.649,0.465,1.108,0.896-0.338l-0.718-3.586c0.898-0.355,1.491-7.038,2.018-0.797l0.04-5.617
							c0.504-3.307,0.704-7.855,0.326-10.661c0.195-2.649-0.994-6.692-0.291-4.384l-0.557-8.809l0.225-0.081
							c0.113-8.692-1.486-17.893,0.134-27.83c-0.227-2.926-0.504-5.95-0.249-10.846l0.776-0.954
							c-0.271-3.757,0.778-11.282-0.031-12.896c2.092-4.054,0.456-18.234,0.827-24.842l-1.015-0.249
							c0.013-1.004,0.009-1.999-0.01-3.001c-0.031-1.247-0.063-2.503-0.096-3.791c-0.09-3.468-0.228-7.019-0.394-10.76
							c-0.973,0.042-2.058,0.089-3.173,0.138c0,0-0.034,0.225-0.069,0.449c-0.045,0.224-0.09,0.449-0.09,0.449
							c-1.97,0.184-4.009,0.236-6.241,0.212c-0.558-0.01-1.128-0.021-1.709-0.031c-0.292-0.008-0.586-0.017-0.884-0.025
							c-0.247-0.01-0.497-0.02-0.748-0.03c-0.821-0.051-1.67-0.104-2.54-0.158c-3.482-0.24-7.318-0.56-11.168-0.514
							c0.523-0.344,2.476-0.254,3.857-0.047c-9.197-2.026-19.405,1.474-27.748-0.002c-2.078,0.326-3.583,0.215-5.041-0.011
							c0.193-0.001,0.367-0.018,0.515-0.046c-0.212-0.011-0.528-0.013-0.853-0.011c-0.918-0.154-1.863-0.333-2.888-0.478
							c0.87,0.219,1.704,0.398,2.429,0.481c-1.604,0.019-4.034,0.129-6.418,0.354l-1.015-0.963c-0.193,0.01-0.35,0.018-0.552,0.028
							c-2.339-0.356-1.88,0.456-0.632,1.18c-1.2,0.159-2.3,0.349-3.153,0.582c-1.899-1.555-6.252,0.523-8.845-1.136
							c-1.606,0.81-11.982,0.609-13.252,2.31c-0.081-0.221-0.783-0.327,0.504-0.341c-2.658-0.194-5.312-0.387-7.696,0.092
							l-1.127-1.224l-5.803,1.646c-3.524-0.746-4.984-1.18-1.485-2.122c-8.451,1.448-6.856,0.546-14.043,1.982l0.35-0.792
							c-2.568,0.03-6.675,1.09-8.225,0.436c-5.746-1.504-28.434-0.208-43.185-1.607c2.861,2.332-6.856-1.043-7.441,0.763
							c-0.858-0.551-2.915-0.863-0.526-1.343C66,2.451,62.218,1.035,57.02,2.558c-0.861-0.554,1.611-0.81,0.845-1.136
							c-0.604,0.118-2.392,0.479-3.175,0.15c-0.767-0.328,1.103-0.462,2.294-0.703c-7.69,0.093-8.468,1.792-9.027,3.387
							C44.06,3.5,42.116,3.607,39.301,4.654c-1.356-0.521-3.62-1.068,1.158-1.255c-2.688-0.076-16.421-0.765-16.695,0.514
							c-0.842-0.324-3.757-0.095-4.465,0.053c-3.097-0.052-4.781-0.081-6.452-0.109c-2.195-0.023-4.405-0.021-8.343,0.039
							L6.85,4.104c-0.733,0.548-1.579,0.75-2.739,0.791c0.037,1.113-0.058,2.217-0.147,3.584c-0.09,1.358-0.174,2.995-0.114,4.932
							l-0.158-0.188c-0.122,1.461-0.22,2.635-0.299,3.593c-0.064,0.899-0.096,1.596-0.106,2.159
							c-0.022,1.125,0.039,1.712,0.097,2.293c0.113,1.164,0.207,2.308-0.428,7.708l0.959-0.587c2.063,1.007-1.217,9.57-0.428,15.839
							l0.548-2.263c0.705,3.424-2.806,9.57-3.063,13.008c-0.18,0.75-0.288-1.183-0.422-2.229c-1.216,9.002,1.258,1.167,1.55,7.875
							c-0.678,1.236-1.724-1.595-1.851,2.92c-0.549,2.25,2.202,13.095,0.901,19.255c0.522-1.357,1.044-2.706,1.437,0.411
							c0.187,4.775-1.975,12.91-0.328,17.224c-0.143,0.607-0.279,0.837-0.409,0.862c0.425,3.651,0.706,11.864,1.599,14.063
							c-3.314,3.374,1.611,22.696-1.444,22.615l0.164,11.229l-0.312-0.293c-0.202,7.178,0.53,9.715,1.264,12.239
							c-0.208,1.659-0.494,0.448-0.653,0.311c-0.616,10.488-0.486,11.531,1.036,20.324l-0.992,0.915
							c0.577,2.384-1.554,15.163-0.397,25.449c-0.112-0.101-0.305-0.313-0.444-1.13c1.163,11.573-2.75,27.707,0.859,31.947
							l0.89,7.637c0.281-9.88,1.566,1.471,2.167-2.593c0.212,3.886-1.089,10.046-1.274,5.271l0.181-0.747
							c-1.883-1.754-0.667,12.278-1.948,12.013c0.093,19.442-0.949,38.393-1.029,56.604l1.463-2.098l-0.084,6.353
							c-0.342,1.667-1.145,2.238-1.084-2.294c-0.829,2.383,0.694,7.601,1.013,7.729c-0.593,8.874-1.706-3.466-1.741-0.744
							l0.109,3.695l0.171-0.833c0.598,3.015,1.23,3.219,1.159,8.752c-0.146,2.454-0.372,3.188-0.568,3.518
							c-0.195,0.335-0.362,0.268-0.391,1.329c-0.104,0.022-0.152,0.781-0.042,3.248c-0.013,1.259-0.024,2.518-0.024,3.764
							l8.677,0.099c0,0-1.116-0.289-2.231-0.577c-1.062-0.289-1.992-0.577-1.992-0.577c2.694-0.284,5.237-0.269,6.603-0.346
							c1.384-0.078,1.328-0.248-0.924-0.902c0.401,0.126,0.916,0.239,1.534,0.341c0.264,0.045,0.545,0.093,0.842,0.144
							c0.271,0.041,0.555,0.083,0.853,0.127c1.194,0.159,2.606,0.276,4.158,0.362c3.105,0.172,6.771,0.22,10.373,0.223
							c7.202,0.007,14.143-0.16,15.807,0.154c4.969-0.842,9.873-0.827,15.949-0.726c-1.511-0.241-2.415-1.539,2.825-1.379
							c-1.916,2.679,9.595,1.163,13.83,3.09c-3.784-1.278,14.897-0.315,8.958-2.13c4.372,0.216,0.266,1.002,3.583,1.633
							c10.407-1.038,22.935,0.674,35.797,0.324c0.201-0.351-1.952-0.89,0.806-1.413l6.792,1.759c2.54-0.173,2.339-2.031,6.98-0.81
							c-0.655-0.297-1.634-0.742,0.069-0.854c25.2,1.714,51.493-1.404,77.085,1.817c-3.467-0.682-1.155-0.75,1.49-0.774
							c-1.72-0.164,0.04-0.87-0.299-1.346l10.714,1.324c1.953-1.323,11.487-0.089,12.605-1.355l-3.393,0.228
							c4.512-1.492-6.314-3.318-5.654-5.234c-5.052,1.698-13.321-2.514-21.61-0.084c-1.829-0.391,1.562-0.618,0.582-1.062
							c-2.101,0.821-4.639,0.993-9.341,0.624l0.531-0.204c-13.209,0.202-18.874-0.608-33.715-1.148l1.1,0.948
							c-3.189-0.127-3.86-0.424-5.354-0.661c-3.659,1.436,8.957,0.081,5.623,1.665c-4.23-1.928-22.489-0.029-25.349-2.22
							c-4.906-0.011,1.438,1.097-3.466,1.084l-1.301-0.593l-1.239,0.764c-3.217-0.126-4.84-0.867-4.96-1.369
							c0.78,0.06,2.219-0.14,3.055-0.184c-4.171-0.698-11.76,0.238-13.192,0.011l4.714,0.365
							c-13.389,0.555-29.737-0.224-42.673,0.982l0.981,0.448c-9.878,0.826-7.911-0.491-18.757-0.109l0.395-0.106
							c-2.171,0.445-5.069,0.67-8.037,0.619c2.738-0.523-5.153-1.018-1.561-1.597c-10.712,0.888-5.299,0.697-12.374,2.358
							l-1.631-0.741c-2.411,0.67-2.612,1.024-8.028,1.216c4.442-0.636-3.458-1.129,1.519-1.971
							c-11.366-1.622-16.877,1.638-22.092-0.734c-5.22,2.053,9.836,1.14,6.913,1.579c2.447,0.672-4.309,1.535-7.875,1.328
							c-1.383-0.018-2.916-0.434-3.82-0.926c-1.032-0.493-1.896-1.063-2.966-1.391c0.172-0.912,0.277-1.764,0.27-2.699
							c-0.009,0.458,0.145,0.413,0.137,0.847c0.131-0.486,0.152-0.867,0.124-1.255c-0.015-0.193-0.042-0.387-0.073-0.588
							c-0.032-0.216-0.068-0.32-0.103-0.862c-0.137-1.771-0.232-3.639,0.192-5.736c-1.24-2.35,0.072-5.444-1.511-6.121l0.366,8.378
							c-0.414-4.75-2.267-9.204-1.368-17.028c0.319,0.61,0.738,2.938,0.974,4.538c0.467-2.288-0.31-4.406,0.17-6.778
							c1.585,0.677,0.345,10.183,1.553,15.271c0.669-2.456-1.148-9.626,0.568-7.069c-2.182-3.676,0.275-9-1.391-15.185l0.949,0.409
							c-0.148-0.979-0.597-3.008-0.573-4.809l1.23,3.262c-1.049-5.007,0.917-9.654,0.347-14.458
							c0.029,10.057-1.144,2.258-1.836,6.51c-1.271-12.404,2.481-7.133,2.027-21.02c0.134,1.88-0.569,7.058-1.01,4.118
							c0.195-2.644,0.56-6.135,1.058-7.757c-0.197-9.201-0.976,1.413-1.56-2.504c1.156-3.133-0.471-4.518-0.841-8.552l0.965-0.028
							c0.619-10.485-2.011-2.781-1.263-12.219l1.338,3.989l-0.346-4.921l1.098,1.016c-0.814-5.354-0.604-7.022-0.296-12.267
							c-0.68,1.22-1.751-0.686-1.782-5.329c0.574-3.167,0.919,1.773,0.78-4.809c0.604,1.485,1.361,3.113,0.473,5.978
							c0.313,0.293,0.605,1.466,0.915,1.768c0.66-3.41,0.15-8.572,0.143-10.955c-0.036,0.917-0.088,2.014-0.226,2.576l-1.337-9.542
							c0.362-1.502,0.653-0.311,0.938,0.87c-0.104-1.933-0.548-3.271-0.631-6.112c0.784,0.735,1.594,0.56,1.962,4.582l-0.869-9.092
							c0.341-0.607,0.937-4.666,1.226-3.485c0.461-5.041-1.521-12.365-0.913-19.048c-0.152-0.347-0.298-1.043-0.409-2.464
							c0.177-6.28,1.139-11.845,0.063-19.289l1.406-4.224c-0.319-5.83-1.771,5.718-2.302-3.989c-0.448-6.874,1.199-2.565,1.59-4.977
							c-0.708-3.418-2.15-9.36-1.006-15.674C10.883,137.006,10.675,138.646,10.779,140.598z M10.155,68.695
							c0.203,1.393,0.827,4.171,0.259,5.189C9.308,72.298,9.837,71.07,10.155,68.695z M52.95,8.616
							c-1.035,0.32-2.638,0.162-4.445-0.203C49.817,8.333,51.302,8.369,52.95,8.616z M252.209,116.453
							c-0.016-0.059-0.027-0.101-0.047-0.148C252.539,113.197,252.39,114.299,252.209,116.453z M251.791,122.907
							c0.136,0.649,0.269,0.604,0.403,0.33c-0.244-0.45-0.262-1.899-0.192-3.55C251.75,120.146,251.575,120.979,251.791,122.907z
							 M1.914,343.474l0.253-1.973C2.444,345.505,2.193,344.494,1.914,343.474z"/>
						<path fill="#EDE3D9" d="M40.557,9.937c-0.395-0.163-0.504-0.343-0.596-0.524C39.413,9.575,39.402,9.762,40.557,9.937z"/>
						<path fill="#EDE3D9" d="M11.286,185.316l-0.011,0.218c0.058,0.121,0.117,0.185,0.175,0.221L11.286,185.316z"/>
						<path fill="#EDE3D9" d="M243.61,22.939c0.14-1.329,0.316-2.07,0.498-2.562C243.873,20.304,243.673,20.908,243.61,22.939z"/>
						<path fill="#EDE3D9" d="M253.43,157.106l-0.251-4.135c0.048,2-0.163,2.714-0.315,3.724
							C253.089,156.602,253.415,155.813,253.43,157.106z"/>
						<path fill="#EDE3D9" d="M247.459,192.986c0.118,0.604,0.013,1.281,0.133,1.877l0.448-0.165
							C248.011,192.125,247.65,190.326,247.459,192.986z"/>
						<path fill="#EDE3D9" d="M250.224,160.933c-0.812,0.327-0.536,2.92-0.386,5.815c-0.003-0.173-0.01-0.338,0-0.512
							C250.974,167.09,250.598,164.004,250.224,160.933z"/>
						<path fill="#EDE3D9" d="M249.866,167.42c0.038,0.892,0.061,1.804,0.021,2.677C250.342,170.436,249.981,169.012,249.866,167.42
							z"/>
						<path fill="#EDE3D9" d="M252.329,131.092c-0.208,1.374,1.038,0.861,0.708,1.639
							C254.069,134.265,251.786,123.575,252.329,131.092z"/>
						<polygon fill="#EDE3D9" points="247.55,163.277 248.552,162.239 247.745,160.617 						"/>
						<path fill="#EDE3D9" d="M248.286,140.414l-0.277,4.627c0.168-0.07,0.268,0.518,0.342,1.239
							C248.383,143.429,248.583,140.304,248.286,140.414z"/>
						<path fill="#EDE3D9" d="M248.35,146.28c-0.02,1.485,0.002,2.898,0.166,3.723C248.505,149.2,248.472,147.471,248.35,146.28z"/>
						<polygon fill="#EDE3D9" points="247.25,156.952 247.458,155.584 247.533,152.317 						"/>
						<path fill="#EDE3D9" d="M248.479,90.674l-0.287-5.05c-0.344-0.515-0.554,0.862-0.416,2.742
							C248.014,89.575,248.147,91.449,248.479,90.674z"/>
						<path fill="#EDE3D9" d="M245.736,105.946c0.208-1.365,0.431-1.458,0.761-2.227l-1.242-0.154L245.736,105.946z"/>
						<path fill="#EDE3D9" d="M245.445,91.22c-0.345-0.503-0.988-7.33-0.911-0.929C244.875,90.803,245.162,95.861,245.445,91.22z"/>
						<polygon fill="#EDE3D9" points="247.016,15.131 247.033,16.416 249.069,16.23 						"/>
						<path fill="#EDE3D9" d="M189.05,11.965c5.983,0.488,1.421-1.257,6.828-0.647c1.404-0.481-4.42-0.498-2.979-0.914
							C189.288,10.913,187.391,10.625,189.05,11.965z"/>
						<path fill="#EDE3D9" d="M192.899,10.404c0.579-0.08,1.192-0.178,1.844-0.31C193.697,10.222,193.205,10.32,192.899,10.404z"/>
						<polygon fill="#EDE3D9" points="236.94,350.171 240.79,350.596 238.305,349.911 						"/>
						<path fill="#EDE3D9" d="M244.329,348.659l0.906,1.3l2.311-1.176C246.675,348.841,244.989,348.953,244.329,348.659z"/>
						<path fill="#EDE3D9" d="M12.771,58.006l-0.312-0.294c-0.338,0.596-0.363,1.497-0.416,3.301L12.771,58.006z"/>
						<polygon fill="#EDE3D9" points="11.799,110.193 11.826,109.294 10.652,110.973 						"/>
						<path fill="#EDE3D9" d="M13.296,153.993c0.049-1.788-0.213-3.889-0.164-5.685C13.345,152.205,11.832,154.477,13.296,153.993z"
							/>
					</g>
				</g>
			</g>
		</g>
	</g>
</g>
<g id="contenuto_lettera">
</g>
<g id="Layer_15">
</g>
<g id="Maps">
</g>
<g id="Layer_14">
</g>
</svg>
